<svg width="258" height="28" viewBox="0 0 258 28" fill="none" xmlns="http://www.w3.org/2000/svg">
<path d="M224.228 10.7894C213.762 7.78374 202.662 7.78374 192.196 10.7894C181.708 13.6353 170.651 13.6353 160.163 10.7894C149.696 7.7948 138.598 7.7948 128.13 10.7894C117.644 13.6441 106.585 13.6441 96.0979 10.7894C85.6318 7.78374 74.5313 7.78374 64.0652 10.7894C53.5773 13.6353 42.5205 13.6353 32.0326 10.7894C21.565 7.7948 10.4676 7.7948 0 10.7894V14.9994C10.4879 12.1535 21.5447 12.1535 32.0326 14.9994C42.5002 17.994 53.5977 17.994 64.0652 14.9994C74.5532 12.1535 85.61 12.1535 96.0979 14.9994C106.565 17.994 117.663 17.994 128.13 14.9994C138.617 12.1447 149.676 12.1447 160.163 14.9994C170.631 17.994 181.728 17.994 192.196 14.9994C202.684 12.1535 213.74 12.1535 224.228 14.9994C234.694 18.005 245.795 18.005 256.261 14.9994V10.8122C245.773 13.6581 234.716 13.6581 224.228 10.8122" fill="#279BDB"/>
<path d="M225.228 21.2542C214.762 18.2486 203.662 18.2486 193.196 21.2542C182.708 24.1001 171.651 24.1001 161.163 21.2542C150.696 18.2596 139.598 18.2596 129.13 21.2542C118.644 24.109 107.585 24.109 97.0979 21.2542C86.6318 18.2486 75.5313 18.2486 65.0652 21.2542C54.5773 24.1001 43.5205 24.1001 33.0326 21.2542C22.565 18.2596 11.4676 18.2596 1 21.2542V25.4642C11.4879 22.6184 22.5447 22.6184 33.0326 25.4642C43.5002 28.4588 54.5977 28.4588 65.0652 25.4642C75.5532 22.6184 86.61 22.6184 97.0979 25.4642C107.565 28.4588 118.663 28.4588 129.13 25.4642C139.617 22.6095 150.676 22.6095 161.163 25.4642C171.631 28.4588 182.728 28.4588 193.196 25.4642C203.684 22.6184 214.74 22.6184 225.228 25.4642C235.694 28.4699 246.795 28.4699 257.261 25.4642V21.2771C246.773 24.1229 235.716 24.1229 225.228 21.2771" fill="#279BDB"/>
<path d="M224.228 2.25424C213.762 -0.751414 202.662 -0.751414 192.196 2.25424C181.708 5.10011 170.651 5.10011 160.163 2.25424C149.696 -0.740358 138.598 -0.740358 128.13 2.25424C117.644 5.10897 106.585 5.10897 96.0979 2.25424C85.6318 -0.751414 74.5313 -0.751414 64.0652 2.25424C53.5773 5.10011 42.5205 5.10011 32.0326 2.25424C21.565 -0.740358 10.4676 -0.740358 0 2.25424V6.46423C10.4879 3.61836 21.5447 3.61836 32.0326 6.46423C42.4986 9.46989 53.5992 9.46989 64.0652 6.46423C74.5532 3.61836 85.61 3.61836 96.0979 6.46423C106.564 9.46989 117.664 9.46989 128.13 6.46423C138.619 3.62167 149.675 3.62167 160.163 6.46423C170.629 9.46989 181.73 9.46989 192.196 6.46423C202.684 3.61836 213.74 3.61836 224.228 6.46423C234.694 9.46989 245.795 9.46989 256.261 6.46423V2.25424C245.773 5.10011 234.716 5.10011 224.228 2.25424Z" fill="#279BDB"/>
</svg>
