<svg width="87" height="81" viewBox="0 0 87 81" fill="none" xmlns="http://www.w3.org/2000/svg">
<path d="M48.3169 0.507803C43.7004 0.652071 39.5811 2.78685 36.7857 6.0723L36.4485 6.46871L36.0659 6.11582C31.1173 1.5511 24.2515 -0.423859 17.4061 0.9226L17.406 0.922615C9.14141 2.54688 2.5066 9.16885 0.904761 17.3918L0.904739 17.3919C-0.328346 23.7139 1.28688 30.1356 5.3287 35.0132L5.32878 35.0133C9.01251 39.461 14.2853 42.1803 19.9936 42.6314L20.6475 42.683L20.4244 43.2999C19.9642 44.5718 19.6622 45.9135 19.5466 47.307C19.5344 47.4582 19.5289 47.6078 19.5228 47.771C19.5212 47.8118 19.5197 47.8535 19.518 47.8962L19.5179 47.8987C19.5146 47.9727 19.5106 48.0388 19.5065 48.1H19.5184V48.6C19.5184 49.7125 19.6007 50.8231 19.8382 51.9295C21.1106 57.8488 25.7197 62.5392 31.5717 63.8779C34.1329 64.4601 36.7186 64.433 39.1781 63.8052L39.5613 63.7074L39.7447 64.0577C42.3875 69.1037 43.8097 74.7124 43.8886 80.4913L48.3139 80.4142C48.2265 73.1828 46.2092 66.0953 42.4675 59.8876L42.4674 59.8875L41.4764 58.2426L39.7035 58.9962L39.703 58.9964C37.469 59.943 34.999 60.1505 32.5666 59.5904C28.4329 58.6445 25.0659 55.1989 24.1659 51.0108C23.9873 50.1834 23.905 49.3559 23.9107 48.5371C23.911 48.4595 23.9211 48.3898 23.9266 48.3517L23.927 48.3488C23.9339 48.3014 23.9351 48.2911 23.9353 48.284C23.9353 48.2839 23.9353 48.2837 23.9354 48.2836L24.4351 48.3003C24.4568 47.5983 24.53 46.9017 24.6873 46.224L48.3169 0.507803ZM48.3169 0.507803C48.4829 0.502614 48.6496 0.5 48.8169 0.5V0.0188999H48.9692C49.6925 0.0214626 50.4224 0.0610862 51.1523 0.162M48.3169 0.507803L72.262 25.4853M48.3169 0.507803V0.520649L48.8187 0.518897C49.5743 0.516257 50.331 0.553251 51.0831 0.657192M48.3169 0.507803L51.0831 0.657192M46.7355 5.11075C46.5508 5.14428 46.3559 5.19802 46.1901 5.24373C46.1229 5.26225 46.0605 5.27946 46.0055 5.29346L46.0034 5.29401C45.6101 5.39601 45.2113 5.51181 44.8189 5.66109C44.5353 5.76666 44.2597 5.8856 43.9926 6.01155L43.9913 6.01214C43.6765 6.16167 43.3772 6.32936 43.0921 6.49747L43.0908 6.49821C43.0438 6.52611 42.9953 6.55456 42.9458 6.58362C42.7152 6.71893 42.4615 6.86779 42.224 7.03875C42.1356 7.10067 42.0577 7.1663 41.994 7.2211C41.9785 7.23435 41.9642 7.24679 41.9505 7.25858C41.9023 7.30028 41.8634 7.33392 41.8213 7.36708L41.8189 7.36901C40.5763 8.36082 39.5092 9.61427 38.737 11.1291L38.7368 11.1294L38.3246 11.9394L38.3151 11.958L38.3072 11.9774C37.8342 13.1368 37.5389 14.3859 37.4787 15.7H33.0507C33.1076 13.9742 33.4574 12.3237 34.0336 10.7775L34.1415 10.4878L33.9305 10.2617C29.969 6.01778 24.1118 4.0877 18.2627 5.23881C11.7421 6.51979 6.51293 11.7372 5.24771 18.2291C4.26758 23.2491 5.54043 28.3484 8.74386 32.2167L8.74399 32.2169C11.9475 36.0819 16.6672 38.3 21.6928 38.3C22.2056 38.3 22.7458 38.2604 23.3012 38.1999L23.4883 38.1795L23.6156 38.0407C26.3993 35.0047 30.3458 33.046 34.7549 32.9078V37.3111C31.5248 37.4542 28.6761 38.9763 26.6968 41.2548L26.69 41.2626L26.6836 41.2706L26.4097 41.6135L26.4094 41.6138C25.3633 42.9253 24.6516 44.385 24.2594 45.9211C24.2567 45.9299 24.2527 45.9409 24.2416 45.9724C24.2311 46.0025 24.2137 46.0526 24.2003 46.1109L46.826 5.6025M46.7355 5.11075C46.736 5.11066 46.7365 5.11058 46.737 5.11049L46.826 5.6025M46.7355 5.11075C46.7351 5.11084 46.7346 5.11093 46.7341 5.11101L46.826 5.6025M46.7355 5.11075C47.3809 4.99019 48.0446 4.91652 48.731 4.91082C49.3001 4.90523 49.8811 4.93605 50.4676 5.01824L50.3982 5.5134M46.826 5.6025C47.4471 5.4864 48.0818 5.4162 48.7355 5.4108C49.2834 5.4054 49.8395 5.4351 50.3982 5.5134M50.3982 5.5134L50.4677 5.01824C54.6668 5.60688 58.2413 8.6307 59.5907 12.7168L59.1159 12.8736M50.3982 5.5134C54.4045 6.075 57.8248 8.964 59.1159 12.8736M59.1159 12.8736L59.5907 12.7168C60.5248 15.546 60.321 18.3779 58.9959 21.1006L58.9959 21.1007L57.007 25.1855M59.1159 12.8736C60.0083 15.5763 59.8157 18.2736 58.5463 20.8818L56.3843 25.3224L57.007 25.1855M57.007 25.1855L61.4633 24.2059L61.4635 24.2058C65.2059 23.3851 68.748 23.8016 72.262 25.4853M57.007 25.1855L56.7279 25.7588L61.5707 24.6942C65.2026 23.8977 68.6311 24.3 72.046 25.9362C77.0205 28.3176 80.5358 33.0588 81.2221 38.3103M72.262 25.4853C77.3816 27.9362 81.0086 32.8181 81.7178 38.2455M72.262 25.4853L51.0831 0.657192M81.2221 38.3103C81.8432 43.0569 80.4599 47.6307 77.3243 51.1839M81.2221 38.3103L81.7178 38.2454C81.7178 38.2455 81.7178 38.2455 81.7178 38.2455M81.2221 38.3103L81.7178 38.2455M77.3243 51.1839C74.0532 54.8937 69.1518 56.8593 64.2749 56.6406C58.3429 56.3382 52.9479 52.8201 50.382 47.4444M77.3243 51.1839L77.6992 51.5147M77.3243 51.1839L77.6993 51.5146C77.6993 51.5146 77.6993 51.5147 77.6992 51.5147M50.382 47.4444L45.9327 49.5473C46.0046 49.698 46.0783 49.8475 46.1536 49.996M50.382 47.4444L49.9307 47.6598C50.0024 47.81 50.0762 47.9587 50.1521 48.1061M50.382 47.4444L50.5956 47.8965L50.1521 48.1061M46.1536 49.996L45.7014 50.2097C48.3904 55.5181 53.174 59.4201 58.7503 61.1297C58.7672 61.0984 58.784 61.0671 58.8009 61.0359L59.2407 61.2738L59.1053 61.7551C59.0702 61.7452 59.0351 61.7353 59 61.7252C55.9576 67.5165 54.3091 73.9474 54.2438 80.4999L54.7439 80.4912M46.1536 49.996C48.8572 55.3242 53.725 59.2032 59.3761 60.7925L59.978 60.9618L59.6805 61.5117C56.5246 67.345 54.8123 73.8555 54.7439 80.4912M46.1536 49.996L50.1521 48.1061M54.7439 80.4912C54.7424 80.6292 54.7417 80.7673 54.7417 80.9055V80.9913L59.6665 80.9055M54.7439 80.4912L59.1699 80.4141M59.6665 80.9055C59.6665 74.3904 61.4459 67.9941 64.812 62.4078L64.9991 62.1H64.5914V62.0946V61.8521V61.8083M59.6665 80.9055L59.6578 80.4056L59.1699 80.4141M59.6665 80.9055H59.1665C59.1665 80.7416 59.1677 80.5778 59.1699 80.4141M64.5914 61.8083L64.718 61.6H64.9882C64.9924 61.5997 65.0003 61.5991 65.0088 61.5986C65.0187 61.598 65.0334 61.5973 65.0507 61.5973C65.0654 61.5973 65.0784 61.5979 65.0888 61.5985C65.0922 61.5987 65.0953 61.5989 65.0981 61.5991C65.1087 61.5999 65.1182 61.6009 65.1206 61.6011C65.125 61.6016 65.1222 61.6013 65.1184 61.601C65.1139 61.6006 65.1042 61.6 65.0914 61.6V62.0946C71.2702 62.0622 77.2782 59.4189 81.4011 54.7479C85.5185 50.0796 87.4145 43.8345 86.6008 37.6137C85.6813 30.5748 81.0051 24.2325 74.3949 21.0681C71.4642 19.6657 68.4311 18.9085 65.3557 18.8977C65.3504 18.9285 65.345 18.9592 65.3396 18.99L64.8472 18.9027L64.8356 18.4028C64.8664 18.4021 64.8971 18.4015 64.9279 18.4009C65.2726 16.0073 65.0552 13.5706 64.2668 11.1834C62.3355 5.3352 57.1874 1.0098 51.1523 0.162M64.5914 61.8083V61.5972L65.0887 61.5946C71.1292 61.5629 77.0003 58.9782 81.0262 54.417C85.0473 49.8579 86.9001 43.7574 86.105 37.6786L86.105 37.6785C85.2082 30.8137 80.6423 24.6132 74.179 21.5191C71.1489 20.0692 68.0203 19.329 64.8589 19.4026L64.2483 19.4168L64.3549 18.8154C64.7931 16.3446 64.6102 13.8175 63.792 11.3402C61.9197 5.67047 56.9272 1.4783 51.0831 0.657192M64.5914 61.8083L64.5719 61.8402L64.3848 62.148L64.3837 62.1497C61.0554 67.6733 59.257 73.9781 59.1699 80.4141M51.1523 0.162L51.0827 0.657138C51.0829 0.657156 51.083 0.657174 51.0831 0.657192M51.1523 0.162L51.0838 0.657289C51.0836 0.657257 51.0834 0.657224 51.0831 0.657192M50.1521 48.1061C52.8791 53.3987 58.3038 56.8369 64.2495 57.14L64.2525 57.1401C69.2734 57.3653 74.3233 55.3432 77.6992 51.5147M77.6992 51.5147C80.9315 47.8519 82.3574 43.1334 81.7178 38.2455" fill="black" stroke="white"/>
<path d="M71.0161 40.5002C71.0161 37.4117 68.6242 34.8744 65.5913 34.621V30.2121C71.0693 30.4725 75.4409 34.989 75.4409 40.5002C75.4409 46.0114 71.0693 50.5279 65.5913 50.7883V46.3794C68.6242 46.126 71.0161 43.5887 71.0161 40.5002Z" fill="black" stroke="white"/>
<path d="M21.1929 27.479V31.888C15.7149 31.6275 11.3433 27.111 11.3433 21.5998C11.3433 16.0886 15.7149 11.5721 21.1929 11.3117V15.7206C18.16 15.974 15.7681 18.5113 15.7681 21.5998C15.7681 24.6883 18.16 27.2256 21.1929 27.479Z" fill="black" stroke="white"/>
</svg>
