<svg width="93" height="93" viewBox="0 0 93 93" fill="none" xmlns="http://www.w3.org/2000/svg">
<g clip-path="url(#clip0)">
<path d="M50.6004 52.8596V28.8702C50.6004 28.1075 49.9824 27.4895 49.2189 27.4895C48.4562 27.4895 47.8382 28.1075 47.8382 28.8702V53.557C47.8382 54.004 48.0539 54.4227 48.4179 54.6816C53.5755 58.3563 56.6541 64.3249 56.6541 70.6483C56.6541 81.4495 47.8666 90.2378 37.0646 90.2378C26.2634 90.2378 17.4751 81.4495 17.4751 70.6483C17.4751 64.3249 20.5545 58.3563 25.7121 54.6816C26.0754 54.4227 26.2918 54.004 26.2918 53.557V13.5358C26.2918 7.59556 31.1244 2.76221 37.0646 2.76221C43.0048 2.76221 47.8382 7.59556 47.8382 13.5358V23.3451C47.8382 24.1078 48.4562 24.7265 49.2189 24.7265C49.9824 24.7265 50.6004 24.1078 50.6004 23.3451V13.5358C50.6004 6.07219 44.5282 0 37.0646 0C29.601 0 23.5288 6.07219 23.5288 13.5358V52.8596C17.9959 57.0777 14.7129 63.6743 14.7129 70.6483C14.7129 82.9729 24.74 93 37.0646 93C49.3899 93 59.4171 82.9729 59.4171 70.6483C59.4171 63.6736 56.134 57.0777 50.6004 52.8596Z" fill="black"/>
<path d="M37.0646 82.8712C34.5457 82.8712 32.1255 82.1078 30.065 80.6632C29.4406 80.2247 28.5786 80.3758 28.1408 81.0009C27.703 81.6253 27.8541 82.4867 28.4792 82.9245C31.0066 84.6969 33.9753 85.6335 37.0646 85.6335C45.3278 85.6335 52.0506 78.9113 52.0506 70.6481C52.0506 65.8105 49.6936 61.2439 45.7464 58.4314L43.234 56.6419V13.5356C43.234 10.1334 40.4668 7.36621 37.0646 7.36621C33.6631 7.36621 30.8952 10.1334 30.8952 13.5356V56.6419L28.3834 58.4314C24.4356 61.2439 22.0792 65.8105 22.0792 70.6481C22.0792 73.6466 22.9654 76.5422 24.6428 79.0227C25.0699 79.6542 25.9284 79.8202 26.5606 79.3931C27.1928 78.966 27.3582 78.1074 26.931 77.4752C25.5645 75.4538 24.8414 73.0924 24.8414 70.6481C24.8414 66.7017 26.765 62.9759 29.9863 60.6813L33.0777 58.4782C33.4417 58.2192 33.6581 57.7999 33.6581 57.3536V52.0207H40.4718V57.3536C40.4718 57.7999 40.6875 58.2192 41.0514 58.4782L44.1436 60.6813C47.3649 62.9759 49.2877 66.7017 49.2877 70.6481C49.2877 77.388 43.8044 82.8712 37.0646 82.8712ZM40.4718 28.152H33.6581V20.3613H40.4718V28.152ZM33.6581 30.9142H40.4718V38.7049H33.6581V30.9142ZM37.0646 10.1284C38.9434 10.1284 40.4718 11.6568 40.4718 13.5356V17.5991H33.6581V13.5356C33.6581 11.6568 35.1864 10.1284 37.0646 10.1284ZM33.6581 49.2585V41.4678H40.4718V49.2585H33.6581Z" fill="black"/>
<path d="M76.7545 30.8894C75.791 30.8894 75.2645 31.2591 75.1922 31.9849C74.9843 33.6133 74.6706 36.0725 70.8356 36.0725C67.6924 36.0725 66.164 34.4761 66.164 31.1917V20.6494C66.164 17.4104 67.7009 15.7678 70.7306 15.7678C74.2549 15.7678 75.102 17.9106 75.1922 19.7086C75.2312 20.4195 75.7867 20.8112 76.7545 20.8112C77.7443 20.8112 78.3176 20.533 78.3176 19.1083C78.3176 15.4656 75.1687 12.9219 70.6604 12.9219C65.8164 12.9219 63.0378 15.7387 63.0378 20.6494V31.1917C63.0378 33.8311 63.7921 35.8412 65.28 37.1659C66.5671 38.3125 68.4154 38.9185 70.6256 38.9185C75.1545 38.9185 78.3176 36.3315 78.3176 32.627C78.3176 31.1803 77.7195 30.8894 76.7545 30.8894Z" fill="black"/>
<path d="M64.9911 8.98116C64.9911 6.49354 62.9668 4.46924 60.4792 4.46924C57.9909 4.46924 55.9673 6.49354 55.9673 8.98116C55.9673 11.4688 57.9909 13.4931 60.4792 13.4931C62.9668 13.4931 64.9911 11.4688 64.9911 8.98116ZM60.4792 10.7309C59.5142 10.7309 58.7295 9.94542 58.7295 8.98116C58.7295 8.0162 59.5142 7.23145 60.4792 7.23145C61.4435 7.23145 62.2282 8.0162 62.2282 8.98116C62.2282 9.94542 61.4435 10.7309 60.4792 10.7309Z" fill="black"/>
</g>
<defs>
<clipPath id="clip0">
<rect width="93" height="93" fill="white"/>
</clipPath>
</defs>
</svg>
