<svg width="94" height="94" viewBox="0 0 94 94" fill="none" xmlns="http://www.w3.org/2000/svg">
<path d="M16.5524 80.1548C15.7919 80.1548 15.1754 80.7713 15.1754 81.5317V86.4188C15.1754 87.1792 15.7919 87.7957 16.5524 87.7957C17.3128 87.7957 17.9293 87.1792 17.9293 86.4188V81.5317C17.9293 80.7711 17.3128 80.1548 16.5524 80.1548Z" fill="black"/>
<path d="M15.3911 67.9406L11.0398 64.9969C10.4101 64.5708 9.55383 64.7358 9.12771 65.3657C8.70159 65.9956 8.86683 66.8517 9.49655 67.2778L13.8473 70.2212C14.6788 70.7843 15.1752 71.7195 15.1752 72.723V75.2571C15.1752 76.0176 15.7917 76.6341 16.5522 76.6341C17.3126 76.6341 17.9291 76.0176 17.9291 75.2571V72.723C17.9293 70.8045 16.9805 69.0168 15.3911 67.9406Z" fill="black"/>
<path d="M89.6885 34.7022C87.8968 34.1907 86.008 34.5465 84.5066 35.6793C83.012 36.8067 82.1197 38.576 82.1197 40.4121V43.8653C82.1197 44.0864 82.007 44.2319 81.9398 44.2988C81.8726 44.3658 81.7177 44.4785 81.5058 44.4776C81.1691 44.4767 80.8952 44.202 80.8952 43.8653V30.6766C80.8952 29.9161 80.2787 29.2996 79.5182 29.2996C78.7578 29.2996 78.1413 29.9161 78.1413 30.6766V43.8653C78.1413 44.2174 78.1964 44.5569 78.2973 44.8764C76.9395 45.1154 75.2521 45.4938 73.4646 46.0851C74.6396 42.7768 75.0716 39.2274 74.6789 35.6608C74.5515 34.5094 73.7988 33.5348 72.7742 33.0824V18.3722C72.7742 18.3693 72.7745 18.3664 72.7745 18.3634C72.7745 16.8837 73.9783 15.68 75.4579 15.68C76.9375 15.68 78.1413 16.8839 78.1413 18.3634V24.4016C78.1413 25.162 78.7578 25.7785 79.5182 25.7785C80.2787 25.7785 80.8952 25.162 80.8952 24.4016V18.3634C80.8952 15.3652 78.456 12.9261 75.4579 12.9261C74.4625 12.9261 73.5287 13.1949 72.7253 13.664C72.3734 11.0498 70.1791 8.96258 67.5346 8.86986C66.3629 8.82855 65.2419 9.15186 64.2951 9.79407C63.5373 7.7024 61.5306 6.2041 59.1806 6.2041C57.7273 6.2041 56.3617 6.76957 55.3349 7.79603C54.3084 8.82268 53.743 10.1884 53.743 11.6417V14.3282C52.9511 13.877 52.0356 13.6192 51.0607 13.6192C49.6094 13.6192 48.244 14.1843 47.2141 15.2122C47.1399 15.2864 47.069 15.363 46.9998 15.4406C46.93 15.3624 46.8586 15.2853 46.7839 15.2104C45.7558 14.1845 44.3904 13.6192 42.9393 13.6192C41.9644 13.6192 41.0489 13.877 40.257 14.3282V11.6417C40.257 10.1884 39.6916 8.82286 38.6649 7.79603C37.6383 6.76957 36.2725 6.2041 34.8194 6.2041C32.4668 6.2041 30.4583 7.70589 29.7023 9.79223C28.7562 9.15113 27.636 8.82727 26.4665 8.86968C23.8207 8.96258 21.6264 11.0498 21.2745 13.664C20.4711 13.1949 19.5373 12.9261 18.5419 12.9261C15.5438 12.9261 13.1046 15.3654 13.1046 18.3634V43.8651C13.1046 44.2018 12.8307 44.4765 12.4938 44.4774C12.4933 44.4774 12.4927 44.4774 12.492 44.4774C12.272 44.4774 12.1268 44.3656 12.0598 44.2986C11.9926 44.2316 11.8799 44.0862 11.8799 43.8651V40.4119C11.8799 38.576 10.9876 36.8066 9.49301 35.6791C7.99177 34.5463 6.10316 34.1904 4.31111 34.702C1.77277 35.427 0 37.8145 0 40.5078V58.1042C0 59.8265 0.851317 61.4301 2.27654 62.3934L4.20371 63.6971C4.44018 63.8572 4.70841 63.9338 4.97388 63.9338C5.41561 63.9338 5.84962 63.7215 6.11564 63.3281C6.54176 62.6982 6.37653 61.8423 5.74662 61.4162L3.81909 60.1121C3.1521 59.6612 2.75388 58.9105 2.75388 58.104V40.5076C2.75388 39.0376 3.70508 37.7392 5.06715 37.3504C6.02054 37.0783 7.0292 37.2703 7.83425 37.8776C8.64297 38.4877 9.12582 39.4352 9.12582 40.4121V43.8653C9.12582 44.7662 9.47722 45.6126 10.115 46.2487C10.7284 46.8604 11.536 47.2034 12.3982 47.2269C12.4053 47.2274 12.4123 47.2287 12.4195 47.2293C12.4685 47.2322 17.3776 47.535 22.0425 49.6121C22.0744 49.6263 22.1067 49.6375 22.139 49.649C23.2331 51.6278 24.6168 53.4747 26.2719 55.1303C26.832 55.6905 27.4164 56.22 28.0224 56.7186C26.8304 58.5026 26.1814 60.6157 26.1814 62.7727V69.0582C26.1814 69.8186 26.7979 70.4352 27.5583 70.4352C28.3187 70.4352 28.9352 69.8186 28.9352 69.0582V62.7727C28.9352 61.1997 29.3975 59.6583 30.2478 58.3462C34.114 60.8535 38.6229 62.2201 43.2121 62.2201C43.5272 62.2201 43.8428 62.2137 44.1584 62.2009C44.648 62.1805 45.1371 62.1434 45.6232 62.0922V86.4187C45.6232 87.1791 46.2397 87.7956 47.0002 87.7956C47.7606 87.7956 48.3771 87.1791 48.3771 86.4187V62.0914C48.8655 62.1425 49.3557 62.1792 49.8446 62.1985C50.1598 62.2113 50.4743 62.2177 50.7892 62.2177C55.3757 62.2176 59.8836 60.8502 63.75 58.3417C64.6019 59.6548 65.0651 61.1977 65.0651 62.7724V69.0578C65.0651 69.8183 65.6816 70.4348 66.4421 70.4348C67.2025 70.4348 67.819 69.8183 67.819 69.0578V62.7724C67.819 60.6135 67.1691 58.4989 65.9752 56.7138C66.5807 56.2154 67.1649 55.6861 67.7248 55.1263C69.379 53.4721 70.7625 51.627 71.8566 49.6505C71.8905 49.6384 71.9245 49.6266 71.9579 49.6117C76.6004 47.5445 81.4851 47.2346 81.5798 47.2289C81.5875 47.2285 81.5948 47.2271 81.6024 47.2265C82.4643 47.2028 83.272 46.8601 83.8852 46.2483C84.523 45.6122 84.8744 44.7656 84.8744 43.8649V40.4118C84.8744 39.4349 85.3572 38.4875 86.1659 37.8773C86.9712 37.2699 87.98 37.0777 88.933 37.35C90.2949 37.7388 91.2463 39.0372 91.2463 40.5072V58.1036C91.2463 58.9101 90.8481 59.6607 90.1805 60.1119L78.6087 67.9403C77.0197 69.0164 76.0709 70.804 76.0709 72.7224V86.4183C76.0709 87.1788 76.6874 87.7953 77.4479 87.7953C78.2083 87.7953 78.8248 87.1788 78.8248 86.4183V72.7224C78.8248 71.7188 79.3212 70.7836 80.1522 70.2209L91.7229 62.3933C93.1487 61.4294 94 59.8259 94 58.1036V40.5072C93.9993 37.8145 92.2265 35.427 89.6885 34.7022ZM21.2253 33.0824C20.2007 33.5349 19.4479 34.5096 19.3203 35.6615C18.9278 39.2276 19.3589 42.7764 20.5324 46.0842C18.7457 45.4934 17.0592 45.1152 15.7021 44.8764C15.8031 44.5569 15.8582 44.2174 15.8582 43.8653V18.3634C15.8582 16.8837 17.062 15.68 18.5415 15.68C20.0211 15.68 21.2249 16.8839 21.2249 18.3634C21.2249 18.3664 21.2253 18.3693 21.2253 18.3722V33.0824ZM65.4736 12.3717C66.0023 11.8619 66.698 11.596 67.4366 11.6221C68.8613 11.672 70.0205 12.9184 70.0205 14.4006L70.0201 32.7038C68.2242 32.6511 66.4211 32.812 64.6533 33.1703V14.3033C64.6533 14.3018 64.6531 14.3005 64.6531 14.2991C64.6544 13.5656 64.9456 12.8814 65.4736 12.3717ZM56.4967 33.8731V11.6417C56.4967 10.9241 56.7757 10.2497 57.2821 9.74339C57.7886 9.23686 58.4628 8.95799 59.1804 8.95799C60.6604 8.95799 61.8644 10.162 61.8644 11.6597L61.8994 33.901C60.3121 34.425 58.7741 35.1125 57.3221 35.9635C57.2547 36.003 57.1877 36.0443 57.1205 36.0845C56.9424 35.3701 56.7322 34.6672 56.4914 33.977C56.4939 33.9425 56.4967 33.9082 56.4967 33.8731ZM48.3764 19.0556C48.3766 18.3401 48.6558 17.6661 49.1611 17.1598C49.6692 16.6527 50.3436 16.3733 51.0603 16.3733C52.5393 16.3733 53.7426 17.5765 53.7426 19.0556C53.7426 19.0557 53.7426 19.0561 53.7426 19.0563C53.7426 19.0565 53.7426 19.0568 53.7426 19.057V28.5047C52.4411 26.5847 50.8525 24.8507 49.0021 23.3674C48.8069 23.211 48.5961 23.0832 48.3764 22.9795V19.0556ZM40.2567 19.0572C40.2567 19.057 40.2567 19.0567 40.2567 19.0565C40.2567 19.0563 40.2567 19.0559 40.2567 19.0557C40.2565 17.5767 41.4599 16.3735 42.9389 16.3735C43.6555 16.3735 44.33 16.6527 44.8362 17.158C45.3433 17.6661 45.6227 18.3399 45.6227 19.0557V22.9798C45.4031 23.0836 45.1925 23.2112 44.9977 23.3674C43.1473 24.8505 41.5583 26.5838 40.2567 28.5029V19.0572ZM32.1351 11.6417C32.1351 10.1618 33.3391 8.95799 34.819 8.95799C35.5367 8.95799 36.211 9.23705 36.7174 9.74339C37.2239 10.2499 37.5028 10.9241 37.5028 11.6417V33.8729C37.5028 33.9056 37.5053 33.9377 37.5077 33.9699C37.2656 34.6624 37.0544 35.3676 36.8756 36.0843C36.8086 36.0443 36.7416 36.0033 36.6744 35.964C35.2225 35.1142 33.6855 34.4272 32.0998 33.9034L32.1351 11.6417ZM26.5638 11.6221C27.3 11.5964 27.9969 11.8619 28.5255 12.3717C29.0537 12.8812 29.3447 13.5656 29.3459 14.2991C29.3459 14.3005 29.3458 14.3018 29.3458 14.3033V33.172C27.5774 32.8129 25.7743 32.6517 23.979 32.704L23.9786 14.4008C23.9786 12.9183 25.1378 11.6718 26.5638 11.6221ZM28.2189 53.1834C23.6065 48.5695 21.361 42.2928 22.0575 35.9639C22.0805 35.757 22.2472 35.5901 22.4535 35.5673C26.8449 35.083 31.4011 36.0685 35.2844 38.3418C35.6395 38.549 35.9898 38.7728 36.3357 39.0029C36.2123 40.0044 36.1471 41.0209 36.1471 42.0488C36.1471 48.7344 38.8639 55.0246 43.5455 59.4628C37.8817 59.5549 32.3198 57.2841 28.2189 53.1834ZM48.3768 57.6373V44.0577C48.3768 43.2973 47.7603 42.6808 46.9998 42.6808C46.2394 42.6808 45.6229 43.2973 45.6229 44.0577V57.6375C41.3727 53.707 38.901 48.0602 38.901 42.0487C38.901 35.5243 41.7509 29.4985 46.7198 25.5162C46.801 25.4512 46.9003 25.4187 46.9996 25.4187C47.099 25.4187 47.1985 25.4512 47.2796 25.5162C52.246 29.4974 55.0942 35.5231 55.0942 42.0487C55.0944 48.0615 52.6245 53.7079 48.3768 57.6373ZM65.7769 53.1795C61.6754 57.281 56.117 59.5546 50.4559 59.4611C55.1337 55.0242 57.8483 48.7347 57.8483 42.0488C57.8483 41.0198 57.7831 40.0023 57.6595 38.9999C58.0053 38.7699 58.3572 38.5487 58.7132 38.3406C62.5914 36.068 67.1485 35.0832 71.5454 35.5673C71.7521 35.5903 71.9188 35.757 71.9416 35.9631C72.6379 42.2901 70.3911 48.5653 65.7769 53.1795Z" fill="black"/>
<path d="M47.0156 37.7398H46.9985C46.239 37.735 45.6269 38.3491 45.6228 39.1096C45.619 39.87 46.2406 40.4898 47.0011 40.4938C47.0036 40.4938 47.006 40.4938 47.0086 40.4938C47.7655 40.4938 48.3813 39.8821 48.3853 39.1242C48.3892 38.3634 47.776 37.7438 47.0156 37.7398Z" fill="black"/>
<path d="M68.8544 37.2695H68.8373C68.074 37.2739 67.4657 37.8789 67.4617 38.6393C67.4578 39.3998 68.0795 40.0196 68.8399 40.0236C68.8425 40.0236 68.8449 40.0236 68.8474 40.0236C69.6044 40.0236 70.2201 39.4119 70.2242 38.654C70.2279 37.893 69.6148 37.2734 68.8544 37.2695Z" fill="black"/>
<path d="M25.1764 37.2695H25.1593C25.1567 37.2695 25.1543 37.2695 25.1518 37.2695C24.3948 37.2695 23.7875 37.8814 23.7835 38.6393C23.7796 39.3998 24.4013 40.0196 25.1617 40.0236C25.1643 40.0236 25.1666 40.0236 25.1692 40.0236C25.9262 40.0236 26.5419 39.4119 26.546 38.654C26.55 37.893 25.9368 37.2734 25.1764 37.2695Z" fill="black"/>
</svg>
