<svg width="60" height="56" viewBox="0 0 60 56" fill="none" xmlns="http://www.w3.org/2000/svg">
<path d="M36.9974 3.33878C36.9974 2.6698 36.6779 2.02823 36.1093 1.55519C35.5407 1.08216 34.7694 0.816406 33.9653 0.816406C33.1611 0.816406 32.3899 1.08216 31.8212 1.55519C31.2526 2.02823 30.9331 2.6698 30.9331 3.33878C30.991 5.84029 29.9526 8.27385 28.0119 10.1852C25.3507 12.9365 23.9321 16.3763 24.0025 19.9072C23.9318 23.4396 25.3496 26.8811 28.0102 29.6349C29.9503 31.5466 30.9891 33.9798 30.9331 36.4813C30.9894 38.9828 29.9506 41.4161 28.0102 43.3277C25.3496 46.0815 23.9318 49.523 24.0025 53.0554C24.0025 53.7244 24.322 54.366 24.8906 54.839C25.4593 55.3121 26.2305 55.5778 27.0347 55.5778C27.8388 55.5778 28.6101 55.3121 29.1787 54.839C29.7473 54.366 30.0668 53.7244 30.0668 53.0554C30.0107 50.5539 31.0495 48.1207 32.9898 46.209C35.6503 43.4553 37.0682 40.0137 36.9974 36.4813C37.0682 32.9489 35.6503 29.5073 32.9898 26.7536C31.0497 24.8418 30.0109 22.4087 30.0668 19.9072C30.0111 17.4081 31.0493 14.9774 32.9881 13.0679C35.6505 10.3144 37.0691 6.87199 36.9974 3.33878V3.33878Z" fill="black"/>
<path d="M59.9976 3.33878C59.9976 2.6698 59.7027 2.02823 59.1778 1.55519C58.6529 1.08216 57.941 0.816406 57.1987 0.816406C56.4564 0.816406 55.7445 1.08216 55.2196 1.55519C54.6947 2.02823 54.3998 2.6698 54.3998 3.33878C54.4532 5.84029 53.4947 8.27385 51.7033 10.1852C49.2468 12.9365 47.9373 16.3763 48.0023 19.9072C47.937 23.4396 49.2458 26.8811 51.7017 29.6349C53.4926 31.5466 54.4515 33.9798 54.3998 36.4813C54.4518 38.9828 53.4928 41.4161 51.7017 43.3277C49.2458 46.0815 47.937 49.523 48.0023 53.0554C48.0023 53.7244 48.2972 54.366 48.8221 54.839C49.347 55.3121 50.0589 55.5778 50.8012 55.5778C51.5435 55.5778 52.2555 55.3121 52.7803 54.839C53.3052 54.366 53.6001 53.7244 53.6001 53.0554C53.5483 50.5539 54.5072 48.1207 56.2983 46.209C58.7541 43.4553 60.0629 40.0137 59.9976 36.4813C60.0629 32.9489 58.7541 29.5073 56.2983 26.7536C54.5074 24.8418 53.5485 22.4087 53.6001 19.9072C53.5487 17.4081 54.507 14.9774 56.2967 13.0679C58.7543 10.3144 60.0638 6.87199 59.9976 3.33878V3.33878Z" fill="black"/>
<path d="M12.9974 3.33878C12.9974 2.6698 12.6779 2.02823 12.1093 1.55519C11.5407 1.08216 10.7694 0.816406 9.96527 0.816406C9.1611 0.816406 8.38985 1.08216 7.82121 1.55519C7.25258 2.02823 6.93313 2.6698 6.93313 3.33878C6.991 5.84029 5.95264 8.27385 4.01187 10.1852C1.35069 12.9365 -0.0678901 16.3763 0.00252675 19.9072C-0.0682448 23.4396 1.34961 26.8811 4.01014 29.6349C5.95027 31.5466 6.98908 33.9798 6.93313 36.4813C6.9894 38.9828 5.95055 41.4161 4.01014 43.3277C1.34961 46.0815 -0.0682448 49.523 0.00252675 53.0554C0.00252675 53.7244 0.321974 54.366 0.890611 54.839C1.45925 55.3121 2.23049 55.5778 3.03467 55.5778C3.83884 55.5778 4.61007 55.3121 5.17871 54.839C5.74734 54.366 6.0668 53.7244 6.0668 53.0554C6.01069 50.5539 7.04951 48.1207 8.98978 46.209C11.6503 43.4553 13.0682 40.0137 12.9974 36.4813C13.0682 32.9489 11.6503 29.5073 8.98978 26.7536C7.04965 24.8418 6.01085 22.4087 6.0668 19.9072C6.01105 17.4081 7.04927 14.9774 8.98805 13.0679C11.6505 10.3144 13.0691 6.87199 12.9974 3.33878V3.33878Z" fill="black"/>
</svg>
