<svg width="104" height="104" viewBox="0 0 104 104" fill="none" xmlns="http://www.w3.org/2000/svg">
<path d="M102.221 50.4176H93.4221C97.0798 42.1134 96.6844 35.391 95.3004 30.8434C92.9278 22.737 84.9202 13.9385 73.057 13.9385C69.8935 13.9385 66.73 14.5316 63.4677 15.7179C57.8327 17.794 54.076 20.0678 52.3954 21.2541C50.7148 20.0678 47.057 17.794 41.3232 15.7179C38.0608 14.5316 34.7985 13.9385 31.7338 13.9385C19.8707 13.9385 11.8631 22.737 9.49049 30.8434C8.10646 35.6875 7.61217 43.0031 12.2586 52.197H1.58175C0.692015 52.197 0 52.8891 0 53.7788C0 54.6685 0.692015 55.3605 1.58175 55.3605H14.1369C14.6312 56.2503 15.2243 57.14 15.9164 58.0297C26.1977 72.8586 48.5399 88.9727 52.5932 89.9613V90.0602C52.5932 90.0602 52.692 90.0602 52.7909 89.9613C52.8897 89.9613 52.9886 89.9613 53.0875 89.9613V89.8624C56.5475 88.1818 78 74.3415 89.27 57.9309C90.3574 56.448 91.2471 54.9651 92.038 53.4822H102.418C103.308 53.4822 104 52.7902 104 51.9005C104 51.0107 103.11 50.4176 102.221 50.4176ZM86.403 56.2503C75.924 71.5735 56.6464 83.9309 52.4943 86.6001C48.2433 83.9309 29.0646 71.4746 18.4867 56.2503C18.289 55.9537 18.0913 55.6571 17.8935 55.3605H32.4259C33.019 55.3605 33.6122 55.064 33.9087 54.4708L40.5323 41.4214L50.9125 68.0145C51.1103 68.6077 51.8023 69.0031 52.3954 69.0031C52.3954 69.0031 52.3954 69.0031 52.4943 69.0031C53.1863 69.0031 53.7795 68.5088 53.9772 67.8168L63.0722 36.6761L67.9163 52.3948C68.1141 52.9879 68.6084 53.3833 69.2015 53.4822C69.7947 53.5811 70.3878 53.2845 70.7833 52.7902L74.6388 47.1552L77.9011 52.6913C78.1977 53.1856 78.692 53.4822 79.2852 53.4822H88.1825C87.5894 54.4708 86.9962 55.3605 86.403 56.2503ZM89.962 50.4176H80.2738L76.2205 43.4974C75.924 43.0031 75.4297 42.7065 74.8365 42.7065C74.2433 42.7065 73.7491 42.9043 73.4525 43.3986L70.0913 48.3415L64.654 30.6457C64.4563 29.9537 63.7643 29.5582 63.0722 29.4594C62.3802 29.4594 61.6882 29.9537 61.4905 30.6457L52.2966 62.3795L42.3118 36.8738C42.1141 36.2807 41.5209 35.8852 40.9278 35.8852C40.2357 35.8852 39.7414 36.1818 39.4449 36.775L31.635 52.0982H15.9164C11.962 44.8814 10.8745 37.9613 12.654 31.7332C14.73 24.7141 21.5513 17.2008 31.8327 17.2008C34.6008 17.2008 37.4677 17.794 40.3346 18.7826C47.5513 21.4518 51.4068 24.5164 51.5057 24.5164C52.0989 25.0107 52.8897 25.0107 53.4829 24.5164C53.4829 24.5164 57.3384 21.4518 64.654 18.7826C67.5209 17.6951 70.3878 17.2008 73.1559 17.2008C83.3384 17.2008 90.2586 24.7141 92.3346 31.7332C94.0152 37.467 93.1255 43.794 89.962 50.4176Z" fill="black"/>
</svg>
