<svg width="99" height="99" viewBox="0 0 99 99" fill="none" xmlns="http://www.w3.org/2000/svg">
<g clip-path="url(#clip0)">
<path d="M87.5067 60.5215H82.9666V28.2305H84.1577C84.9269 28.2303 85.6645 27.9246 86.2084 27.3807C86.7523 26.8369 87.0579 26.0993 87.0581 25.3301V19.5293C87.0579 18.7601 86.7523 18.0225 86.2084 17.4786C85.6645 16.9348 84.9269 16.6291 84.1577 16.6289H78.7746V8.02055C78.7749 7.77328 78.7073 7.53068 78.5791 7.31926C78.4509 7.10783 78.267 6.93572 78.0476 6.82172L72.618 3.99094L70.2204 0.572348C70.0932 0.395739 69.9259 0.251792 69.7323 0.152306C69.5387 0.0528202 69.3243 0.000626943 69.1066 4.45457e-06H61.4264C61.2411 -0.000470439 61.0576 0.0370301 60.8874 0.110193C60.7171 0.183356 60.5636 0.290629 60.4364 0.425395L57.304 3.77438L48.363 6.54329L40.8916 1.77891C40.5996 1.59485 40.2485 1.5285 39.9094 1.59329L33.7141 2.76891C33.3639 2.83967 33.054 3.04167 32.8479 3.33352L28.5166 9.68344L21.1845 11.9032C20.9066 11.9862 20.6631 12.1568 20.4902 12.3896C20.3174 12.6224 20.2245 12.9049 20.2254 13.1948V16.6289H14.8423C14.0731 16.6291 13.3355 16.9348 12.7916 17.4786C12.2477 18.0225 11.9421 18.7601 11.9419 19.5293V25.3301C11.9421 26.0993 12.2477 26.8369 12.7916 27.3807C13.3355 27.9246 14.0731 28.2303 14.8423 28.2305H16.0334V60.5215H11.4933C8.44507 60.5215 5.52171 61.7324 3.3663 63.8878C1.2109 66.0432 0 68.9666 0 72.0148C0 75.063 1.2109 77.9863 3.3663 80.1417C5.52171 82.2972 8.44507 83.5081 11.4933 83.5081H13.3418V97.6465C13.3414 97.8244 13.3761 98.0005 13.444 98.1649C13.5119 98.3293 13.6116 98.4787 13.7373 98.6045C13.8631 98.7302 14.0125 98.8299 14.1769 98.8978C14.3413 98.9657 14.5175 99.0004 14.6953 99H26.0416C26.4005 98.9996 26.7445 98.8569 26.9983 98.6031C27.252 98.3494 27.3947 98.0053 27.3952 97.6465V83.5081H71.6048V97.6465C71.6053 98.0053 71.748 98.3494 72.0017 98.6031C72.2555 98.8569 72.5995 98.9996 72.9584 99H84.3047C84.4825 99.0004 84.6587 98.9657 84.8231 98.8978C84.9875 98.8299 85.1369 98.7302 85.2627 98.6045C85.3884 98.4787 85.4881 98.3293 85.556 98.1649C85.6239 98.0005 85.6586 97.8244 85.6582 97.6465V83.5081H87.5067C90.5549 83.5081 93.4783 82.2972 95.6337 80.1417C97.7891 77.9863 99 75.063 99 72.0148C99 68.9666 97.7891 66.0432 95.6337 63.8878C93.4783 61.7324 90.5549 60.5215 87.5067 60.5215V60.5215ZM80.2596 60.5215H18.7404V28.2305H80.2596V60.5215ZM58.4487 6.25711C58.673 6.18528 58.8752 6.05752 59.0365 5.88586L62.0065 2.70704H68.4028L70.5916 5.81625C70.7146 5.99487 70.8792 6.14087 71.0712 6.24164L76.0676 8.8404V16.6289H57.799L55.819 10.0624C55.7587 9.86473 55.6543 9.68331 55.5136 9.5319C55.3729 9.38049 55.1996 9.26305 55.0069 9.18844L52.3076 8.15204L58.4487 6.25711ZM22.9324 14.2003L29.7541 12.143C30.0509 12.0546 30.3079 11.866 30.4812 11.6093L34.7737 5.32125L39.8939 4.35446L47.4427 9.16524C47.5178 9.21308 47.5983 9.25202 47.6824 9.28125L53.4136 11.4778L54.9759 16.6289H22.9324V14.2003ZM14.8423 25.5234C14.8168 25.5236 14.7916 25.5188 14.768 25.5091C14.7445 25.4995 14.7231 25.4853 14.7051 25.4673C14.6871 25.4493 14.6728 25.4279 14.6632 25.4043C14.6536 25.3808 14.6487 25.3555 14.6489 25.3301V19.5293C14.6487 19.5039 14.6536 19.4786 14.6632 19.4551C14.6728 19.4315 14.6871 19.4101 14.7051 19.3921C14.7231 19.3741 14.7445 19.3599 14.768 19.3502C14.7916 19.3406 14.8168 19.3357 14.8423 19.3359H84.1577C84.1832 19.3357 84.2084 19.3406 84.232 19.3502C84.2555 19.3599 84.2769 19.3741 84.2949 19.3921C84.3129 19.4101 84.3271 19.4315 84.3368 19.4551C84.3464 19.4786 84.3513 19.5039 84.3511 19.5293V25.3301C84.3513 25.3555 84.3464 25.3808 84.3368 25.4043C84.3271 25.4279 84.3129 25.4493 84.2949 25.4673C84.2769 25.4853 84.2555 25.4995 84.232 25.5091C84.2084 25.5188 84.1832 25.5236 84.1577 25.5234H14.8423ZM24.6881 96.293H16.0488V83.5081H24.6881V96.293ZM82.9512 96.293H74.3119V83.5081H82.9512V96.293ZM87.5067 80.801H11.4933C9.16302 80.801 6.92821 79.8753 5.28046 78.2276C3.63272 76.5798 2.70703 74.345 2.70703 72.0148C2.70703 69.6845 3.63272 67.4497 5.28046 65.802C6.92821 64.1542 9.16302 63.2285 11.4933 63.2285H87.5067C89.837 63.2285 92.0718 64.1542 93.7195 65.802C95.3673 67.4497 96.293 69.6845 96.293 72.0148C96.293 74.345 95.3673 76.5798 93.7195 78.2276C92.0718 79.8753 89.837 80.801 87.5067 80.801V80.801Z" fill="black"/>
<path d="M87.5067 65.9355H11.4933C9.88097 65.9355 8.3347 66.576 7.19462 67.7161C6.05455 68.8562 5.41406 70.4025 5.41406 72.0148C5.41406 73.6271 6.05455 75.1734 7.19462 76.3134C8.3347 77.4535 9.88097 78.094 11.4933 78.094H87.5067C89.119 78.094 90.6653 77.4535 91.8054 76.3134C92.9455 75.1734 93.5859 73.6271 93.5859 72.0148C93.5859 70.4025 92.9455 68.8562 91.8054 67.7161C90.6653 66.576 89.119 65.9355 87.5067 65.9355V65.9355ZM11.4933 75.387C10.5989 75.387 9.74119 75.0317 9.10878 74.3993C8.47638 73.7669 8.12109 72.9091 8.12109 72.0148C8.12109 71.1204 8.47638 70.2627 9.10878 69.6303C9.74119 68.9979 10.5989 68.6426 11.4933 68.6426C12.3876 68.6426 13.2454 68.9979 13.8778 69.6303C14.5102 70.2627 14.8655 71.1204 14.8655 72.0148C14.8655 72.9091 14.5102 73.7669 13.8778 74.3993C13.2454 75.0317 12.3876 75.387 11.4933 75.387V75.387ZM44.4417 75.387H16.5516C17.2172 74.3883 17.5724 73.215 17.5724 72.0148C17.5724 70.8146 17.2172 69.6412 16.5516 68.6426H44.4417C43.7761 69.6412 43.4208 70.8146 43.4208 72.0148C43.4208 73.215 43.7761 74.3883 44.4417 75.387V75.387ZM49.5 75.387C48.833 75.387 48.1811 75.1892 47.6265 74.8186C47.072 74.4481 46.6397 73.9214 46.3845 73.3052C46.1293 72.6891 46.0625 72.011 46.1926 71.3569C46.3227 70.7027 46.6439 70.1019 47.1155 69.6303C47.5871 69.1587 48.188 68.8375 48.8421 68.7074C49.4963 68.5773 50.1743 68.644 50.7905 68.8993C51.4067 69.1545 51.9333 69.5867 52.3039 70.1413C52.6744 70.6958 52.8722 71.3478 52.8722 72.0148C52.8725 72.4577 52.7855 72.8963 52.6161 73.3056C52.4468 73.7149 52.1984 74.0867 51.8852 74.3999C51.572 74.7131 51.2001 74.9615 50.7908 75.1309C50.3816 75.3002 49.9429 75.3873 49.5 75.387V75.387ZM82.4484 75.387H54.5583C55.2239 74.3883 55.5792 73.215 55.5792 72.0148C55.5792 70.8146 55.2239 69.6412 54.5583 68.6426H82.4484C81.7828 69.6412 81.4276 70.8146 81.4276 72.0148C81.4276 73.215 81.7828 74.3883 82.4484 75.387V75.387ZM87.5067 75.387C86.8398 75.387 86.1878 75.1892 85.6332 74.8186C85.0787 74.4481 84.6465 73.9214 84.3912 73.3052C84.136 72.6891 84.0692 72.011 84.1993 71.3569C84.3294 70.7027 84.6506 70.1019 85.1222 69.6303C85.5938 69.1587 86.1947 68.8375 86.8488 68.7074C87.503 68.5773 88.181 68.644 88.7972 68.8993C89.4134 69.1545 89.94 69.5867 90.3106 70.1413C90.6811 70.6958 90.8789 71.3478 90.8789 72.0148C90.8792 72.4577 90.7922 72.8963 90.6228 73.3056C90.4535 73.7149 90.2051 74.0867 89.8919 74.3999C89.5787 74.7131 89.2068 74.9615 88.7976 75.1309C88.3883 75.3002 87.9496 75.3873 87.5067 75.387V75.387Z" fill="black"/>
</g>
<defs>
<clipPath id="clip0">
<rect width="99" height="99" fill="white"/>
</clipPath>
</defs>
</svg>
