<svg width="80" height="70" viewBox="0 0 80 70" fill="none" xmlns="http://www.w3.org/2000/svg">
<mask id="path-1-inside-1" fill="white">
<path d="M25.9817 59.7046H69.9887C70.636 59.7046 71.1605 59.2178 71.1605 58.6174C71.1605 58.017 70.636 57.5303 69.9887 57.5303H25.9817C25.3343 57.5303 24.8098 58.017 24.8098 58.6174C24.8098 59.218 25.3345 59.7046 25.9817 59.7046Z"/>
</mask>
<path d="M25.9817 59.7046H69.9887C70.636 59.7046 71.1605 59.2178 71.1605 58.6174C71.1605 58.017 70.636 57.5303 69.9887 57.5303H25.9817C25.3343 57.5303 24.8098 58.017 24.8098 58.6174C24.8098 59.218 25.3345 59.7046 25.9817 59.7046Z" fill="black"/>
<path d="M25.9817 63.7046H69.9887V55.7046H25.9817V63.7046ZM69.9887 63.7046C72.5575 63.7046 75.1605 61.704 75.1605 58.6174H67.1605C67.1605 56.7316 68.7145 55.7046 69.9887 55.7046V63.7046ZM75.1605 58.6174C75.1605 55.5308 72.5575 53.5303 69.9887 53.5303V61.5303C68.7145 61.5303 67.1605 60.5032 67.1605 58.6174H75.1605ZM69.9887 53.5303H25.9817V61.5303H69.9887V53.5303ZM25.9817 53.5303C23.4128 53.5303 20.8098 55.5308 20.8098 58.6174H28.8098C28.8098 60.5032 27.2558 61.5303 25.9817 61.5303V53.5303ZM20.8098 58.6174C20.8098 61.7048 23.4137 63.7046 25.9817 63.7046V55.7046C27.2553 55.7046 28.8098 56.7311 28.8098 58.6174H20.8098Z" fill="black" mask="url(#path-1-inside-1)"/>
<mask id="path-3-inside-2" fill="white">
<path d="M25.9817 23.2515H29.8378C30.4851 23.2515 31.0096 22.7647 31.0096 22.1643C31.0096 21.5639 30.4851 21.0771 29.8378 21.0771H25.9817C25.3343 21.0771 24.8098 21.5639 24.8098 22.1643C24.8098 22.7649 25.3345 23.2515 25.9817 23.2515Z"/>
</mask>
<path d="M25.9817 23.2515H29.8378C30.4851 23.2515 31.0096 22.7647 31.0096 22.1643C31.0096 21.5639 30.4851 21.0771 29.8378 21.0771H25.9817C25.3343 21.0771 24.8098 21.5639 24.8098 22.1643C24.8098 22.7649 25.3345 23.2515 25.9817 23.2515Z" fill="black"/>
<path d="M25.9817 27.2515H29.8378V19.2515H25.9817V27.2515ZM29.8378 27.2515C32.4067 27.2515 35.0096 25.2508 35.0096 22.1643H27.0096C27.0096 20.2786 28.5635 19.2515 29.8378 19.2515V27.2515ZM35.0096 22.1643C35.0096 19.0778 32.4067 17.0771 29.8378 17.0771V25.0771C28.5635 25.0771 27.0096 24.05 27.0096 22.1643H35.0096ZM29.8378 17.0771H25.9817V25.0771H29.8378V17.0771ZM25.9817 17.0771C23.4127 17.0771 20.8098 19.0778 20.8098 22.1643H28.8098C28.8098 24.05 27.256 25.0771 25.9817 25.0771V17.0771ZM20.8098 22.1643C20.8098 25.2516 23.4136 27.2515 25.9817 27.2515V19.2515C27.2554 19.2515 28.8098 20.2781 28.8098 22.1643H20.8098Z" fill="black" mask="url(#path-3-inside-2)"/>
<mask id="path-5-inside-3" fill="white">
<path d="M25.9817 32.3647H29.8378C30.4851 32.3647 31.0096 31.878 31.0096 31.2776C31.0096 30.6772 30.4851 30.1904 29.8378 30.1904H25.9817C25.3343 30.1904 24.8098 30.6772 24.8098 31.2776C24.8098 31.8781 25.3345 32.3647 25.9817 32.3647Z"/>
</mask>
<path d="M25.9817 32.3647H29.8378C30.4851 32.3647 31.0096 31.878 31.0096 31.2776C31.0096 30.6772 30.4851 30.1904 29.8378 30.1904H25.9817C25.3343 30.1904 24.8098 30.6772 24.8098 31.2776C24.8098 31.8781 25.3345 32.3647 25.9817 32.3647Z" fill="black"/>
<path d="M25.9817 36.3647H29.8378V28.3647H25.9817V36.3647ZM29.8378 36.3647C32.4066 36.3647 35.0096 34.3642 35.0096 31.2776H27.0096C27.0096 29.3918 28.5636 28.3647 29.8378 28.3647V36.3647ZM35.0096 31.2776C35.0096 28.191 32.4066 26.1904 29.8378 26.1904V34.1904C28.5636 34.1904 27.0096 33.1634 27.0096 31.2776H35.0096ZM29.8378 26.1904H25.9817V34.1904H29.8378V26.1904ZM25.9817 26.1904C23.4128 26.1904 20.8098 28.191 20.8098 31.2776H28.8098C28.8098 33.1634 27.2558 34.1904 25.9817 34.1904V26.1904ZM20.8098 31.2776C20.8098 34.365 23.4137 36.3647 25.9817 36.3647V28.3647C27.2553 28.3647 28.8098 29.3912 28.8098 31.2776H20.8098Z" fill="black" mask="url(#path-5-inside-3)"/>
<mask id="path-7-inside-4" fill="white">
<path d="M25.9817 41.478H29.8378C30.4851 41.478 31.0096 40.9913 31.0096 40.3909C31.0096 39.7905 30.4851 39.3037 29.8378 39.3037H25.9817C25.3343 39.3037 24.8098 39.7905 24.8098 40.3909C24.8098 40.9911 25.3345 41.478 25.9817 41.478Z"/>
</mask>
<path d="M25.9817 41.478H29.8378C30.4851 41.478 31.0096 40.9913 31.0096 40.3909C31.0096 39.7905 30.4851 39.3037 29.8378 39.3037H25.9817C25.3343 39.3037 24.8098 39.7905 24.8098 40.3909C24.8098 40.9911 25.3345 41.478 25.9817 41.478Z" fill="black"/>
<path d="M25.9817 45.478H29.8378V37.478H25.9817V45.478ZM29.8378 45.478C32.4067 45.478 35.0096 43.4774 35.0096 40.3909H27.0096C27.0096 38.5051 28.5636 37.478 29.8378 37.478V45.478ZM35.0096 40.3909C35.0096 37.3043 32.4067 35.3037 29.8378 35.3037V43.3037C28.5636 43.3037 27.0096 42.2766 27.0096 40.3909H35.0096ZM29.8378 35.3037H25.9817V43.3037H29.8378V35.3037ZM25.9817 35.3037C23.4128 35.3037 20.8098 37.3043 20.8098 40.3909H28.8098C28.8098 42.2766 27.2559 43.3037 25.9817 43.3037V35.3037ZM20.8098 40.3909C20.8098 43.4773 23.4129 45.478 25.9817 45.478V37.478C27.2561 37.478 28.8098 38.505 28.8098 40.3909H20.8098Z" fill="black" mask="url(#path-7-inside-4)"/>
<mask id="path-9-inside-5" fill="white">
<path d="M25.9817 50.5913H29.8378C30.4851 50.5913 31.0096 50.1046 31.0096 49.5042C31.0096 48.9038 30.4851 48.417 29.8378 48.417H25.9817C25.3343 48.417 24.8098 48.9038 24.8098 49.5042C24.8098 50.1046 25.3345 50.5913 25.9817 50.5913Z"/>
</mask>
<path d="M25.9817 50.5913H29.8378C30.4851 50.5913 31.0096 50.1046 31.0096 49.5042C31.0096 48.9038 30.4851 48.417 29.8378 48.417H25.9817C25.3343 48.417 24.8098 48.9038 24.8098 49.5042C24.8098 50.1046 25.3345 50.5913 25.9817 50.5913Z" fill="black"/>
<path d="M25.9817 54.5913H29.8378V46.5913H25.9817V54.5913ZM29.8378 54.5913C32.4067 54.5913 35.0096 52.5907 35.0096 49.5042H27.0096C27.0096 47.6185 28.5635 46.5913 29.8378 46.5913V54.5913ZM35.0096 49.5042C35.0096 46.4177 32.4067 44.417 29.8378 44.417V52.417C28.5635 52.417 27.0096 51.3899 27.0096 49.5042H35.0096ZM29.8378 44.417H25.9817V52.417H29.8378V44.417ZM25.9817 44.417C23.4127 44.417 20.8098 46.4177 20.8098 49.5042H28.8098C28.8098 51.3899 27.256 52.417 25.9817 52.417V44.417ZM20.8098 49.5042C20.8098 52.591 23.4133 54.5913 25.9817 54.5913V46.5913C27.2558 46.5913 28.8098 47.6181 28.8098 49.5042H20.8098Z" fill="black" mask="url(#path-9-inside-5)"/>
<mask id="path-11-inside-6" fill="white">
<path d="M78.8281 17.941C79.4755 17.941 80 17.4544 80 16.8542V12.8858C80 10.7203 78.1039 8.95858 75.7734 8.95858H18.5451V8.91017C18.5451 4.15766 14.3856 0.291016 9.27264 0.291016C4.15968 0.291016 0.00015625 4.15766 0.00015625 8.91017V42.9108C0.00015625 43.511 0.524686 43.9976 1.17203 43.9976C1.81937 43.9976 2.3439 43.511 2.3439 42.9108V8.91017C2.3439 5.35626 5.45218 2.46475 9.27264 2.46475C13.0931 2.46475 16.2014 5.35611 16.2014 8.91017V10.0454V55.4829C16.0403 55.3153 15.8714 55.1524 15.6948 54.9947C14.0806 53.5534 12.0156 52.7224 9.80826 52.6074C9.76279 52.6049 9.7167 52.6045 9.67108 52.6027C9.55545 52.5982 9.43983 52.5945 9.32358 52.5939C9.30654 52.5937 9.28983 52.5926 9.27264 52.5926C9.22326 52.5926 9.17467 52.5956 9.1253 52.5963C9.05436 52.5974 8.98373 52.5965 8.91248 52.599C8.88389 52.6 8.85592 52.6026 8.82733 52.6039C8.76451 52.6066 8.70217 52.6108 8.63951 52.6147C8.54123 52.621 8.44326 52.6281 8.34577 52.6372C8.28045 52.6433 8.21545 52.6501 8.15045 52.6575C8.05967 52.6678 7.96952 52.6794 7.87952 52.6921C7.80842 52.7021 7.73749 52.7124 7.66702 52.7239C7.58936 52.7366 7.51217 52.751 7.43514 52.7655C7.35389 52.7807 7.2728 52.7958 7.19233 52.813C7.13858 52.8246 7.08561 52.8378 7.03217 52.8501C5.19202 53.2763 3.5664 54.2117 2.34375 55.4896V47.3187C2.34375 46.7184 1.81922 46.2318 1.17187 46.2318C0.52453 46.2318 0 46.7184 0 47.3187V61.211C0 61.2245 0.0015625 61.2375 0.0021875 61.2509C0.0117187 63.4829 0.924686 65.5815 2.59999 67.1952C4.36359 68.894 6.73327 69.8296 9.27248 69.8296H75.7734C78.1039 69.8296 80 68.0678 80 65.9024V21.3813C80 20.7811 79.4755 20.2945 78.8281 20.2945C78.1808 20.2945 77.6563 20.7811 77.6563 21.3813V65.9022C77.6563 66.8691 76.8117 67.6557 75.7734 67.6557H9.27264C7.37624 67.6557 5.60624 66.9566 4.28843 65.6873C2.98656 64.4332 2.30062 62.7861 2.34859 61.0419C2.34968 61.0051 2.34984 60.9681 2.35156 60.9313C2.35437 60.8681 2.35937 60.8054 2.36421 60.7426C2.36765 60.6982 2.37078 60.6534 2.37515 60.6092C2.38109 60.5492 2.3889 60.4896 2.39656 60.4301C2.40234 60.3853 2.40812 60.3405 2.415 60.296C2.42437 60.2347 2.43531 60.1737 2.44656 60.1128C2.45406 60.0726 2.46156 60.0321 2.46984 59.992C2.48343 59.9262 2.49843 59.8608 2.51421 59.7958C2.52218 59.763 2.53015 59.7303 2.53859 59.6977C2.5575 59.6252 2.57765 59.5533 2.59921 59.4817C2.60609 59.459 2.61296 59.4364 2.61999 59.4136C2.64531 59.333 2.67203 59.2529 2.70062 59.1736C2.70468 59.1625 2.70874 59.1513 2.71281 59.1402C3.37124 57.3483 4.86077 55.904 6.74671 55.2115C6.75577 55.2082 6.76483 55.2048 6.77405 55.2015C6.85796 55.1711 6.94296 55.1425 7.02842 55.1151C7.05249 55.1074 7.07655 55.0998 7.10077 55.0922C7.17421 55.0695 7.24827 55.0482 7.32264 55.0277C7.36014 55.0175 7.3978 55.0075 7.43561 54.9977C7.49936 54.9814 7.56358 54.9657 7.62811 54.9509C7.67764 54.9396 7.72749 54.9291 7.77749 54.9188C7.83295 54.9073 7.88858 54.8963 7.94452 54.886C8.00389 54.8753 8.06358 54.8656 8.12342 54.8562C8.17264 54.8485 8.22202 54.8408 8.27155 54.834C8.33748 54.8252 8.40373 54.8176 8.47014 54.8105C8.51623 54.8056 8.56233 54.8002 8.60873 54.7962C8.67655 54.7901 8.74483 54.7859 8.81311 54.7817C8.86061 54.7788 8.9078 54.7754 8.95561 54.7734C9.01826 54.7708 9.08123 54.7701 9.14436 54.7689C9.20029 54.7681 9.25639 54.7666 9.31217 54.7667C9.38092 54.7672 9.4492 54.7694 9.51733 54.7715C9.56451 54.773 9.6117 54.774 9.65873 54.7763C9.74342 54.7807 9.82764 54.787 9.91154 54.7943C9.93982 54.7966 9.96842 54.7985 9.99654 54.8011C10.1061 54.8117 10.215 54.8244 10.3229 54.8398C10.3244 54.8399 10.3256 54.8401 10.327 54.8404C13.4175 55.2812 15.8417 57.6283 16.1645 60.5463C16.1884 60.7657 16.2006 60.9874 16.2006 61.2113C16.2006 61.2196 16.2023 61.2274 16.2026 61.2355C16.2036 61.2739 16.2067 61.3117 16.2118 61.3491C16.2142 61.3659 16.217 61.3826 16.2201 61.3991C16.2272 61.4362 16.2361 61.4726 16.247 61.5082C16.2501 61.5182 16.2525 61.5285 16.2559 61.5385C16.2698 61.5795 16.287 61.6191 16.3059 61.6578C16.3126 61.6717 16.32 61.6853 16.3273 61.6989C16.3453 61.732 16.3648 61.7642 16.3862 61.7952C16.3929 61.8049 16.3992 61.8147 16.4061 61.8243C16.4311 61.8582 16.4587 61.8902 16.4876 61.9212C16.499 61.9334 16.5106 61.9452 16.5226 61.9569C16.5508 61.9844 16.5801 62.0107 16.6111 62.0353C16.6209 62.0431 16.6307 62.0509 16.6409 62.0585C16.6751 62.084 16.7112 62.1073 16.7486 62.1292C16.7612 62.1366 16.7737 62.1437 16.7867 62.1506C16.83 62.174 16.8745 62.1954 16.9211 62.2135C16.9223 62.214 16.9234 62.2147 16.9247 62.2153C16.929 62.217 16.9336 62.2177 16.9379 62.2193C16.9809 62.2353 17.0253 62.2485 17.0707 62.2598C17.0834 62.2628 17.0959 62.266 17.1086 62.2688C17.1572 62.2792 17.2065 62.2876 17.2573 62.2922C17.2651 62.293 17.2728 62.2928 17.2806 62.2932C17.3112 62.2956 17.342 62.2976 17.3734 62.2976C17.3861 62.2976 17.3982 62.2961 17.4107 62.2959C17.4254 62.2954 17.44 62.2947 17.4547 62.2938C17.5023 62.2908 17.5495 62.2857 17.5954 62.2776C17.5981 62.2772 17.6009 62.277 17.6036 62.2764C17.655 62.2669 17.7048 62.2535 17.7536 62.238C17.7631 62.235 17.7723 62.2318 17.7817 62.2285C17.8276 62.2127 17.8725 62.1947 17.9154 62.1738C17.9186 62.1724 17.9218 62.1711 17.925 62.1696C17.9706 62.147 18.0139 62.1212 18.0556 62.0934C18.065 62.0872 18.0742 62.0807 18.0834 62.0741C18.1248 62.0447 18.165 62.0138 18.2017 61.9796C18.2018 61.9795 18.202 61.9794 18.2022 61.9792C18.205 61.9766 18.2073 61.9737 18.2101 61.971C18.234 61.9483 18.2572 61.925 18.2789 61.9005C18.2859 61.8926 18.2918 61.8841 18.2986 61.876C18.3153 61.856 18.332 61.8362 18.3472 61.8152C18.3525 61.8078 18.3568 61.7999 18.362 61.7926C18.3775 61.7699 18.3928 61.7473 18.4064 61.7237C18.4093 61.7185 18.4118 61.713 18.4147 61.7076C18.4293 61.6814 18.4432 61.6547 18.4556 61.6274C18.4572 61.6239 18.4582 61.6203 18.4598 61.6166C18.4725 61.5874 18.4843 61.5578 18.4943 61.5274C18.4956 61.5235 18.4964 61.5195 18.4976 61.5156C18.507 61.4858 18.5156 61.4555 18.5223 61.4246C18.5243 61.4155 18.5251 61.4061 18.5268 61.3968C18.5317 61.3711 18.5365 61.3455 18.5393 61.3191C18.5432 61.2832 18.5453 61.247 18.5453 61.2106V11.1322H75.7734C76.8117 11.1322 77.6563 11.9188 77.6563 12.8856V16.854C77.6563 17.4546 78.1808 17.941 78.8281 17.941Z"/>
</mask>
<path d="M78.8281 17.941C79.4755 17.941 80 17.4544 80 16.8542V12.8858C80 10.7203 78.1039 8.95858 75.7734 8.95858H18.5451V8.91017C18.5451 4.15766 14.3856 0.291016 9.27264 0.291016C4.15968 0.291016 0.00015625 4.15766 0.00015625 8.91017V42.9108C0.00015625 43.511 0.524686 43.9976 1.17203 43.9976C1.81937 43.9976 2.3439 43.511 2.3439 42.9108V8.91017C2.3439 5.35626 5.45218 2.46475 9.27264 2.46475C13.0931 2.46475 16.2014 5.35611 16.2014 8.91017V10.0454V55.4829C16.0403 55.3153 15.8714 55.1524 15.6948 54.9947C14.0806 53.5534 12.0156 52.7224 9.80826 52.6074C9.76279 52.6049 9.7167 52.6045 9.67108 52.6027C9.55545 52.5982 9.43983 52.5945 9.32358 52.5939C9.30654 52.5937 9.28983 52.5926 9.27264 52.5926C9.22326 52.5926 9.17467 52.5956 9.1253 52.5963C9.05436 52.5974 8.98373 52.5965 8.91248 52.599C8.88389 52.6 8.85592 52.6026 8.82733 52.6039C8.76451 52.6066 8.70217 52.6108 8.63951 52.6147C8.54123 52.621 8.44326 52.6281 8.34577 52.6372C8.28045 52.6433 8.21545 52.6501 8.15045 52.6575C8.05967 52.6678 7.96952 52.6794 7.87952 52.6921C7.80842 52.7021 7.73749 52.7124 7.66702 52.7239C7.58936 52.7366 7.51217 52.751 7.43514 52.7655C7.35389 52.7807 7.2728 52.7958 7.19233 52.813C7.13858 52.8246 7.08561 52.8378 7.03217 52.8501C5.19202 53.2763 3.5664 54.2117 2.34375 55.4896V47.3187C2.34375 46.7184 1.81922 46.2318 1.17187 46.2318C0.52453 46.2318 0 46.7184 0 47.3187V61.211C0 61.2245 0.0015625 61.2375 0.0021875 61.2509C0.0117187 63.4829 0.924686 65.5815 2.59999 67.1952C4.36359 68.894 6.73327 69.8296 9.27248 69.8296H75.7734C78.1039 69.8296 80 68.0678 80 65.9024V21.3813C80 20.7811 79.4755 20.2945 78.8281 20.2945C78.1808 20.2945 77.6563 20.7811 77.6563 21.3813V65.9022C77.6563 66.8691 76.8117 67.6557 75.7734 67.6557H9.27264C7.37624 67.6557 5.60624 66.9566 4.28843 65.6873C2.98656 64.4332 2.30062 62.7861 2.34859 61.0419C2.34968 61.0051 2.34984 60.9681 2.35156 60.9313C2.35437 60.8681 2.35937 60.8054 2.36421 60.7426C2.36765 60.6982 2.37078 60.6534 2.37515 60.6092C2.38109 60.5492 2.3889 60.4896 2.39656 60.4301C2.40234 60.3853 2.40812 60.3405 2.415 60.296C2.42437 60.2347 2.43531 60.1737 2.44656 60.1128C2.45406 60.0726 2.46156 60.0321 2.46984 59.992C2.48343 59.9262 2.49843 59.8608 2.51421 59.7958C2.52218 59.763 2.53015 59.7303 2.53859 59.6977C2.5575 59.6252 2.57765 59.5533 2.59921 59.4817C2.60609 59.459 2.61296 59.4364 2.61999 59.4136C2.64531 59.333 2.67203 59.2529 2.70062 59.1736C2.70468 59.1625 2.70874 59.1513 2.71281 59.1402C3.37124 57.3483 4.86077 55.904 6.74671 55.2115C6.75577 55.2082 6.76483 55.2048 6.77405 55.2015C6.85796 55.1711 6.94296 55.1425 7.02842 55.1151C7.05249 55.1074 7.07655 55.0998 7.10077 55.0922C7.17421 55.0695 7.24827 55.0482 7.32264 55.0277C7.36014 55.0175 7.3978 55.0075 7.43561 54.9977C7.49936 54.9814 7.56358 54.9657 7.62811 54.9509C7.67764 54.9396 7.72749 54.9291 7.77749 54.9188C7.83295 54.9073 7.88858 54.8963 7.94452 54.886C8.00389 54.8753 8.06358 54.8656 8.12342 54.8562C8.17264 54.8485 8.22202 54.8408 8.27155 54.834C8.33748 54.8252 8.40373 54.8176 8.47014 54.8105C8.51623 54.8056 8.56233 54.8002 8.60873 54.7962C8.67655 54.7901 8.74483 54.7859 8.81311 54.7817C8.86061 54.7788 8.9078 54.7754 8.95561 54.7734C9.01826 54.7708 9.08123 54.7701 9.14436 54.7689C9.20029 54.7681 9.25639 54.7666 9.31217 54.7667C9.38092 54.7672 9.4492 54.7694 9.51733 54.7715C9.56451 54.773 9.6117 54.774 9.65873 54.7763C9.74342 54.7807 9.82764 54.787 9.91154 54.7943C9.93982 54.7966 9.96842 54.7985 9.99654 54.8011C10.1061 54.8117 10.215 54.8244 10.3229 54.8398C10.3244 54.8399 10.3256 54.8401 10.327 54.8404C13.4175 55.2812 15.8417 57.6283 16.1645 60.5463C16.1884 60.7657 16.2006 60.9874 16.2006 61.2113C16.2006 61.2196 16.2023 61.2274 16.2026 61.2355C16.2036 61.2739 16.2067 61.3117 16.2118 61.3491C16.2142 61.3659 16.217 61.3826 16.2201 61.3991C16.2272 61.4362 16.2361 61.4726 16.247 61.5082C16.2501 61.5182 16.2525 61.5285 16.2559 61.5385C16.2698 61.5795 16.287 61.6191 16.3059 61.6578C16.3126 61.6717 16.32 61.6853 16.3273 61.6989C16.3453 61.732 16.3648 61.7642 16.3862 61.7952C16.3929 61.8049 16.3992 61.8147 16.4061 61.8243C16.4311 61.8582 16.4587 61.8902 16.4876 61.9212C16.499 61.9334 16.5106 61.9452 16.5226 61.9569C16.5508 61.9844 16.5801 62.0107 16.6111 62.0353C16.6209 62.0431 16.6307 62.0509 16.6409 62.0585C16.6751 62.084 16.7112 62.1073 16.7486 62.1292C16.7612 62.1366 16.7737 62.1437 16.7867 62.1506C16.83 62.174 16.8745 62.1954 16.9211 62.2135C16.9223 62.214 16.9234 62.2147 16.9247 62.2153C16.929 62.217 16.9336 62.2177 16.9379 62.2193C16.9809 62.2353 17.0253 62.2485 17.0707 62.2598C17.0834 62.2628 17.0959 62.266 17.1086 62.2688C17.1572 62.2792 17.2065 62.2876 17.2573 62.2922C17.2651 62.293 17.2728 62.2928 17.2806 62.2932C17.3112 62.2956 17.342 62.2976 17.3734 62.2976C17.3861 62.2976 17.3982 62.2961 17.4107 62.2959C17.4254 62.2954 17.44 62.2947 17.4547 62.2938C17.5023 62.2908 17.5495 62.2857 17.5954 62.2776C17.5981 62.2772 17.6009 62.277 17.6036 62.2764C17.655 62.2669 17.7048 62.2535 17.7536 62.238C17.7631 62.235 17.7723 62.2318 17.7817 62.2285C17.8276 62.2127 17.8725 62.1947 17.9154 62.1738C17.9186 62.1724 17.9218 62.1711 17.925 62.1696C17.9706 62.147 18.0139 62.1212 18.0556 62.0934C18.065 62.0872 18.0742 62.0807 18.0834 62.0741C18.1248 62.0447 18.165 62.0138 18.2017 61.9796C18.2018 61.9795 18.202 61.9794 18.2022 61.9792C18.205 61.9766 18.2073 61.9737 18.2101 61.971C18.234 61.9483 18.2572 61.925 18.2789 61.9005C18.2859 61.8926 18.2918 61.8841 18.2986 61.876C18.3153 61.856 18.332 61.8362 18.3472 61.8152C18.3525 61.8078 18.3568 61.7999 18.362 61.7926C18.3775 61.7699 18.3928 61.7473 18.4064 61.7237C18.4093 61.7185 18.4118 61.713 18.4147 61.7076C18.4293 61.6814 18.4432 61.6547 18.4556 61.6274C18.4572 61.6239 18.4582 61.6203 18.4598 61.6166C18.4725 61.5874 18.4843 61.5578 18.4943 61.5274C18.4956 61.5235 18.4964 61.5195 18.4976 61.5156C18.507 61.4858 18.5156 61.4555 18.5223 61.4246C18.5243 61.4155 18.5251 61.4061 18.5268 61.3968C18.5317 61.3711 18.5365 61.3455 18.5393 61.3191C18.5432 61.2832 18.5453 61.247 18.5453 61.2106V11.1322H75.7734C76.8117 11.1322 77.6563 11.9188 77.6563 12.8856V16.854C77.6563 17.4546 78.1808 17.941 78.8281 17.941Z" fill="black" stroke="black" stroke-width="8" mask="url(#path-11-inside-6)"/>
<g clip-path="url(#clip0)">
<mask id="path-12-inside-7" fill="white">
<path d="M70.5557 23.8931C70.8453 23.8931 71.0799 23.6755 71.0799 23.407V20.4996C71.0799 20.2311 70.8453 20.0135 70.5557 20.0135H44.2946C43.6265 19.1238 42.5163 18.54 41.2613 18.54C39.2241 18.54 37.5665 20.0774 37.5665 21.9671V24.8272C37.5665 25.4528 38.6148 25.4538 38.6148 24.8272V21.9671C38.6148 20.7151 39.6773 19.6366 41.0211 19.5234C42.5466 19.3949 43.908 20.5646 43.908 21.9671V31.2854C43.908 31.4412 43.9885 31.5877 44.1247 31.679C45.3925 32.5306 46.1493 33.9043 46.1493 35.3536C46.1493 36.5767 45.6322 37.7232 44.6932 38.5821C43.7546 39.4406 42.5089 39.9033 41.1917 39.887C38.565 39.8531 36.4036 37.8432 36.3737 35.4066C36.3557 33.9361 37.1125 32.5426 38.3981 31.6791C38.5342 31.5877 38.6149 31.4413 38.6149 31.2854V27.6143C38.6149 26.9887 37.5666 26.9876 37.5666 27.6143V31.0444C36.1378 32.1 35.3048 33.7163 35.3256 35.4177C35.3433 36.8553 35.9604 38.2119 37.0633 39.2376C37.8006 39.9232 38.6982 40.4066 39.6751 40.6586V47.8462H38.536C38.2464 47.8462 38.0118 48.0638 38.0118 48.3323V51.2396C38.0118 51.5081 38.2464 51.7257 38.536 51.7257H63.4889C64.1634 51.7257 64.1645 50.7535 63.4889 50.7535H39.0601V48.8184H70.0316V50.7535H66.6337C65.9592 50.7535 65.9581 51.7257 66.6337 51.7257H70.5557C70.8453 51.7257 71.0799 51.5081 71.0799 51.2396V48.3322C71.0799 48.0638 70.8453 47.8461 70.5557 47.8461H69.4167V23.8931H70.5557ZM60.0003 47.8068V40.0963C60.2043 40.0963 64.1178 40.0963 64.2518 40.0963V47.8068H60.0003ZM68.2404 27.5768V39.1241H57.5539V27.5768H68.2404ZM68.3684 40.0963V47.8068H65.3001V40.0963C65.4457 40.0963 68.3684 40.0963 68.3684 40.0963ZM68.3684 26.6046H65.3001V23.9574H68.3684V26.6046V26.6046ZM64.2518 26.6046H60.0003V23.9574H64.2518V26.6046ZM53.6523 26.656H49.4007V23.9574H53.6523V26.656ZM44.9562 23.9574H48.3524V26.656H44.9562V23.9574ZM70.0316 20.9857V22.9209H44.9562V21.9671C44.9562 21.6261 44.9015 21.2969 44.8011 20.9857H70.0316V20.9857ZM47.1976 35.3537C47.1976 33.7609 46.4447 32.2439 45.1611 31.2037V27.6282H53.6052V36.7533C53.6052 37.3789 54.6535 37.3799 54.6535 36.7533V23.9574H58.952V26.6046H57.0297C56.7402 26.6046 56.5056 26.8222 56.5056 27.0907V39.6102C56.5056 39.8786 56.7402 40.0963 57.0297 40.0963C57.0297 40.0963 58.7367 40.0963 58.952 40.0963V47.8068H54.6535V39.7996C54.6535 39.174 53.6052 39.173 53.6052 39.7996V47.8068H45.1611V39.5037C46.4482 38.46 47.1976 36.9404 47.1976 35.3537ZM41.1771 40.8591C41.2055 40.8595 41.2339 40.8597 41.2622 40.8597C42.2752 40.8597 43.2485 40.6249 44.1129 40.1843V47.8068H40.7233V40.8356C40.8736 40.8483 41.0248 40.8572 41.1771 40.8591Z"/>
</mask>
<path d="M70.5557 23.8931C70.8453 23.8931 71.0799 23.6755 71.0799 23.407V20.4996C71.0799 20.2311 70.8453 20.0135 70.5557 20.0135H44.2946C43.6265 19.1238 42.5163 18.54 41.2613 18.54C39.2241 18.54 37.5665 20.0774 37.5665 21.9671V24.8272C37.5665 25.4528 38.6148 25.4538 38.6148 24.8272V21.9671C38.6148 20.7151 39.6773 19.6366 41.0211 19.5234C42.5466 19.3949 43.908 20.5646 43.908 21.9671V31.2854C43.908 31.4412 43.9885 31.5877 44.1247 31.679C45.3925 32.5306 46.1493 33.9043 46.1493 35.3536C46.1493 36.5767 45.6322 37.7232 44.6932 38.5821C43.7546 39.4406 42.5089 39.9033 41.1917 39.887C38.565 39.8531 36.4036 37.8432 36.3737 35.4066C36.3557 33.9361 37.1125 32.5426 38.3981 31.6791C38.5342 31.5877 38.6149 31.4413 38.6149 31.2854V27.6143C38.6149 26.9887 37.5666 26.9876 37.5666 27.6143V31.0444C36.1378 32.1 35.3048 33.7163 35.3256 35.4177C35.3433 36.8553 35.9604 38.2119 37.0633 39.2376C37.8006 39.9232 38.6982 40.4066 39.6751 40.6586V47.8462H38.536C38.2464 47.8462 38.0118 48.0638 38.0118 48.3323V51.2396C38.0118 51.5081 38.2464 51.7257 38.536 51.7257H63.4889C64.1634 51.7257 64.1645 50.7535 63.4889 50.7535H39.0601V48.8184H70.0316V50.7535H66.6337C65.9592 50.7535 65.9581 51.7257 66.6337 51.7257H70.5557C70.8453 51.7257 71.0799 51.5081 71.0799 51.2396V48.3322C71.0799 48.0638 70.8453 47.8461 70.5557 47.8461H69.4167V23.8931H70.5557ZM60.0003 47.8068V40.0963C60.2043 40.0963 64.1178 40.0963 64.2518 40.0963V47.8068H60.0003ZM68.2404 27.5768V39.1241H57.5539V27.5768H68.2404ZM68.3684 40.0963V47.8068H65.3001V40.0963C65.4457 40.0963 68.3684 40.0963 68.3684 40.0963ZM68.3684 26.6046H65.3001V23.9574H68.3684V26.6046V26.6046ZM64.2518 26.6046H60.0003V23.9574H64.2518V26.6046ZM53.6523 26.656H49.4007V23.9574H53.6523V26.656ZM44.9562 23.9574H48.3524V26.656H44.9562V23.9574ZM70.0316 20.9857V22.9209H44.9562V21.9671C44.9562 21.6261 44.9015 21.2969 44.8011 20.9857H70.0316V20.9857ZM47.1976 35.3537C47.1976 33.7609 46.4447 32.2439 45.1611 31.2037V27.6282H53.6052V36.7533C53.6052 37.3789 54.6535 37.3799 54.6535 36.7533V23.9574H58.952V26.6046H57.0297C56.7402 26.6046 56.5056 26.8222 56.5056 27.0907V39.6102C56.5056 39.8786 56.7402 40.0963 57.0297 40.0963C57.0297 40.0963 58.7367 40.0963 58.952 40.0963V47.8068H54.6535V39.7996C54.6535 39.174 53.6052 39.173 53.6052 39.7996V47.8068H45.1611V39.5037C46.4482 38.46 47.1976 36.9404 47.1976 35.3537ZM41.1771 40.8591C41.2055 40.8595 41.2339 40.8597 41.2622 40.8597C42.2752 40.8597 43.2485 40.6249 44.1129 40.1843V47.8068H40.7233V40.8356C40.8736 40.8483 41.0248 40.8572 41.1771 40.8591Z" fill="black" stroke="black" stroke-width="8" mask="url(#path-12-inside-7)"/>
<mask id="path-13-inside-8" fill="white">
<path d="M40.4327 29.3707C39.7582 29.3707 39.7571 30.3429 40.4327 30.3429H40.7378V34.3402C40.303 34.5252 39.9997 34.9319 39.9997 35.4038C39.9997 36.0493 40.5659 36.5745 41.2619 36.5745C41.9579 36.5745 42.5241 36.0493 42.5241 35.4038C42.5241 34.9319 42.2208 34.5252 41.7861 34.3402V30.3429H42.0912C42.7657 30.3429 42.7668 29.3707 42.0912 29.3707H41.7861V27.067H42.0912C42.7657 27.067 42.7668 26.0948 42.0912 26.0948H41.7861V23.7911H42.0912C42.7657 23.7911 42.7668 22.8189 42.0912 22.8189H41.7861V21.9667C41.7861 21.3411 40.7378 21.34 40.7378 21.9667V22.8189H40.4327C39.7582 22.8189 39.7571 23.7911 40.4327 23.7911H40.7378V26.0948H40.4327C40.0357 26.0948 39.7793 26.5079 39.9802 26.8262C40.1471 27.0908 40.4539 27.067 40.7378 27.067V29.3707H40.4327Z"/>
</mask>
<path d="M40.4327 29.3707C39.7582 29.3707 39.7571 30.3429 40.4327 30.3429H40.7378V34.3402C40.303 34.5252 39.9997 34.9319 39.9997 35.4038C39.9997 36.0493 40.5659 36.5745 41.2619 36.5745C41.9579 36.5745 42.5241 36.0493 42.5241 35.4038C42.5241 34.9319 42.2208 34.5252 41.7861 34.3402V30.3429H42.0912C42.7657 30.3429 42.7668 29.3707 42.0912 29.3707H41.7861V27.067H42.0912C42.7657 27.067 42.7668 26.0948 42.0912 26.0948H41.7861V23.7911H42.0912C42.7657 23.7911 42.7668 22.8189 42.0912 22.8189H41.7861V21.9667C41.7861 21.3411 40.7378 21.34 40.7378 21.9667V22.8189H40.4327C39.7582 22.8189 39.7571 23.7911 40.4327 23.7911H40.7378V26.0948H40.4327C40.0357 26.0948 39.7793 26.5079 39.9802 26.8262C40.1471 27.0908 40.4539 27.067 40.7378 27.067V29.3707H40.4327Z" fill="black"/>
<path d="M40.7378 30.3429H44.7378V26.3429H40.7378V30.3429ZM40.7378 34.3402L42.3044 38.0207L44.7378 36.9849V34.3402H40.7378ZM41.7861 34.3402H37.7861V36.9849L40.2195 38.0207L41.7861 34.3402ZM41.7861 30.3429V26.3429H37.7861V30.3429H41.7861ZM41.7861 29.3707H37.7861V33.3707H41.7861V29.3707ZM41.7861 27.067V23.067H37.7861V27.067H41.7861ZM41.7861 26.0948H37.7861V30.0948H41.7861V26.0948ZM41.7861 23.7911V19.7911H37.7861V23.7911H41.7861ZM41.7861 22.8189H37.7861V26.8189H41.7861V22.8189ZM40.7378 22.8189V26.8189H44.7378V22.8189H40.7378ZM40.7378 23.7911H44.7378V19.7911H40.7378V23.7911ZM40.7378 26.0948V30.0948H44.7378V26.0948H40.7378ZM39.9802 26.8262L43.363 24.6916L43.3629 24.6915L39.9802 26.8262ZM40.7378 27.067H44.7378V23.067H40.7378V27.067ZM40.7378 29.3707V33.3707H44.7378V29.3707H40.7378ZM40.4327 25.3707C39.2333 25.3707 38.0145 25.837 37.1183 26.8048C36.2787 27.7114 35.927 28.8356 35.9264 29.8545C35.9258 30.8736 36.2764 31.9997 37.1174 32.9082C38.0151 33.878 39.235 34.3429 40.4327 34.3429V26.3429C41.2927 26.3429 42.2594 26.6864 42.9883 27.4739C43.6606 28.2001 43.9269 29.0831 43.9264 29.8591C43.926 30.635 43.6588 31.5161 42.9881 32.2404C42.2606 33.026 41.295 33.3707 40.4327 33.3707V25.3707ZM40.4327 34.3429H40.7378V26.3429H40.4327V34.3429ZM36.7378 30.3429V34.3402H44.7378V30.3429H36.7378ZM39.1712 30.6597C37.454 31.3906 35.9997 33.1282 35.9997 35.4038H43.9997C43.9997 36.7356 43.152 37.6599 42.3044 38.0207L39.1712 30.6597ZM35.9997 35.4038C35.9997 38.5368 38.6458 40.5745 41.2619 40.5745V32.5745C42.4861 32.5745 43.9997 33.5619 43.9997 35.4038H35.9997ZM41.2619 40.5745C43.8781 40.5745 46.5241 38.5368 46.5241 35.4038H38.5241C38.5241 33.5619 40.0378 32.5745 41.2619 32.5745V40.5745ZM46.5241 35.4038C46.5241 33.1282 45.0698 31.3906 43.3526 30.6597L40.2195 38.0207C39.3718 37.6599 38.5241 36.7356 38.5241 35.4038H46.5241ZM45.7861 34.3402V30.3429H37.7861V34.3402H45.7861ZM41.7861 34.3429H42.0912V26.3429H41.7861V34.3429ZM42.0912 34.3429C43.2907 34.3429 44.5094 33.8767 45.4057 32.9088C46.2452 32.0022 46.5969 30.8781 46.5975 29.8591C46.5981 28.8401 46.2475 27.714 45.4066 26.8054C44.5089 25.8357 43.289 25.3707 42.0912 25.3707V33.3707C41.2312 33.3707 40.2645 33.0273 39.5356 32.2398C38.8634 31.5135 38.5971 30.6305 38.5975 29.8545C38.598 29.0786 38.8651 28.1976 39.5359 27.4733C40.2633 26.6877 41.229 26.3429 42.0912 26.3429V34.3429ZM42.0912 25.3707H41.7861V33.3707H42.0912V25.3707ZM45.7861 29.3707V27.067H37.7861V29.3707H45.7861ZM41.7861 31.067H42.0912V23.067H41.7861V31.067ZM42.0912 31.067C43.2907 31.067 44.5094 30.6007 45.4057 29.6329C46.2452 28.7263 46.5969 27.6021 46.5975 26.5832C46.5981 25.5642 46.2475 24.4381 45.4066 23.5295C44.5089 22.5597 43.289 22.0948 42.0912 22.0948V30.0948C41.2312 30.0948 40.2645 29.7514 39.5356 28.9639C38.8634 28.2376 38.5971 27.3546 38.5975 26.5786C38.598 25.8027 38.8651 24.9216 39.5359 24.1973C40.2633 23.4118 41.229 23.067 42.0912 23.067V31.067ZM42.0912 22.0948H41.7861V30.0948H42.0912V22.0948ZM45.7861 26.0948V23.7911H37.7861V26.0948H45.7861ZM41.7861 27.7911H42.0912V19.7911H41.7861V27.7911ZM42.0912 27.7911C43.2907 27.7911 44.5094 27.3248 45.4057 26.357C46.2452 25.4503 46.5969 24.3262 46.5975 23.3073C46.5981 22.2882 46.2475 21.1621 45.4066 20.2536C44.5089 19.2838 43.289 18.8189 42.0912 18.8189V26.8189C41.2312 26.8189 40.2645 26.4754 39.5356 25.6879C38.8634 24.9617 38.5971 24.0787 38.5975 23.3027C38.598 22.5268 38.8651 21.6457 39.5359 20.9214C40.2633 20.1358 41.229 19.7911 42.0912 19.7911V27.7911ZM42.0912 18.8189H41.7861V26.8189H42.0912V18.8189ZM45.7861 22.8189V21.9667H37.7861V22.8189H45.7861ZM45.7861 21.9667C45.7861 20.5608 45.1407 19.3033 44.1145 18.4859C43.1907 17.75 42.1365 17.4975 41.2639 17.4971C40.3914 17.4966 39.3356 17.7481 38.41 18.4851C37.3815 19.304 36.7378 20.5626 36.7378 21.9667H44.7378C44.7378 23.0574 44.2251 24.0812 43.3931 24.7436C42.6641 25.324 41.8704 25.4974 41.26 25.4971C40.6495 25.4968 39.8573 25.3226 39.1301 24.7434C38.3004 24.0825 37.7861 23.0597 37.7861 21.9667H45.7861ZM36.7378 21.9667V22.8189H44.7378V21.9667H36.7378ZM40.7378 18.8189H40.4327V26.8189H40.7378V18.8189ZM40.4327 18.8189C39.2333 18.8189 38.0145 19.2851 37.1183 20.253C36.2787 21.1596 35.927 22.2837 35.9264 23.3027C35.9258 24.3217 36.2764 25.4478 37.1174 26.3564C38.015 27.3261 39.235 27.7911 40.4327 27.7911V19.7911C41.2927 19.7911 42.2594 20.1345 42.9883 20.922C43.6606 21.6483 43.9269 22.5313 43.9264 23.3073C43.926 24.0832 43.6588 24.9642 42.9881 25.6885C42.2606 26.4741 41.295 26.8189 40.4327 26.8189V18.8189ZM40.4327 27.7911H40.7378V19.7911H40.4327V27.7911ZM36.7378 23.7911V26.0948H44.7378V23.7911H36.7378ZM40.7378 22.0948H40.4327V30.0948H40.7378V22.0948ZM40.4327 22.0948C37.4535 22.0948 34.4211 25.5124 36.5974 28.961L43.3629 24.6915C44.1709 25.9718 44.005 27.4428 43.3826 28.4475C42.773 29.4317 41.6769 30.0948 40.4327 30.0948V22.0948ZM36.5974 28.9609C37.4127 30.2529 38.6251 30.7836 39.5161 30.9652C39.9056 31.0446 40.2351 31.0603 40.4163 31.0652C40.5123 31.0677 40.5954 31.0677 40.6455 31.0675C40.7252 31.0672 40.704 31.067 40.7378 31.067V23.067C40.7071 23.067 40.6791 23.0672 40.6598 23.0673C40.637 23.0674 40.6273 23.0675 40.6157 23.0676C40.594 23.0676 40.6052 23.0674 40.6299 23.068C40.6686 23.0691 40.8577 23.0742 41.1142 23.1265C41.3826 23.1812 41.7898 23.3 42.2298 23.5715C42.6913 23.8563 43.0794 24.2422 43.363 24.6916L36.5974 28.9609ZM36.7378 27.067V29.3707H44.7378V27.067H36.7378ZM40.7378 25.3707H40.4327V33.3707H40.7378V25.3707Z" fill="black" mask="url(#path-13-inside-8)"/>
</g>
<defs>
<clipPath id="clip0">
<rect width="35.7812" height="33.1857" fill="white" transform="translate(35.3123 18.54)"/>
</clipPath>
</defs>
</svg>
