<svg width="79" height="79" viewBox="0 0 79 79" fill="none" xmlns="http://www.w3.org/2000/svg">
<path d="M30.2834 71.2254H30.2835C36.1668 71.2189 40.9352 66.4505 40.9417 60.5672V60.5671C40.9417 54.6804 36.17 49.9087 30.2834 49.9087C24.3967 49.9087 19.625 54.6804 19.625 60.5671C19.625 66.4537 24.3967 71.2254 30.2834 71.2254ZM17.2417 60.5671C17.2417 53.3642 23.0805 47.5254 30.2833 47.5254C37.483 47.5331 43.3174 53.3675 43.325 60.5672C43.325 67.77 37.4862 73.6087 30.2834 73.6087C23.0805 73.6087 17.2417 67.7699 17.2417 60.5671Z" fill="black" stroke="#FFFDFD" stroke-width="0.25"/>
<path d="M31.4749 54.1155V54.2191L31.5768 54.2383C33.7843 54.6543 35.3502 56.0778 35.4223 57.8087H33.0279C32.9995 57.6765 32.9283 57.545 32.8281 57.4222C32.6951 57.2592 32.5038 57.1021 32.265 56.9653C31.7869 56.6914 31.1068 56.492 30.2833 56.492C29.4597 56.492 28.7796 56.6914 28.3015 56.9653C28.0627 57.1021 27.8714 57.2592 27.7384 57.4222C27.6066 57.5838 27.5249 57.7604 27.5249 57.9337C27.5249 58.1069 27.6066 58.2836 27.7384 58.4451C27.8714 58.6082 28.0627 58.7652 28.3015 58.902C28.7796 59.1759 29.4597 59.3753 30.2833 59.3753C33.2035 59.3753 35.4249 61.0843 35.4249 63.2003C35.4249 64.99 33.8371 66.4729 31.577 66.8957L31.4749 66.9147V67.0185V68.342H29.0916V67.0185V66.9149L28.9897 66.8957C26.7823 66.4797 25.2163 65.0562 25.1442 63.3253H27.5386C27.567 63.4575 27.6382 63.589 27.7384 63.7118C27.8714 63.8748 28.0627 64.0319 28.3015 64.1687C28.7796 64.4425 29.4597 64.642 30.2833 64.642C31.1068 64.642 31.7869 64.4425 32.265 64.1687C32.5038 64.0319 32.6951 63.8748 32.8281 63.7118C32.9599 63.5502 33.0416 63.3736 33.0416 63.2003C33.0416 63.027 32.9599 62.8504 32.8281 62.6888C32.6951 62.5258 32.5038 62.3688 32.265 62.232C31.7869 61.9581 31.1068 61.7587 30.2833 61.7587C27.3631 61.7587 25.1416 60.0497 25.1416 57.9337C25.1416 56.144 26.7294 54.6611 28.9896 54.2383L29.0916 54.2192V54.1155V52.792H31.4749V54.1155Z" fill="black" stroke="#FFFDFD" stroke-width="0.25"/>
<path d="M67.15 76.4917H67.275V76.3667V60.6917H69.6583V78.875H9.34167V44.7667V44.6417H9.21667H3.95C1.83766 44.6417 0.125 42.929 0.125 40.8167V3.95C0.125 1.83766 1.83766 0.125 3.95 0.125H32.9167C35.029 0.125 36.7417 1.83766 36.7417 3.95V5.26667V5.39167H36.8667H53.1601L69.6583 21.8899V42.0083H67.275V23.7V23.575H67.15H51.475V7.9V7.775H51.35H36.8667H36.7417V7.9V40.8167C36.7417 42.929 35.029 44.6417 32.9167 44.6417H11.85H11.725V44.7667V76.3667V76.4917H11.85H67.15ZM54.0717 9.67346L53.8583 9.46007V9.76185V21.0667V21.1917H53.9833H65.2882H65.5899L65.3765 20.9783L54.0717 9.67346ZM2.50833 3.95V40.8167C2.50833 41.6128 3.15384 42.2583 3.95 42.2583H32.9167C33.7128 42.2583 34.3583 41.6128 34.3583 40.8167V3.95C34.3583 3.15384 33.7128 2.50833 32.9167 2.50833H3.95C3.15384 2.50833 2.50833 3.15384 2.50833 3.95Z" fill="black" stroke="#FFFDFD" stroke-width="0.25"/>
<path d="M42.2583 33.042H44.6416V35.4253H42.2583V33.042Z" fill="black" stroke="#FFFDFD" stroke-width="0.25"/>
<path d="M47.5249 33.042H63.0749V35.4253H47.5249V33.042Z" fill="black" stroke="#FFFDFD" stroke-width="0.25"/>
<path d="M42.2583 27.7754H44.6416V30.1587H42.2583V27.7754Z" fill="black" stroke="#FFFDFD" stroke-width="0.25"/>
<path d="M47.5249 27.7754H63.0749V30.1587H47.5249V27.7754Z" fill="black" stroke="#FFFDFD" stroke-width="0.25"/>
<path d="M42.2583 38.3086H44.6416V40.6919H42.2583V38.3086Z" fill="black" stroke="#FFFDFD" stroke-width="0.25"/>
<path d="M47.5249 38.3086H63.0749V40.6919H47.5249V38.3086Z" fill="black" stroke="#FFFDFD" stroke-width="0.25"/>
<path d="M42.2583 43.5752H44.6416V45.9585H42.2583V43.5752Z" fill="black" stroke="#FFFDFD" stroke-width="0.25"/>
<path d="M47.5249 43.5752H63.0749V45.9585H47.5249V43.5752Z" fill="black" stroke="#FFFDFD" stroke-width="0.25"/>
<path d="M30.2835 10.6585H30.4085V10.5335V6.58353V6.45853H30.2835H6.58353H6.45853V6.58353V10.5335V10.6585H6.58353H30.2835ZM4.0752 4.0752H32.7919V13.0419H4.0752V4.0752Z" fill="black" stroke="#FFFDFD" stroke-width="0.25"/>
<path d="M7.77494 19.7501V19.8751H7.89994H10.5333H10.6583V19.7501V17.1167V16.9917H10.5333H7.89994H7.77494V17.1167V19.7501ZM7.89994 14.6084H10.5333C11.9185 14.6084 13.0416 15.7315 13.0416 17.1167V19.7501C13.0416 21.1353 11.9185 22.2584 10.5333 22.2584H7.89994C6.51472 22.2584 5.3916 21.1353 5.3916 19.7501V17.1167C5.3916 15.7315 6.51472 14.6084 7.89994 14.6084Z" fill="black" stroke="#FFFDFD" stroke-width="0.25"/>
<path d="M16.9917 19.7501V19.8751H17.1167H19.7501H19.8751V19.7501V17.1167V16.9917H19.7501H17.1167H16.9917V17.1167V19.7501ZM17.1167 14.6084H19.7501C21.1353 14.6084 22.2584 15.7315 22.2584 17.1167V19.7501C22.2584 21.1353 21.1353 22.2584 19.7501 22.2584H17.1167C15.7315 22.2584 14.6084 21.1353 14.6084 19.7501V17.1167C14.6084 15.7315 15.7315 14.6084 17.1167 14.6084Z" fill="black" stroke="#FFFDFD" stroke-width="0.25"/>
<path d="M26.2085 19.7501V19.8751H26.3335H28.9669H29.0919V19.7501V17.1167V16.9917H28.9669H26.3335H26.2085V17.1167V19.7501ZM26.3335 14.6084H28.9669C30.3521 14.6084 31.4752 15.7315 31.4752 17.1167V19.7501C31.4752 21.1353 30.3521 22.2584 28.9669 22.2584H26.3335C24.9483 22.2584 23.8252 21.1353 23.8252 19.7501V17.1167C23.8252 15.7315 24.9483 14.6084 26.3335 14.6084Z" fill="black" stroke="#FFFDFD" stroke-width="0.25"/>
<path d="M7.77494 28.9669V29.0919H7.89994H10.5333H10.6583V28.9669V26.3335V26.2085H10.5333H7.89994H7.77494V26.3335V28.9669ZM7.89994 23.8252H10.5333C11.9185 23.8252 13.0416 24.9483 13.0416 26.3335V28.9669C13.0416 30.3521 11.9185 31.4752 10.5333 31.4752H7.89994C6.51472 31.4752 5.3916 30.3521 5.3916 28.9669V26.3335C5.3916 24.9483 6.51472 23.8252 7.89994 23.8252Z" fill="black" stroke="#FFFDFD" stroke-width="0.25"/>
<path d="M16.9917 28.9669V29.0919H17.1167H19.7501H19.8751V28.9669V26.3335V26.2085H19.7501H17.1167H16.9917V26.3335V28.9669ZM17.1167 23.8252H19.7501C21.1353 23.8252 22.2584 24.9483 22.2584 26.3335V28.9669C22.2584 30.3521 21.1353 31.4752 19.7501 31.4752H17.1167C15.7315 31.4752 14.6084 30.3521 14.6084 28.9669V26.3335C14.6084 24.9483 15.7315 23.8252 17.1167 23.8252Z" fill="black" stroke="#FFFDFD" stroke-width="0.25"/>
<path d="M26.2085 28.9669V29.0919H26.3335H28.9669H29.0919V28.9669V26.3335V26.2085H28.9669H26.3335H26.2085V26.3335V28.9669ZM26.3335 23.8252H28.9669C30.3521 23.8252 31.4752 24.9483 31.4752 26.3335V28.9669C31.4752 30.3521 30.3521 31.4752 28.9669 31.4752H26.3335C24.9483 31.4752 23.8252 30.3521 23.8252 28.9669V26.3335C23.8252 24.9483 24.9483 23.8252 26.3335 23.8252Z" fill="black" stroke="#FFFDFD" stroke-width="0.25"/>
<path d="M7.77494 38.1837V38.3087H7.89994H10.5333H10.6583V38.1837V35.5503V35.4253H10.5333H7.89994H7.77494V35.5503V38.1837ZM7.89994 33.042H10.5333C11.9185 33.042 13.0416 34.1651 13.0416 35.5503V38.1837C13.0416 39.5689 11.9185 40.692 10.5333 40.692H7.89994C6.51472 40.692 5.3916 39.5689 5.3916 38.1837V35.5503C5.3916 34.1651 6.51472 33.042 7.89994 33.042Z" fill="black" stroke="#FFFDFD" stroke-width="0.25"/>
<path d="M16.9917 38.1837V38.3087H17.1167H19.7501H19.8751V38.1837V35.5503V35.4253H19.7501H17.1167H16.9917V35.5503V38.1837ZM17.1167 33.042H19.7501C21.1353 33.042 22.2584 34.1651 22.2584 35.5503V38.1837C22.2584 39.5689 21.1353 40.692 19.7501 40.692H17.1167C15.7315 40.692 14.6084 39.5689 14.6084 38.1837V35.5503C14.6084 34.1651 15.7315 33.042 17.1167 33.042Z" fill="black" stroke="#FFFDFD" stroke-width="0.25"/>
<path d="M26.2085 38.1837V38.3087H26.3335H28.9669H29.0919V38.1837V35.5503V35.4253H28.9669H26.3335H26.2085V35.5503V38.1837ZM26.3335 33.042H28.9669C30.3521 33.042 31.4752 34.1651 31.4752 35.5503V38.1837C31.4752 39.5689 30.3521 40.692 28.9669 40.692H26.3335C24.9483 40.692 23.8252 39.5689 23.8252 38.1837V35.5503C23.8252 34.1651 24.9483 33.042 26.3335 33.042Z" fill="black" stroke="#FFFDFD" stroke-width="0.25"/>
<path d="M77.7167 42.1021C76.2024 40.6574 73.8208 40.6574 72.3065 42.1021L49.7364 64.6716C49.7363 64.6717 49.7362 64.6717 49.7362 64.6718C49.6371 64.7721 49.5562 64.8886 49.4975 65.0165L49.4974 65.0166L46.319 71.9187L77.7167 42.1021ZM77.7167 42.1021C79.2098 43.5957 79.2095 46.0173 77.7157 47.5105L77.7157 47.5105L55.1462 70.0819C55.1461 70.082 55.146 70.082 55.146 70.0821C55.046 70.1814 54.9297 70.2617 54.8015 70.3206L54.8014 70.3206L47.8993 73.4991L77.7167 42.1021ZM46.5598 73.2581L46.56 73.2582C46.9119 73.6107 47.4466 73.7068 47.8992 73.4991L46.5598 73.2581ZM46.5598 73.2581C46.2073 72.9061 46.1113 72.3715 46.3189 71.9188L46.5598 73.2581ZM53.5893 68.2538L53.6096 68.2445L53.6254 68.2287L70.456 51.3994L70.5444 51.311L70.456 51.2226L68.5941 49.3608L68.5057 49.2724L68.4173 49.3608L51.5881 66.1913L51.5723 66.2071L51.5629 66.2274L49.9737 69.6772L49.832 69.9847L50.1395 69.8431L53.5893 68.2538ZM72.1449 49.5318L72.2333 49.6201L72.3217 49.5318L73.2436 48.6105L73.332 48.5221L73.2436 48.4337L71.3818 46.5718L71.2934 46.4835L71.205 46.5718L70.2831 47.4938L70.1947 47.5822L70.2831 47.6706L72.1449 49.5318ZM76.0351 45.819L76.0352 45.8189C76.5976 45.2558 76.5976 44.3435 76.0352 43.7804L76.0352 43.7804L76.0331 43.7784C75.464 43.2346 74.5682 43.2346 73.9997 43.7784L73.9997 43.7784L73.9978 43.7803L73.0656 44.7112L72.9771 44.7996L73.0655 44.8881L74.9274 46.7499L75.0158 46.8383L75.1042 46.7499L76.0351 45.819Z" fill="black" stroke="#FFFDFD" stroke-width="0.25"/>
</svg>
