<svg width="257" height="26" viewBox="0 0 257 26" fill="none" xmlns="http://www.w3.org/2000/svg">
<path d="M224.228 10.7894C213.762 7.78374 202.662 7.78374 192.196 10.7894C181.708 13.6353 170.651 13.6353 160.163 10.7894C149.696 7.7948 138.598 7.7948 128.13 10.7894C117.644 13.6441 106.585 13.6441 96.0979 10.7894C85.6318 7.78374 74.5313 7.78374 64.0652 10.7894C53.5773 13.6353 42.5205 13.6353 32.0326 10.7894C21.565 7.7948 10.4676 7.7948 0 10.7894V14.9994C10.4879 12.1535 21.5447 12.1535 32.0326 14.9994C42.5002 17.994 53.5977 17.994 64.0652 14.9994C74.5532 12.1535 85.61 12.1535 96.0979 14.9994C106.565 17.994 117.663 17.994 128.13 14.9994C138.617 12.1447 149.676 12.1447 160.163 14.9994C170.631 17.994 181.728 17.994 192.196 14.9994C202.684 12.1535 213.74 12.1535 224.228 14.9994C234.694 18.005 245.795 18.005 256.261 14.9994V10.8122C245.773 13.6581 234.716 13.6581 224.228 10.8122" fill="white"/>
<path d="M224.228 19.2542C213.762 16.2486 202.662 16.2486 192.196 19.2542C181.708 22.1001 170.651 22.1001 160.163 19.2542C149.696 16.2596 138.598 16.2596 128.13 19.2542C117.644 22.109 106.585 22.109 96.0979 19.2542C85.6318 16.2486 74.5313 16.2486 64.0652 19.2542C53.5773 22.1001 42.5205 22.1001 32.0326 19.2542C21.565 16.2596 10.4676 16.2596 0 19.2542V23.4642C10.4879 20.6184 21.5447 20.6184 32.0326 23.4642C42.5002 26.4588 53.5977 26.4588 64.0652 23.4642C74.5532 20.6184 85.61 20.6184 96.0979 23.4642C106.565 26.4588 117.663 26.4588 128.13 23.4642C138.617 20.6095 149.676 20.6095 160.163 23.4642C170.631 26.4588 181.728 26.4588 192.196 23.4642C202.684 20.6184 213.74 20.6184 224.228 23.4642C234.694 26.4699 245.795 26.4699 256.261 23.4642V19.2771C245.773 22.1229 234.716 22.1229 224.228 19.2771" fill="white"/>
<path d="M224.228 2.25424C213.762 -0.751414 202.662 -0.751414 192.196 2.25424C181.708 5.10011 170.651 5.10011 160.163 2.25424C149.696 -0.740357 138.598 -0.740357 128.13 2.25424C117.644 5.10897 106.585 5.10897 96.0979 2.25424C85.6318 -0.751414 74.5313 -0.751414 64.0652 2.25424C53.5773 5.10011 42.5205 5.10011 32.0326 2.25424C21.565 -0.740357 10.4676 -0.740357 0 2.25424V6.46423C10.4879 3.61836 21.5447 3.61836 32.0326 6.46423C42.4986 9.46989 53.5992 9.46989 64.0652 6.46423C74.5532 3.61836 85.61 3.61836 96.0979 6.46423C106.564 9.46989 117.664 9.46989 128.13 6.46423C138.619 3.62167 149.675 3.62167 160.163 6.46423C170.629 9.46989 181.73 9.46989 192.196 6.46423C202.684 3.61836 213.74 3.61836 224.228 6.46423C234.694 9.46989 245.795 9.46989 256.261 6.46423V2.25424C245.773 5.10011 234.716 5.10011 224.228 2.25424" fill="white"/>
</svg>
