<svg width="257" height="27" viewBox="0 0 257 27" fill="none" xmlns="http://www.w3.org/2000/svg">
<path d="M224.228 10.7894C213.762 7.78374 202.662 7.78374 192.196 10.7894C181.708 13.6353 170.651 13.6353 160.163 10.7894C149.696 7.7948 138.598 7.7948 128.13 10.7894C117.644 13.6441 106.585 13.6441 96.0979 10.7894C85.6318 7.78374 74.5313 7.78374 64.0652 10.7894C53.5773 13.6353 42.5205 13.6353 32.0326 10.7894C21.565 7.7948 10.4676 7.7948 0 10.7894V14.9994C10.4879 12.1535 21.5447 12.1535 32.0326 14.9994C42.5002 17.994 53.5977 17.994 64.0652 14.9994C74.5532 12.1535 85.61 12.1535 96.0979 14.9994C106.565 17.994 117.663 17.994 128.13 14.9994C138.617 12.1447 149.676 12.1447 160.163 14.9994C170.631 17.994 181.728 17.994 192.196 14.9994C202.684 12.1535 213.74 12.1535 224.228 14.9994C234.694 18.005 245.795 18.005 256.261 14.9994V10.8122C245.773 13.6581 234.716 13.6581 224.228 10.8122" fill="#0069B4"/>
<path d="M224.228 2.25424C213.762 -0.751414 202.662 -0.751414 192.196 2.25424C181.708 5.10011 170.651 5.10011 160.163 2.25424C149.696 -0.740358 138.598 -0.740358 128.13 2.25424C117.644 5.10897 106.585 5.10897 96.0979 2.25424C85.6318 -0.751414 74.5313 -0.751414 64.0652 2.25424C53.5773 5.10011 42.5205 5.10011 32.0326 2.25424C21.565 -0.740358 10.4676 -0.740358 0 2.25424V6.46423C10.4879 3.61836 21.5447 3.61836 32.0326 6.46423C42.4986 9.46989 53.5992 9.46989 64.0652 6.46423C74.5532 3.61836 85.61 3.61836 96.0979 6.46423C106.564 9.46989 117.664 9.46989 128.13 6.46423C138.619 3.62167 149.675 3.62167 160.163 6.46423C170.629 9.46989 181.73 9.46989 192.196 6.46423C202.684 3.61836 213.74 3.61836 224.228 6.46423C234.694 9.46989 245.795 9.46989 256.261 6.46423V2.25424C245.773 5.10011 234.716 5.10011 224.228 2.25424Z" fill="#0069B4"/>
<path d="M224.228 19.7894C213.762 16.7837 202.662 16.7837 192.196 19.7894C181.708 22.6353 170.651 22.6353 160.163 19.7894C149.696 16.7948 138.598 16.7948 128.13 19.7894C117.644 22.6441 106.585 22.6441 96.0979 19.7894C85.6318 16.7837 74.5313 16.7837 64.0652 19.7894C53.5773 22.6353 42.5205 22.6353 32.0326 19.7894C21.565 16.7948 10.4676 16.7948 0 19.7894V23.9994C10.4879 21.1535 21.5447 21.1535 32.0326 23.9994C42.5002 26.994 53.5977 26.994 64.0652 23.9994C74.5532 21.1535 85.61 21.1535 96.0979 23.9994C106.565 26.994 117.663 26.994 128.13 23.9994C138.617 21.1447 149.676 21.1447 160.163 23.9994C170.631 26.994 181.728 26.994 192.196 23.9994C202.684 21.1535 213.74 21.1535 224.228 23.9994C234.694 27.005 245.795 27.005 256.261 23.9994V19.8122C245.773 22.6581 234.716 22.6581 224.228 19.8122" fill="#0069B4"/>
<path d="M224.228 11.2542C213.762 8.24859 202.662 8.24859 192.196 11.2542C181.708 14.1001 170.651 14.1001 160.163 11.2542C149.696 8.25964 138.598 8.25964 128.13 11.2542C117.644 14.109 106.585 14.109 96.0979 11.2542C85.6318 8.24859 74.5313 8.24859 64.0652 11.2542C53.5773 14.1001 42.5205 14.1001 32.0326 11.2542C21.565 8.25964 10.4676 8.25964 0 11.2542V15.4642C10.4879 12.6184 21.5447 12.6184 32.0326 15.4642C42.4986 18.4699 53.5992 18.4699 64.0652 15.4642C74.5532 12.6184 85.61 12.6184 96.0979 15.4642C106.564 18.4699 117.664 18.4699 128.13 15.4642C138.619 12.6217 149.675 12.6217 160.163 15.4642C170.629 18.4699 181.73 18.4699 192.196 15.4642C202.684 12.6184 213.74 12.6184 224.228 15.4642C234.694 18.4699 245.795 18.4699 256.261 15.4642V11.2542C245.773 14.1001 234.716 14.1001 224.228 11.2542Z" fill="#0069B4"/>
</svg>
