<svg width="28" height="25" viewBox="0 0 28 25" fill="none" xmlns="http://www.w3.org/2000/svg">
<path d="M4.81084 24.6217H13.3558V16.0039H10.2858V13.1629H13.3558V9.61168C13.3558 7.6535 15.0774 6.06043 17.1934 6.06043H21.031V8.90143H17.9609C17.1145 8.90143 16.4259 9.53862 16.4259 10.3219V13.1629H20.8925L20.3808 16.0039H16.4259V24.6217H23.3335C25.4496 24.6217 27.1711 23.0286 27.1711 21.0704V3.92967C27.1711 1.97149 25.4496 0.378418 23.3335 0.378418H4.81084C2.69478 0.378418 0.973267 1.97149 0.973267 3.92967V21.0704C0.973267 23.0286 2.69478 24.6217 4.81084 24.6217ZM2.5083 3.92967C2.5083 2.7548 3.54125 1.79892 4.81084 1.79892H23.3335C24.6031 1.79892 25.6361 2.7548 25.6361 3.92967V21.0704C25.6361 22.2453 24.6031 23.2012 23.3335 23.2012H17.9609V17.4244H21.6812L22.7045 11.7424H17.9609V10.3219H22.566V4.63993H17.1934C14.2309 4.63993 11.8208 6.87019 11.8208 9.61168V11.7424H8.75076V17.4244H11.8208V23.2012H4.81084C3.54125 23.2012 2.5083 22.2453 2.5083 21.0704V3.92967Z" fill="white"/>
</svg>
