<svg width="27" height="25" viewBox="0 0 27 25" fill="none" xmlns="http://www.w3.org/2000/svg">
<g clip-path="url(#clip0)">
<path d="M19.5203 0.378418H7.47959C3.57647 0.378418 0.401001 3.31696 0.401001 6.92888V18.0712C0.401001 21.6831 3.57647 24.6217 7.47959 24.6217H19.5203C23.4234 24.6217 26.5989 21.6831 26.5989 18.0712V6.92888C26.5989 3.31696 23.4234 0.378418 19.5203 0.378418ZM24.4824 18.0712C24.4824 20.6032 22.2564 22.6631 19.5203 22.6631H7.47959C4.7435 22.6631 2.5175 20.6032 2.5175 18.0712V6.92888C2.5175 4.39693 4.74345 2.33701 7.47959 2.33701H19.5203C22.2564 2.33701 24.4824 4.39688 24.4824 6.92888V18.0712Z" fill="white"/>
<path d="M19.363 11.6548C19.1768 10.4925 18.6038 9.43903 17.7059 8.60818C16.8081 7.77737 15.6697 7.24705 14.4137 7.07474C13.8419 6.99628 13.2621 6.99628 12.6903 7.07474C11.1381 7.28777 9.76849 8.04736 8.83371 9.21364C7.89892 10.3799 7.51082 11.8133 7.74102 13.2496C7.97122 14.686 8.79206 15.9534 10.0524 16.8185C11.0755 17.5207 12.2887 17.8895 13.5396 17.8895C13.8296 17.8895 14.1216 17.8697 14.4137 17.8296C15.9659 17.6166 17.3355 16.857 18.2703 15.6907C19.2051 14.5245 19.5932 13.0911 19.363 11.6548ZM14.1033 15.8922C13.1104 16.0286 12.1195 15.7988 11.3132 15.2454C10.507 14.692 9.98191 13.8812 9.8347 12.9623C9.68744 12.0435 9.93565 11.1266 10.5337 10.3805C11.1317 9.63439 12.0078 9.14849 13.0008 9.01221C13.1837 8.98712 13.3678 8.97457 13.552 8.97457C13.7361 8.97457 13.9203 8.98712 14.1032 9.01226C15.7524 9.23855 17.0248 10.416 17.2694 11.9421C17.5733 13.8389 16.153 15.6109 14.1033 15.8922Z" fill="white"/>
<path d="M20.8706 5.67939C20.6735 5.49705 20.4008 5.39255 20.1223 5.39255C19.8438 5.39255 19.5711 5.497 19.374 5.67939C19.1769 5.86179 19.064 6.11378 19.064 6.37189C19.064 6.63 19.1769 6.88199 19.374 7.06439C19.5711 7.24673 19.8438 7.35123 20.1223 7.35123C20.4008 7.35123 20.6735 7.24678 20.8706 7.06439C21.0677 6.88199 21.1806 6.62957 21.1806 6.37189C21.1806 6.11416 21.0677 5.86174 20.8706 5.67939Z" fill="white"/>
</g>
<defs>
<clipPath id="clip0">
<rect width="26.1979" height="24.2432" fill="white" transform="translate(0.401001 0.378418)"/>
</clipPath>
</defs>
</svg>
