<svg width="187" height="48" viewBox="0 0 187 48" fill="none" xmlns="http://www.w3.org/2000/svg">
<path d="M10.4628 18.6289L13.5211 9.52313L16.2574 18.6289H10.4628ZM23.8224 24.32L17.706 6.5963C17.384 5.45808 16.7402 4.80766 16.0964 4.15725C15.4525 3.66944 14.6477 3.34424 13.682 3.34424C12.7162 3.34424 11.9115 3.66944 11.1067 4.15725C10.4628 4.80766 9.81894 5.62065 9.33606 6.92147L3.05872 24.32C2.89776 24.4826 2.89771 24.8078 2.89771 25.133C2.89771 25.4582 2.89771 25.6208 2.89771 25.946C2.89771 26.759 3.21962 27.4095 3.7025 27.8973C4.18538 28.3851 4.82923 28.7103 5.63403 28.7103C6.27786 28.7103 6.76074 28.5477 7.24362 28.0598C7.72649 27.572 8.04843 26.9217 8.37035 26.1086L9.17515 23.6696H18.1888L18.8327 25.946C19.1546 26.9216 19.4765 27.572 19.9594 28.0598C20.4423 28.5477 21.0861 28.7103 21.7299 28.7103C22.5347 28.7103 23.1786 28.3851 23.6615 27.8973C24.1443 27.4095 24.4662 26.759 24.4662 25.946C24.4662 25.7834 24.4663 25.4582 24.3053 25.133C24.1444 24.9704 23.9833 24.6452 23.8224 24.32Z" fill="white"/>
<path d="M39.596 15.8649C38.3083 15.8649 37.0206 16.3528 36.0548 17.3284C35.411 18.1414 34.9281 18.9544 34.7672 19.93C34.1234 19.117 33.8014 17.9788 33.8014 16.1902C33.8014 14.2389 34.2843 12.9381 34.9281 12.1251C35.411 11.4747 36.0549 11.1495 37.1816 11.1495C38.1473 11.1495 38.7911 11.4747 39.4349 12.1251C39.9178 12.7755 40.4008 13.9137 40.4008 15.8649C40.0788 15.8649 39.9179 15.8649 39.596 15.8649ZM37.1816 10.1738C35.8939 10.1738 34.9281 10.6617 34.2842 11.6373C33.4794 12.6129 32.9966 14.0763 32.9966 16.1902C32.9966 18.304 33.4794 19.6048 34.2842 20.5805C34.7671 21.2309 35.25 21.556 35.8938 21.7186C35.8938 21.3934 35.7329 21.0682 35.7329 20.743C35.7329 19.7674 36.0548 18.7918 36.8596 17.9788C37.6644 17.1658 38.6302 16.8406 39.596 16.8406C40.2398 16.8406 40.7226 17.0032 41.3665 17.1658C41.3665 16.8406 41.3665 16.5154 41.3665 16.1902C41.3665 14.0763 40.8836 12.6129 40.0788 11.6373C39.435 10.6617 38.4692 10.1738 37.1816 10.1738Z" fill="white"/>
<path d="M173.997 19.4419C173.514 19.9297 172.87 20.4175 171.1 20.4175V11.637C172.709 11.637 173.514 12.1248 173.997 12.45C174.48 12.9378 174.963 13.7508 174.963 15.7021C174.963 17.9785 174.48 18.9541 173.997 19.4419ZM170.939 10.6614H170.295V21.3932H171.1C173.031 21.3932 174.158 20.9053 174.802 20.0923C175.446 19.2793 176.09 17.9785 176.09 15.7021C176.09 13.7508 175.607 12.45 174.963 11.7996C173.997 11.1492 172.87 10.6614 170.939 10.6614Z" fill="white"/>
<path d="M175.928 21.3934C174.802 22.6943 173.192 23.182 170.939 23.182H168.363V9.0356H170.778C173.031 9.0356 174.641 9.52341 175.768 10.6616C176.894 11.7999 177.377 13.4259 177.377 15.7023C177.699 18.304 177.055 20.0926 175.928 21.3934ZM178.504 5.45832C177.538 4.80791 176.572 4.48272 175.285 4.15752C174.158 3.83231 172.709 3.66968 171.1 3.66968H166.593C165.144 3.66968 164.178 3.99488 163.696 4.48269C163.052 4.9705 162.891 6.10876 162.891 7.57219V24.6455C162.891 25.9463 163.213 26.9219 163.696 27.4097C164.178 27.8975 165.144 28.2227 166.593 28.2227H171.583C175.285 28.2227 178.182 27.0845 180.274 24.808C182.367 22.5316 183.494 19.4422 183.494 15.7023C183.494 13.5885 183.011 11.4746 182.045 9.686C181.401 7.89737 180.113 6.59654 178.504 5.45832Z" fill="white"/>
<path d="M122.329 18.6289L125.388 9.52313L128.124 18.6289H122.329ZM135.689 24.32L129.573 6.5963C129.251 5.45808 128.607 4.80766 127.963 4.15725C127.319 3.66944 126.514 3.34424 125.549 3.34424C124.583 3.34424 123.778 3.66944 122.973 4.15725C122.329 4.80766 121.686 5.62065 121.203 6.92147L114.925 24.32C114.764 24.4826 114.764 24.8078 114.764 25.133C114.764 25.4582 114.764 25.6208 114.764 25.946C114.764 26.759 115.086 27.4095 115.569 27.8973C116.052 28.3851 116.696 28.7103 117.501 28.7103C118.144 28.7103 118.627 28.5477 119.11 28.0598C119.593 27.572 119.915 26.9217 120.237 26.1086L121.042 23.6696H130.055L130.699 25.946C131.021 26.9216 131.343 27.572 131.826 28.0598C132.309 28.5477 132.953 28.7103 133.597 28.7103C134.401 28.7103 135.045 28.5477 135.528 27.8973C136.011 27.4095 136.333 26.759 136.333 25.946C136.333 25.7834 136.333 25.4582 136.172 25.133C136.011 24.9704 135.85 24.6452 135.689 24.32Z" fill="white"/>
<path d="M42.8152 18.1416C42.6543 18.792 42.4932 19.4424 42.3323 20.0928C41.6884 19.4424 41.2056 19.1172 40.7227 18.792C40.2398 18.6294 39.918 18.4668 39.5961 18.4668C38.9522 18.4668 38.4693 18.6294 38.1474 19.1172C37.8255 19.605 37.5035 20.0928 37.5035 20.7432C37.5035 21.231 37.6645 21.5563 37.8254 21.8815C37.9864 22.2067 38.4693 22.6945 38.9522 23.1823C38.6303 23.3449 38.3084 23.3449 37.9865 23.5075C37.6645 23.5075 37.3426 23.6701 37.0206 23.6701C35.2501 23.6701 33.8014 23.0197 32.6747 21.5562C31.548 20.2554 31.0651 18.3042 31.0651 16.0278C31.0651 13.5887 31.548 11.8001 32.6747 10.3367C33.8014 8.87323 35.2501 8.22284 37.0206 8.22284C38.7912 8.22284 40.2398 8.87323 41.3666 10.3367C42.4933 11.8001 42.9762 13.5887 42.9762 16.0278C43.1371 16.8408 42.9762 17.4912 42.8152 18.1416ZM37.1817 3.01953C33.6406 3.01953 30.7433 4.15777 28.4898 6.59681C26.2364 9.03586 25.1097 12.1253 25.1097 16.0278C25.1097 19.9302 26.2365 23.0197 28.3289 25.4588C30.5823 27.8978 33.4796 29.036 37.0206 29.036C38.3083 29.036 39.2741 28.8734 40.4008 28.7108C41.3666 28.3856 42.3323 28.0604 43.1371 27.5726L44.9077 29.3612C45.3906 29.6864 45.7125 30.0116 46.1953 30.1742C46.6782 30.3368 47.0001 30.4994 47.483 30.4994C48.1268 30.4994 48.6097 30.3368 49.0926 29.849C49.5755 29.3612 49.7365 28.8734 49.7365 28.223C49.7365 27.8978 49.5755 27.41 49.4145 26.9222C49.2536 26.4344 48.9316 26.1091 48.6097 25.7839L46.8392 24.1579C47.483 23.0197 48.1269 21.7189 48.4488 20.4181C48.7707 19.1172 49.0926 17.6538 49.0926 16.1904C49.0926 12.2879 47.9659 9.19847 45.7125 6.75943C43.62 4.32038 40.7228 3.01953 37.1817 3.01953Z" fill="white"/>
<path d="M181.723 26.1087C179.147 28.7104 175.767 30.0112 171.743 30.0112H166.754C165.305 30.0112 163.695 29.8486 162.569 28.8729C161.603 28.0599 161.281 26.7591 161.281 25.6209C161.281 26.9217 160.959 28.0599 160.315 29.0356C159.51 30.1738 158.223 30.6616 157.096 30.6616C156.13 30.6616 155.326 30.3364 154.521 29.8486C153.716 29.3608 153.072 28.7104 152.589 27.8974L145.668 18.629V24.8079C145.668 26.2713 145.346 27.7347 144.702 28.8729C143.897 30.0112 142.61 30.6616 141.161 30.6616C139.712 30.6616 138.586 30.1738 137.62 28.8729C137.459 28.7103 137.459 28.5478 137.298 28.5478C137.137 28.873 136.815 29.1982 136.493 29.5234C135.688 30.3364 134.562 30.6616 133.274 30.6616C132.147 30.6616 131.182 30.3364 130.377 29.5234C129.572 28.873 129.089 27.7347 128.767 26.7591L128.445 25.7835H122.007L121.524 27.0844C121.202 28.06 120.719 29.0356 120.075 29.686C119.271 30.3364 118.305 30.8242 117.339 30.8242C116.212 30.8242 115.086 30.3364 114.281 29.5234C113.959 29.1982 113.798 29.0356 113.637 28.7104C113.315 29.0356 113.154 29.3608 112.671 29.5234C111.545 30.1738 110.257 30.499 108.808 30.499H102.37C100.921 30.499 99.3117 30.3364 98.185 29.3608C97.8631 29.0356 97.5412 28.7104 97.3802 28.2225C97.2192 28.7104 96.8974 29.3608 96.4145 29.686C95.6097 30.499 94.483 30.8242 93.1953 30.8242C92.0686 30.8242 91.1029 30.499 90.2981 29.686C89.4933 29.0356 89.0104 27.8974 88.6885 26.9217L88.3665 25.9461H81.9282L81.4453 27.2469C81.1234 28.2225 80.6405 29.1982 79.9966 29.8486C79.1918 30.499 78.2261 30.9868 77.2603 30.9868C76.1336 30.9868 75.007 30.499 74.2022 29.686C73.3974 28.8729 72.9144 27.7347 72.9144 26.5965C72.5925 27.0843 72.2706 27.4096 71.9487 27.8974C69.6953 30.3364 66.637 31.4746 63.096 31.4746C59.3939 31.4746 56.3357 30.3364 54.0823 27.8974C52.1508 25.7835 51.0241 23.0193 50.8631 19.6046C50.7021 20.0924 50.7021 20.7428 50.5412 21.2306C50.2192 22.2063 49.8973 23.1819 49.4144 24.1575L50.0583 24.8079C50.5412 25.2957 51.024 25.7835 51.346 26.4339C51.6679 27.0843 51.8288 27.7348 51.8288 28.5478C51.8288 29.686 51.3459 30.6616 50.7021 31.4746C49.8973 32.2876 48.9316 32.7755 47.8048 32.7755C47.161 32.7755 46.5172 32.6128 45.8733 32.2876C45.2295 31.9624 44.7466 31.6372 44.2637 31.1494L43.298 30.3364C42.6542 30.6616 42.0104 30.8242 41.2056 30.9868C40.0788 31.312 38.7911 31.4746 37.5034 31.4746C33.4795 31.4746 30.0994 30.1738 27.524 27.4095C27.0412 26.9217 26.5583 26.2713 26.0754 25.6209C26.2363 26.1087 26.2363 26.4339 26.2363 26.7591C26.2363 27.8974 25.7534 29.0356 24.9486 29.8486C24.1439 30.6616 23.0171 30.9868 21.7295 30.9868C20.6028 30.9868 19.637 30.6616 18.8322 29.8486C18.0274 29.1982 17.5446 28.06 17.2226 27.0844L16.9007 26.1087H10.4623L9.97948 27.4095C9.65756 28.3851 9.17464 29.3608 8.53081 30.0112C7.72601 30.6616 6.76034 31.1494 5.79458 31.1494C4.66787 31.1494 3.54112 30.6616 2.73632 29.8486C1.93153 29.0356 1.44867 27.8974 1.44867 26.7591C1.44867 26.2713 1.44863 25.9461 1.60959 25.6209C1.60959 25.2957 1.77057 24.8079 1.93153 24.4827L8.20897 7.08417C8.69184 5.62075 9.49658 4.48252 10.4623 3.6695C11.4281 2.85649 12.7157 2.3687 14.1644 2.3687C15.452 2.3687 16.7397 2.69393 17.7055 3.50694C18.6712 4.31995 19.476 5.45817 19.7979 6.759L23.9829 18.9542C23.9829 18.3038 23.8219 17.4908 23.8219 16.8403C23.8219 12.6127 25.1097 9.03541 27.524 6.27116C30.0994 3.50691 33.4795 2.20609 37.5034 2.20609C41.5274 2.20609 44.9076 3.50692 47.4829 6.43377C49.2535 8.38501 50.5411 10.824 51.024 13.5883V8.38503C51.024 6.9216 51.1849 5.45817 51.9897 4.31995C52.7945 3.18173 54.0822 2.53131 55.5309 2.53131C56.9795 2.53131 58.1062 3.01913 59.072 4.31995C59.8768 5.45817 60.0377 6.759 60.0377 8.38503V18.1412C60.0377 20.0924 60.3596 21.3932 60.8425 22.0437C61.3254 22.6941 61.9692 23.0193 63.096 23.0193C64.2227 23.0193 65.0275 22.6941 65.3494 22.0437C65.8323 21.3932 66.3151 20.255 66.3151 18.1412V8.38503C66.3151 6.9216 66.637 5.45817 67.2808 4.31995C68.0856 3.18173 69.3733 2.53131 70.822 2.53131C72.2706 2.53131 73.5583 3.01913 74.3631 4.31995C75.1679 5.45817 75.3288 6.759 75.3288 8.38503V18.7916C75.3288 19.1168 75.3288 19.442 75.3288 19.9298L79.8357 7.57201C80.3186 6.10859 81.1233 4.97036 82.0891 4.15734C83.0548 3.34433 84.3425 2.85649 85.7911 2.85649C87.0788 2.85649 88.3665 3.18171 89.3322 3.99473C90.298 4.80774 91.1028 5.94596 91.4247 7.24679L97.2193 23.8323V8.54759C97.2193 7.08416 97.5412 5.62074 98.185 4.48252C98.9898 3.3443 100.277 2.69393 101.726 2.69393C103.175 2.69393 104.462 3.18169 105.267 4.48252C106.072 5.62074 106.233 6.92156 106.233 8.54759V22.5314H109.13C110.579 22.5314 112.027 22.6941 112.993 23.5071C113.315 23.8323 113.637 23.9949 113.959 24.3201L120.075 7.57201C120.558 6.10859 121.363 4.97036 122.329 4.15734C123.295 3.34433 124.582 2.85649 126.031 2.85649C127.319 2.85649 128.606 3.18171 129.572 3.99473C130.538 4.80774 131.343 5.94596 131.664 7.24679L136.976 22.5314V8.38503C136.976 6.9216 137.137 5.62075 137.942 4.64513C138.747 3.50691 140.034 3.0191 141.322 3.0191C142.127 3.0191 142.932 3.18169 143.736 3.6695C144.38 4.15731 145.024 4.80773 145.668 5.45814L152.911 15.0517V8.7102C152.911 7.24678 153.072 5.78335 153.877 4.64513C154.682 3.50691 155.969 2.85649 157.418 2.85649C158.867 2.85649 160.154 3.34431 160.959 4.64513C161.603 5.62075 161.925 6.92159 161.925 8.22241C162.086 6.92159 162.408 5.62075 163.212 4.64513C164.339 3.66951 165.788 3.34433 167.397 3.34433H171.904C173.514 3.34433 175.123 3.50691 176.411 3.83212C177.699 4.15732 178.986 4.64512 180.113 5.29553C182.045 6.43375 183.493 8.22239 184.459 10.3362C185.586 12.4501 186.069 14.7265 186.069 17.1656C185.425 19.9298 184.298 23.5071 181.723 26.1087ZM184.62 8.54759C183.493 6.27115 181.884 4.48254 179.952 3.18171C178.825 2.3687 177.377 1.88089 175.928 1.55569C174.48 1.23048 172.87 1.0679 171.26 1.0679H166.754C165.144 1.0679 163.212 1.3931 161.925 2.69393C161.764 2.85653 161.603 3.18172 161.281 3.34433C161.12 3.18172 161.12 3.01909 160.959 2.85649C159.832 1.39306 158.384 0.742672 156.613 0.742672C155.004 0.742672 153.394 1.39306 152.267 2.85649C151.302 4.15731 151.14 5.78337 151.14 7.4094V10.8241L145.668 3.50694C145.024 2.69393 144.38 1.88088 143.575 1.39307C142.61 0.905264 141.644 0.580059 140.678 0.580059C139.069 0.580059 137.62 1.2305 136.493 2.69393C135.688 3.99475 135.367 5.62075 135.367 7.08417V15.5395L131.986 5.62076C131.504 4.15733 130.699 2.85649 129.572 2.04347C128.445 1.06786 126.997 0.580059 125.387 0.580059C123.777 0.580059 122.329 1.06786 121.041 2.04347C119.914 3.01909 119.11 4.48256 118.466 5.94598L112.832 21.3933C111.545 20.5802 109.935 20.255 108.325 20.255H106.394V7.24679C106.394 5.62076 106.072 3.99475 105.267 2.69393C104.141 1.2305 102.692 0.580059 100.921 0.580059C99.3117 0.580059 97.7021 1.2305 96.5754 2.69393C95.6096 3.99475 95.4487 5.62076 95.4487 7.24679V16.8403L91.5857 5.62076C91.1028 4.15733 90.298 2.85649 89.1713 2.04347C88.0446 1.06786 86.5959 0.580059 84.9863 0.580059C83.3767 0.580059 81.9282 1.06786 80.6405 2.04347C79.5138 3.01909 78.709 4.48256 78.2261 5.94598L75.6507 13.1005V7.24679C75.6507 5.62076 75.3288 3.99475 74.524 2.69393C73.3973 1.2305 71.7878 0.580059 70.1782 0.580059C68.5686 0.580059 66.959 1.2305 65.8323 2.69393C64.8665 3.99475 64.7055 5.62076 64.7055 7.24679V17.003C64.7055 18.9542 64.3836 19.7672 64.0617 20.255C63.9007 20.5802 63.4179 20.9054 62.6131 20.9054C61.6473 20.9054 61.3254 20.5802 61.0035 20.255C60.6816 19.7672 60.3596 18.9542 60.3596 17.003V7.24679C60.3596 5.62076 60.0377 3.99475 59.2329 2.69393C58.1062 1.2305 56.6576 0.580059 54.8871 0.580059C53.2775 0.580059 51.6679 1.2305 50.5412 2.69393C49.7364 3.99475 49.4144 5.62075 49.4144 7.08417C48.9316 6.27116 48.2878 5.45814 47.6439 4.64513C44.9076 1.55568 41.2055 0.254883 37.0206 0.254883C32.8356 0.254883 29.1336 1.71828 26.3973 4.64513C24.3048 6.92157 23.1782 9.68582 22.6953 12.7753L20.1199 5.62076C19.637 4.15733 18.8322 2.85649 17.7055 2.04347C16.5788 1.06786 15.1302 0.580059 13.5206 0.580059C11.911 0.580059 10.4623 1.06786 9.3356 2.04347C8.20889 3.01909 7.40413 4.48256 6.7603 5.94598L0.482857 23.1818C0.321898 23.6697 0.161018 23.9949 0.161018 24.4827C0.161018 24.9705 0 25.2957 0 25.7835C0 27.2469 0.482916 28.5477 1.44867 29.686C2.41442 30.8242 3.863 31.312 5.31163 31.312C6.5993 31.312 7.88703 30.8242 8.69183 29.8486C9.49662 29.0356 10.1404 27.8974 10.4623 26.9217L10.6234 26.2713H15.774L15.935 26.5965C16.2569 27.7347 16.9008 28.873 17.8665 29.8486C18.8323 30.8242 20.1199 31.312 21.4075 31.312C22.8562 31.312 24.1439 30.8242 25.2706 29.8486C25.9144 29.1982 26.3973 28.3852 26.7193 27.5721C29.4556 30.3364 32.9966 31.6372 37.0206 31.6372C38.4692 31.6372 39.7569 31.4746 41.0445 31.1494C41.5274 30.9868 42.1713 30.8242 42.6541 30.6616L43.137 31.1494C43.7808 31.6372 44.4247 32.125 45.0685 32.4502C45.7124 32.7754 46.5172 32.938 47.4829 32.938C48.9315 32.938 50.0583 32.4502 51.024 31.4746C51.9898 30.499 52.4727 29.1982 52.4727 27.8974C52.4727 27.5722 52.4727 27.4096 52.4727 27.0844C52.6337 27.4096 52.9555 27.5722 53.1165 27.8974C55.5309 30.499 58.911 31.6372 62.774 31.6372C66.4761 31.6372 69.6952 30.499 72.1096 28.0599C72.4315 28.7103 72.7535 29.1982 73.2364 29.686C74.3631 30.8242 75.6508 31.312 77.0994 31.312C78.3871 31.312 79.6747 30.8242 80.4795 29.8486C81.2843 29.0356 81.9282 27.8974 82.2501 26.9217L82.411 26.2713H87.5617L87.7227 26.5965C88.0446 27.7347 88.6884 28.873 89.6542 29.8486C90.6199 30.8242 91.9076 31.312 93.1953 31.312C94.6439 31.312 95.9315 30.8242 97.0583 29.8486C97.2192 29.686 97.3803 29.5234 97.5412 29.5234C98.8289 30.8242 100.76 30.9868 102.37 30.9868H108.808C110.257 30.9868 112.028 30.8242 113.315 29.8486C113.476 29.8486 113.476 29.686 113.637 29.686C114.764 30.8242 116.051 31.312 117.5 31.312C118.788 31.312 120.075 30.8242 120.88 29.8486C121.685 29.0356 122.329 27.8974 122.651 26.9217L122.812 26.2713H127.963L128.123 26.5965C128.445 27.7347 129.089 28.873 130.055 29.8486C131.021 30.8242 132.308 31.312 133.596 31.312C135.045 31.312 136.332 30.8242 137.459 29.686C138.425 30.6616 139.873 31.1494 141.161 31.1494C142.771 31.1494 144.38 30.499 145.507 29.0356C146.473 27.7347 146.634 26.1087 146.634 24.4827V21.2306L151.945 28.2225C152.589 29.0356 153.394 29.8486 154.199 30.3364C155.164 30.9868 156.13 31.312 157.257 31.312C158.706 31.312 160.315 30.8242 161.281 29.3608C161.442 29.1982 161.442 29.0356 161.603 28.8729C161.764 29.0356 161.925 29.1982 162.086 29.3608C163.373 30.6616 165.305 30.8242 166.915 30.8242H171.904C176.089 30.8242 179.791 29.5234 182.527 26.5965C185.264 23.6697 186.391 19.9298 186.391 15.5395C186.391 13.2631 185.747 10.824 184.62 8.54759Z" fill="white"/>
<path d="M156.775 3.50685C155.809 3.50685 155.165 3.83202 154.682 4.48243C154.199 5.13284 154.038 6.10849 154.038 7.40931V18.9541L143.737 5.29544C143.254 4.64503 142.771 4.15723 142.288 3.83203C141.806 3.50682 141.323 3.34424 140.84 3.34424C140.035 3.34424 139.391 3.66945 138.908 4.31987C138.425 4.97028 138.264 5.94586 138.264 7.08408V24.4826C138.264 25.7834 138.425 26.759 138.908 27.4094C139.391 28.0599 140.035 28.3851 141.001 28.3851C141.967 28.3851 142.61 28.0599 143.093 27.4094C143.576 26.759 143.737 25.7834 143.737 24.4826V13.1004L153.717 26.4338C154.2 27.0842 154.843 27.7347 155.326 27.8973C155.809 28.2225 156.292 28.3851 156.936 28.3851C157.741 28.3851 158.384 28.0599 158.867 27.5721C159.35 27.0842 159.511 26.1086 159.511 24.9704V7.08408C159.511 5.78326 159.35 4.80766 158.867 4.15725C158.384 3.83205 157.74 3.50685 156.775 3.50685Z" fill="white"/>
<path d="M70.3397 3.50684C69.374 3.50684 68.7301 3.832 68.2473 4.48241C67.7644 5.13282 67.6034 6.10847 67.6034 7.40929V17.1655C67.6034 19.2793 67.1205 20.9053 66.3157 22.0436C65.5109 23.1818 64.2233 23.6696 62.6137 23.6696C61.0041 23.6696 59.7165 23.1818 58.9117 22.0436C58.1069 20.9053 57.6239 19.2793 57.6239 17.1655V7.40929C57.6239 6.10847 57.463 5.13282 56.9801 4.48241C56.4973 3.832 55.8534 3.50684 54.8877 3.50684C53.9219 3.50684 53.278 3.832 52.7951 4.48241C52.3123 5.13282 52.1514 6.10847 52.1514 7.40929V17.8159C52.1514 21.3931 53.1171 24.1574 54.8877 26.1086C56.6582 28.0599 59.2336 29.0355 62.6137 29.0355C65.8329 29.0355 68.4082 28.0599 70.3397 26.1086C72.1103 24.1574 73.076 21.3931 73.076 17.8159V7.40929C73.076 6.10847 72.915 5.13282 72.4322 4.48241C71.9493 3.832 71.3055 3.50684 70.3397 3.50684Z" fill="white"/>
<path d="M82.0896 18.6289L85.1478 9.52313L87.8841 18.6289H82.0896ZM95.4491 24.32L89.3327 6.5963C89.0108 5.45808 88.367 4.80766 87.7231 4.15725C87.0793 3.66944 86.2745 3.34424 85.3087 3.34424C84.343 3.34424 83.3773 3.66944 82.7334 4.15725C82.0896 4.80766 81.4457 5.62065 80.9628 6.92147L74.6855 24.32C74.5245 24.4826 74.5245 24.8078 74.5245 25.133C74.5245 25.4582 74.5245 25.6208 74.5245 25.946C74.5245 26.759 74.8464 27.4095 75.3293 27.8973C75.8121 28.3851 76.456 28.7103 77.2608 28.7103C77.9046 28.7103 78.3875 28.5477 78.8704 28.0598C79.3533 27.572 79.6752 26.9217 79.9971 26.1086L80.8019 23.6696H89.8156L90.4595 25.946C90.7814 26.9216 91.1033 27.572 91.5862 28.0598C92.0691 28.5477 92.7129 28.7103 93.3567 28.7103C94.1615 28.7103 94.8053 28.5477 95.2882 27.8973C95.7711 27.4095 96.093 26.759 96.093 25.946C96.093 25.7834 96.0931 25.4582 95.9321 25.133C95.7711 24.9704 95.6101 24.6452 95.4491 24.32Z" fill="white"/>
<path d="M111.706 23.8322C111.062 23.3444 110.096 23.1817 108.648 23.1817H103.98V7.4093C103.98 6.10847 103.819 5.13283 103.336 4.48241C102.853 3.832 102.209 3.50684 101.244 3.50684C100.278 3.50684 99.634 3.832 99.1511 4.48241C98.6682 5.13283 98.5072 6.10847 98.5072 7.4093V24.8078C98.5072 26.1086 98.8291 27.0842 99.312 27.572C99.7949 28.0599 100.761 28.3851 102.209 28.3851H108.648C109.935 28.3851 110.901 28.2225 111.706 27.7347C112.35 27.2468 112.672 26.5964 112.672 25.7834C112.672 24.8078 112.35 24.32 111.706 23.8322Z" fill="white"/>
<path d="M143.575 40.7431H142.288V37.9789H143.575C144.058 37.9789 144.541 38.1415 144.863 38.3041C145.185 38.4667 145.346 38.9545 145.346 39.2797C145.346 39.7675 145.185 40.0927 144.863 40.4179C144.541 40.5805 144.219 40.7431 143.575 40.7431ZM147.438 44.483L145.346 42.2065C146.151 42.0439 146.956 41.7187 147.438 41.0683C147.921 40.5805 148.243 39.7675 148.243 38.9545C148.243 37.8163 147.921 37.0032 147.116 36.3528C146.312 35.7024 145.185 35.3772 143.897 35.3772H141.805C141.161 35.3772 140.678 35.5398 140.356 35.7024C140.034 36.0276 140.034 36.5154 140.034 37.1658V45.296C140.034 45.9464 140.195 46.4342 140.356 46.7594C140.517 47.0846 140.839 47.2472 141.322 47.2472C141.805 47.2472 142.127 47.0846 142.288 46.7594C142.449 46.4342 142.61 45.9464 142.61 45.296V42.3692L145.668 46.2716C145.99 46.5968 146.151 46.922 146.473 47.0846C146.634 47.2472 146.955 47.2472 147.116 47.2472C147.438 47.2472 147.76 47.0846 148.082 46.922C148.404 46.7594 148.404 46.4342 148.404 46.109C148.404 45.9464 148.404 45.6212 148.243 45.4586C147.76 45.1334 147.599 44.8082 147.438 44.483Z" fill="white"/>
<path d="M136.494 40.0927H134.562C133.918 40.0927 133.435 40.2553 133.113 40.4179C132.792 40.5805 132.63 40.9057 132.63 41.3935C132.63 41.8813 132.792 42.2065 133.113 42.3691C133.435 42.5317 133.918 42.6943 134.562 42.6943H135.528C135.528 43.3447 135.367 43.9951 134.884 44.4829C134.401 44.9707 133.918 45.1333 133.274 45.1333C132.47 45.1333 131.665 44.8082 131.182 44.1578C130.699 43.5073 130.377 42.5317 130.377 41.3935C130.377 40.2553 130.699 39.4422 131.182 38.7918C131.665 38.1414 132.47 37.8162 133.274 37.8162C133.918 37.8162 134.562 37.9788 135.206 38.304C135.85 38.6292 136.333 38.7918 136.494 38.7918C136.815 38.7918 137.137 38.6293 137.298 38.4667C137.459 38.1414 137.62 37.9788 137.62 37.6536C137.62 37.0032 137.137 36.5154 136.333 36.0276C135.528 35.5398 134.562 35.2146 133.274 35.2146C131.504 35.2146 130.055 35.7024 129.089 36.8406C127.963 37.9788 127.48 39.4423 127.48 41.3935C127.48 43.1821 127.963 44.6455 129.089 45.9463C130.055 47.0846 131.504 47.735 133.113 47.735C134.723 47.735 136.011 47.2472 136.976 46.109C137.942 45.1333 138.425 43.6699 138.425 42.0439C138.425 41.3935 138.264 40.9057 137.942 40.7431C137.62 40.0927 137.137 40.0927 136.494 40.0927Z" fill="white"/>
<path d="M178.826 40.5805C178.504 40.9057 178.021 40.9057 177.538 40.9057H176.412V37.8162H177.538C178.182 37.8162 178.665 37.9789 178.826 38.1415C179.148 38.4667 179.309 38.7919 179.309 39.2797C179.309 39.9301 179.148 40.2553 178.826 40.5805ZM177.86 35.3772H175.446C174.802 35.3772 174.319 35.5398 173.997 35.7024C173.675 36.0276 173.514 36.5154 173.514 37.1658V45.296C173.514 45.9464 173.675 46.4342 173.836 46.7594C173.997 47.0846 174.319 47.2472 174.802 47.2472C175.285 47.2472 175.607 47.0846 175.768 46.7594C175.929 46.4342 176.09 45.9464 176.09 45.296V43.3448H177.86C179.148 43.3448 180.114 43.0196 180.757 42.3692C181.401 41.7187 181.884 40.7431 181.884 39.4423C181.884 38.1414 181.562 37.3285 180.757 36.5154C180.275 35.7024 179.309 35.3772 177.86 35.3772Z" fill="white"/>
<path d="M170.295 35.2146C169.812 35.2146 169.491 35.3772 169.33 35.7024C169.169 36.0276 169.008 36.5154 169.008 37.1658V41.7187C169.008 42.6943 168.847 43.5073 168.364 43.9951C168.042 44.4829 167.398 44.8082 166.593 44.8082C165.789 44.8082 165.306 44.4829 164.823 43.9951C164.501 43.5073 164.179 42.6943 164.179 41.7187V37.1658C164.179 36.5154 164.018 36.0276 163.857 35.7024C163.696 35.3772 163.374 35.2146 162.891 35.2146C162.408 35.2146 162.086 35.3772 161.925 35.7024C161.765 36.0276 161.603 36.5154 161.603 37.1658V42.0439C161.603 43.6699 162.086 45.1333 162.891 45.9463C163.696 46.922 164.984 47.4098 166.593 47.4098C168.203 47.4098 169.33 46.922 170.295 45.9463C171.1 44.9707 171.583 43.6699 171.583 42.0439V37.1658C171.583 36.5154 171.422 36.0276 171.261 35.7024C171.1 35.3772 170.778 35.2146 170.295 35.2146Z" fill="white"/>
<path d="M156.614 43.8323C156.131 44.4827 155.487 44.8079 154.521 44.8079C153.717 44.8079 152.912 44.4827 152.429 43.8323C151.946 43.1819 151.624 42.3689 151.624 41.2306C151.624 40.0924 151.946 39.2794 152.429 38.4664C152.912 37.816 153.556 37.4908 154.521 37.4908C155.326 37.4908 156.131 37.816 156.614 38.4664C157.097 39.1168 157.419 40.0924 157.419 41.2306C157.419 42.3689 157.097 43.1819 156.614 43.8323ZM154.521 35.0518C152.751 35.0518 151.463 35.5396 150.336 36.6778C149.371 37.816 148.727 39.2794 148.727 41.2306C148.727 43.0193 149.21 44.6453 150.336 45.7836C151.302 46.9218 152.751 47.4096 154.521 47.4096C156.292 47.4096 157.58 46.9218 158.706 45.7836C159.672 44.6453 160.316 43.1819 160.316 41.2306C160.316 39.442 159.833 37.9786 158.706 36.8404C157.741 35.5396 156.292 35.0518 154.521 35.0518Z" fill="white"/>
<path d="M107.682 44.3207C102.532 42.8573 97.5418 42.8573 92.3911 44.3207C87.4014 45.6215 82.2507 45.6215 77.1 44.3207C71.9493 42.8573 66.9596 42.8573 61.8089 44.3207C56.8192 45.6215 51.6685 45.6215 46.5178 44.3207C41.3671 42.8573 36.3774 42.8573 31.2267 44.3207C26.237 45.6215 21.0863 45.6215 15.9356 44.3207C10.7849 42.8573 5.79516 42.8573 0.64447 44.3207V46.4346C5.95612 45.1338 10.9458 45.1338 15.9356 46.4346C21.2472 47.898 26.237 47.898 31.2267 46.4346C36.5383 45.1338 41.5281 45.1338 46.5178 46.4346C51.8294 47.898 56.8192 47.898 61.8089 46.4346C67.1205 45.1338 72.1103 45.1338 77.1 46.4346C82.4116 47.898 87.4014 47.898 92.3911 46.4346C97.7028 45.1338 102.692 45.1338 107.682 46.4346C112.994 47.898 117.983 47.898 122.973 46.4346V44.3207C117.983 45.6215 112.833 45.6215 107.682 44.3207Z" fill="white"/>
<path d="M107.682 40.0929C102.532 38.6295 97.5418 38.6295 92.3911 40.0929C87.4014 41.3938 82.2507 41.3938 77.1 40.0929C71.9493 38.6295 66.9596 38.6295 61.8089 40.0929C56.8192 41.3938 51.6685 41.3938 46.5178 40.0929C41.3671 38.6295 36.3774 38.6295 31.2267 40.0929C26.237 41.3938 21.0863 41.3938 15.9356 40.0929C10.7849 38.6295 5.79516 38.6295 0.64447 40.0929V42.2067C5.95612 40.9059 10.9458 40.9059 15.9356 42.2067C21.2472 43.6702 26.237 43.6702 31.2267 42.2067C36.5383 40.9059 41.5281 40.9059 46.5178 42.2067C51.8294 43.6702 56.8192 43.6702 61.8089 42.2067C67.1205 40.9059 72.1103 40.9059 77.1 42.2067C82.4116 43.6702 87.4014 43.6702 92.3911 42.2067C97.7028 40.9059 102.692 40.9059 107.682 42.2067C112.994 43.6702 117.983 43.6702 122.973 42.2067V40.0929C117.983 41.5564 112.833 41.5564 107.682 40.0929Z" fill="white"/>
<path d="M107.682 35.8651C102.532 34.4017 97.5418 34.4017 92.3911 35.8651C87.4014 37.166 82.2507 37.166 77.1 35.8651C71.9493 34.4017 66.9596 34.4017 61.8089 35.8651C56.8192 37.166 51.6685 37.166 46.5178 35.8651C41.3671 34.4017 36.3774 34.4017 31.2267 35.8651C26.237 37.166 21.0863 37.166 15.9356 35.8651C10.7849 34.4017 5.79516 34.4017 0.64447 35.8651V37.979C5.95612 36.6781 10.9458 36.6781 15.9356 37.979C21.2472 39.4424 26.237 39.4424 31.2267 37.979C36.5383 36.6781 41.5281 36.6781 46.5178 37.979C51.8294 39.4424 56.8192 39.4424 61.8089 37.979C67.1205 36.6781 72.1103 36.6781 77.1 37.979C82.4116 39.4424 87.4014 39.4424 92.3911 37.979C97.7028 36.6781 102.692 36.6781 107.682 37.979C112.994 39.4424 117.983 39.4424 122.973 37.979V35.8651C117.983 37.3286 112.833 37.3286 107.682 35.8651Z" fill="white"/>
</svg>
