<svg width="28" height="28" viewBox="0 0 28 28" fill="none" xmlns="http://www.w3.org/2000/svg">
<g clip-path="url(#clip0)">
<path d="M3.9541 14.549L23.2879 27.8827C23.4926 28.0233 23.7579 28.038 23.9766 27.924C24.1959 27.8087 24.3333 27.582 24.3333 27.334L24.3333 0.666695C24.3333 0.41869 24.1959 0.191351 23.9766 0.0760155C23.8792 0.0253487 23.7726 1.14441e-05 23.6666 1.14441e-05C23.5339 1.14441e-05 23.4019 0.0400143 23.2879 0.118017L3.9541 13.4517C3.77343 13.5763 3.66609 13.781 3.66609 14.0003C3.66609 14.2197 3.77409 14.4244 3.9541 14.549Z" fill="white"/>
</g>
<defs>
<clipPath id="clip0">
<rect width="28" height="28" fill="white" transform="translate(28 28) rotate(-180)"/>
</clipPath>
</defs>
</svg>
