<svg width="88" height="88" viewBox="0 0 88 88" fill="none" xmlns="http://www.w3.org/2000/svg">
<path d="M86.6787 14.195C87.3907 14.195 87.9677 13.6178 87.9677 12.9059V5.1963C87.9677 4.48439 87.3907 3.90723 86.6787 3.90723H22.0922C20.449 1.54808 17.7188 0 14.6323 0C9.62177 0 5.54524 4.0767 5.54524 9.08772V16.6719C5.54524 18.3308 8.12337 18.3336 8.12337 16.6719V9.08772C8.12337 5.76761 10.7364 2.90778 14.0415 2.60769C17.7932 2.26686 21.1413 5.36852 21.1413 9.08772V33.7973C21.1413 34.2107 21.3395 34.599 21.6743 34.8413C24.7923 37.0994 26.6537 40.7421 26.6537 44.5852C26.6537 47.8285 25.382 50.8688 23.0725 53.1463C20.7641 55.423 17.7004 56.6498 14.4609 56.6067C8.00082 56.5168 2.68524 51.1871 2.61168 44.7258C2.56733 40.8263 4.42857 37.1312 7.59055 34.8415C7.92519 34.599 8.12354 34.2109 8.12354 33.7975V24.0625C8.12354 22.4036 5.54541 22.4008 5.54541 24.0625V33.1583C2.03143 35.9575 -0.0173217 40.2435 0.0338971 44.7552C0.0775533 48.5674 1.59521 52.1648 4.30757 54.8847C6.12085 56.7028 8.32858 57.9844 10.7311 58.6527V77.7124H7.92949C7.21741 77.7124 6.64043 78.2896 6.64043 79.0015V86.7109C6.64043 87.4228 7.21741 88 7.92949 88H69.2985C70.9574 88 70.9602 85.4219 69.2985 85.4219H9.21855V80.2904H85.3896V85.4219H77.0329C75.3739 85.4219 75.3712 88 77.0329 88H86.6787C87.3907 88 87.9677 87.4228 87.9677 86.7109V79.0013C87.9677 78.2894 87.3907 77.7123 86.6787 77.7123H83.8773V14.195H86.6787ZM60.7187 77.6079V57.1617C61.2204 57.1617 70.8454 57.1617 71.1748 57.1617V77.6079H60.7187ZM80.9844 23.9632V54.5835H54.702V23.9632H80.9844ZM81.2991 57.1617V77.6079H73.753V57.1617C74.111 57.1617 81.2991 57.1617 81.2991 57.1617ZM81.2991 21.385H73.753V14.3655H81.2991V21.385V21.385ZM71.1748 21.385H60.7187V14.3655H71.1748V21.385ZM45.1064 21.5213H34.6502V14.3655H45.1064V21.5213ZM23.7195 14.3655H32.0721V21.5215H23.7195V14.3655ZM85.3896 6.48536V11.6169H23.7195V9.08772C23.7195 8.18348 23.5849 7.31036 23.3379 6.48536H85.3896V6.48536ZM29.2318 44.5854C29.2318 40.3619 27.3802 36.3392 24.2234 33.5808V24.0995H44.9907V48.2969C44.9907 49.9558 47.5688 49.9586 47.5688 48.2969V14.3655H58.1405V21.385H53.4129C52.7009 21.385 52.1239 21.9622 52.1239 22.6741V55.8726C52.1239 56.5845 52.7009 57.1617 53.4129 57.1617C53.4129 57.1617 57.611 57.1617 58.1405 57.1617V77.6079H47.5688V56.375C47.5688 54.7161 44.9907 54.7133 44.9907 56.375V77.6079H24.2234V55.5902C27.3888 52.8227 29.2318 48.7931 29.2318 44.5854ZM14.425 59.1845C14.4949 59.1855 14.5647 59.186 14.6345 59.186C17.1257 59.186 19.5195 58.5635 21.6453 57.3951V77.6079H13.309V59.1223C13.6787 59.1558 14.0505 59.1793 14.425 59.1845Z" fill="black"/>
<path d="M12.5929 28.7214C10.9339 28.7214 10.9312 31.2995 12.5929 31.2995H13.3431V41.8992C12.2739 42.3899 11.5279 43.4683 11.5279 44.7197C11.5279 46.4314 12.9205 47.8239 14.6322 47.8239C16.3439 47.8239 17.7364 46.4314 17.7364 44.7197C17.7364 43.4683 16.9905 42.3899 15.9212 41.8992V31.2995H16.6716C18.3306 31.2995 18.3333 28.7214 16.6716 28.7214H15.9212V22.6126H16.6716C18.3306 22.6126 18.3333 20.0345 16.6716 20.0345H15.9212V13.9257H16.6716C18.3306 13.9257 18.3333 11.3476 16.6716 11.3476H15.9212V9.08776C15.9212 7.42883 13.3431 7.42608 13.3431 9.08776V11.3476H12.5929C10.9339 11.3476 10.9312 13.9257 12.5929 13.9257H13.3431V20.0345H12.5929C11.6163 20.0345 10.9857 21.1298 11.4798 21.9741C11.8904 22.6757 12.6449 22.6126 13.3431 22.6126V28.7214H12.5929Z" fill="black"/>
</svg>
