<svg width="88" height="88" viewBox="0 0 88 88" fill="none" xmlns="http://www.w3.org/2000/svg">
<path d="M86.4943 42.6614H79.0494C82.1445 35.6347 81.8099 29.9465 80.6388 26.0986C78.6312 19.2393 71.8555 11.7944 61.8175 11.7944C59.1407 11.7944 56.4639 12.2963 53.7034 13.3001C48.9354 15.0568 45.7567 16.9807 44.3346 17.9845C42.9125 16.9807 39.8175 15.0568 34.9658 13.3001C32.2053 12.2963 29.4449 11.7944 26.8517 11.7944C16.8137 11.7944 10.038 19.2393 8.03042 26.0986C6.85932 30.1975 6.44106 36.3876 10.3726 44.1671H1.3384C0.585551 44.1671 0 44.7526 0 45.5055C0 46.2583 0.585551 46.8439 1.3384 46.8439H11.962C12.3802 47.5967 12.8821 48.3496 13.4677 49.1024C22.1673 61.6499 41.0722 75.2849 44.5019 76.1214V76.2051C44.5019 76.2051 44.5856 76.2051 44.6692 76.1214C44.7529 76.1214 44.8365 76.1214 44.9202 76.1214V76.0378C47.8479 74.6157 66 62.9047 75.5361 49.0188C76.4563 47.764 77.2091 46.5093 77.8783 45.2545H86.6616C87.4144 45.2545 88 44.669 88 43.9161C88 43.1633 87.2471 42.6614 86.4943 42.6614ZM73.1103 47.5967C64.2433 60.5625 47.9316 71.0188 44.4182 73.2773C40.8213 71.0188 24.5932 60.4788 15.6426 47.5967C15.4753 47.3458 15.308 47.0948 15.1407 46.8439H27.4373C27.9392 46.8439 28.4411 46.5929 28.692 46.091L34.2966 35.0492L43.0798 57.5511C43.2471 58.053 43.8327 58.3876 44.3346 58.3876C44.3346 58.3876 44.3346 58.3876 44.4182 58.3876C45.0038 58.3876 45.5057 57.9693 45.673 57.3838L53.3688 31.034L57.4677 44.3344C57.635 44.8363 58.0532 45.1709 58.5551 45.2545C59.057 45.3382 59.5589 45.0872 59.8935 44.669L63.1559 39.9009L65.9164 44.5853C66.1673 45.0036 66.5855 45.2545 67.0874 45.2545H74.616C74.1141 46.091 73.6122 46.8439 73.1103 47.5967ZM76.1217 42.6614H67.924L64.4943 36.8058C64.2433 36.3876 63.8251 36.1366 63.3232 36.1366C62.8213 36.1366 62.403 36.3039 62.1521 36.7222L59.308 40.9047L54.7072 25.9313C54.5399 25.3458 53.9544 25.0112 53.3688 24.9275C52.7833 24.9275 52.1977 25.3458 52.0304 25.9313L44.251 52.783L35.8023 31.2013C35.635 30.6994 35.1331 30.3648 34.6312 30.3648C34.0456 30.3648 33.6274 30.6157 33.3764 31.1176L26.7681 44.0834H13.4677C10.1217 37.9769 9.20152 32.1214 10.7072 26.8515C12.4639 20.9123 18.2357 14.5549 26.9354 14.5549C29.2776 14.5549 31.7034 15.0568 34.1293 15.8933C40.2357 18.1518 43.4981 20.745 43.5817 20.745C44.0836 21.1633 44.7529 21.1633 45.2548 20.745C45.2548 20.745 48.5171 18.1518 54.7072 15.8933C57.1331 14.9731 59.5589 14.5549 61.9011 14.5549C70.5171 14.5549 76.3726 20.9123 78.1293 26.8515C79.5513 31.7032 78.7985 37.0568 76.1217 42.6614Z" fill="black"/>
</svg>
