<svg width="88" height="88" viewBox="0 0 88 88" fill="none" xmlns="http://www.w3.org/2000/svg">
<g clip-path="url(#clip0)">
<path d="M43.9913 43.2899C48.3652 43.2899 48.988 40.5626 49.01 40.4464C49.0675 40.1723 49.0276 39.8868 48.8972 39.639C48.7668 39.3911 48.5541 39.1965 48.2957 39.0886L46.3102 38.2602C45.5703 37.9477 44.7382 37.9342 43.9885 38.2223C43.2391 37.9347 42.4074 37.948 41.6675 38.2595L39.6813 39.0886C39.4229 39.1965 39.2102 39.3911 39.0798 39.639C38.9495 39.8868 38.9096 40.1723 38.967 40.4464C38.9945 40.5626 39.616 43.2899 43.9913 43.2899V43.2899Z" fill="black"/>
<path d="M44.1627 36.7126H45.5081C45.8272 36.7126 46.1332 36.5859 46.3589 36.3602C46.5845 36.1346 46.7113 35.8286 46.7113 35.5095C46.7113 35.1904 46.5845 34.8844 46.3589 34.6588C46.1332 34.4331 45.8272 34.3064 45.5081 34.3064H44.2184L44.6996 31.1384C44.7473 30.8229 44.6677 30.5013 44.4783 30.2445C44.2889 29.9876 44.0052 29.8166 43.6897 29.7689C43.3742 29.7212 43.0526 29.8008 42.7958 29.9902C42.5389 30.1796 42.3679 30.4633 42.3202 30.7788L41.8321 34.0011C41.7814 34.3367 41.8038 34.6793 41.8976 35.0055C41.9915 35.3317 42.1546 35.6338 42.3758 35.8911C42.597 36.1485 42.8712 36.3552 43.1796 36.4969C43.488 36.6387 43.8233 36.7123 44.1627 36.7126V36.7126Z" fill="black"/>
<path d="M72.8116 48.9838C72.8116 49.3029 72.9384 49.6089 73.164 49.8346C73.3897 50.0602 73.6957 50.1869 74.0148 50.1869C74.3339 50.1869 74.6399 50.0602 74.8655 49.8346C75.0911 49.6089 75.2179 49.3029 75.2179 48.9838C75.1957 47.7907 75.6079 46.6301 76.3777 45.7182C77.4091 44.3911 77.9689 42.7583 77.9689 41.0776C77.9689 39.3969 77.4091 37.764 76.3777 36.4369C75.6268 35.5143 75.2168 34.361 75.2168 33.1713C75.2168 31.9817 75.6268 30.8284 76.3777 29.9057C77.4331 28.5929 77.9957 26.952 77.9679 25.2678C77.9679 24.9487 77.8411 24.6427 77.6155 24.4171C77.3899 24.1915 77.0838 24.0647 76.7648 24.0647C76.4457 24.0647 76.1397 24.1915 75.914 24.4171C75.6884 24.6427 75.5616 24.9487 75.5616 25.2678C75.5838 26.4602 75.1716 27.6199 74.4018 28.5307C73.371 29.8571 72.8114 31.4891 72.8114 33.1689C72.8114 34.8488 73.371 36.4808 74.4018 37.8071C75.1517 38.7303 75.561 39.8834 75.561 41.0728C75.561 42.2621 75.1517 43.4152 74.4018 44.3384C73.3449 45.6533 72.7823 47.297 72.8116 48.9838Z" fill="black"/>
<path d="M87.96 32.1484C87.96 31.8293 87.8332 31.5233 87.6076 31.2977C87.382 31.0721 87.0759 30.9453 86.7569 30.9453C86.4378 30.9453 86.1317 31.0721 85.9061 31.2977C85.6805 31.5233 85.5537 31.8293 85.5537 32.1484C85.5759 33.3408 85.1637 34.5005 84.3939 35.4113C83.3631 36.7377 82.8034 38.3697 82.8034 40.0495C82.8034 41.7294 83.3631 43.3614 84.3939 44.6877C85.1438 45.6109 85.5531 46.764 85.5531 47.9534C85.5531 49.1427 85.1438 50.2958 84.3939 51.219C83.3384 52.5323 82.7758 54.1736 82.8037 55.8582C82.8037 56.1773 82.9305 56.4834 83.1561 56.709C83.3817 56.9346 83.6878 57.0614 84.0069 57.0614C84.3259 57.0614 84.632 56.9346 84.8576 56.709C85.0832 56.4834 85.21 56.1773 85.21 55.8582C85.1878 54.6651 85.6 53.5045 86.3698 52.5926C87.4011 51.2655 87.961 49.6327 87.961 47.952C87.961 46.2713 87.4011 44.6385 86.3698 43.3114C85.6188 42.3887 85.2089 41.2354 85.2089 40.0457C85.2089 38.8561 85.6188 37.7028 86.3698 36.7801C87.4238 35.469 87.9864 33.8305 87.96 32.1484V32.1484Z" fill="black"/>
<path d="M10.0142 41.0791C9.98629 42.764 10.5491 44.4056 11.605 45.719C12.3748 46.6309 12.787 47.7915 12.7649 48.9846C12.7649 49.3037 12.8916 49.6097 13.1172 49.8354C13.3429 50.061 13.6489 50.1877 13.968 50.1877C14.2871 50.1877 14.5931 50.061 14.8187 49.8354C15.0444 49.6097 15.1711 49.3037 15.1711 48.9846C15.1992 47.2994 14.6363 45.6576 13.5802 44.344C12.8304 43.4208 12.4211 42.2677 12.4211 41.0784C12.4211 39.889 12.8304 38.7359 13.5802 37.8127C14.6111 36.4864 15.1707 34.8544 15.1707 33.1745C15.1707 31.4947 14.6111 29.8627 13.5802 28.5363C12.8105 27.6255 12.3983 26.4658 12.4204 25.2734C12.4204 24.9543 12.2937 24.6483 12.068 24.4227C11.8424 24.1971 11.5364 24.0703 11.2173 24.0703C10.8982 24.0703 10.5922 24.1971 10.3666 24.4227C10.1409 24.6483 10.0142 24.9543 10.0142 25.2734C9.98634 26.9577 10.5489 28.5985 11.6044 29.9113C12.3553 30.834 12.7653 31.9873 12.7653 33.1769C12.7653 34.3666 12.3553 35.5199 11.6044 36.4426C10.5498 37.7553 9.98725 39.3954 10.0142 41.0791V41.0791Z" fill="black"/>
<path d="M0.022473 47.9541C-0.0054141 49.639 0.557427 51.2806 1.61335 52.594C2.38312 53.5059 2.7953 54.6665 2.77316 55.8596C2.77316 56.1787 2.89992 56.4847 3.12555 56.7104C3.35118 56.936 3.6572 57.0627 3.97629 57.0627C4.29537 57.0627 4.60139 56.936 4.82702 56.7104C5.05265 56.4847 5.17941 56.1787 5.17941 55.8596C5.20746 54.1744 4.64461 52.5326 3.58854 51.219C2.83869 50.2958 2.42938 49.1427 2.42938 47.9534C2.42938 46.764 2.83869 45.6109 3.58854 44.6877C4.64421 43.3745 5.20682 41.7332 5.17872 40.0485C5.20657 38.3645 4.64396 36.7239 3.58854 35.4113C2.81879 34.5005 2.40656 33.3408 2.42872 32.1484C2.42872 31.8293 2.30197 31.5233 2.07634 31.2977C1.85071 31.0721 1.54469 30.9453 1.2256 30.9453C0.906509 30.9453 0.60049 31.0721 0.37486 31.2977C0.14923 31.5233 0.022473 31.8293 0.022473 32.1484C-0.00535746 33.8327 0.557236 35.4735 1.61266 36.7863C2.38231 37.6969 2.79453 38.8564 2.77247 40.0485C2.79447 41.2411 2.38256 42.4011 1.61335 43.3127C0.557433 44.6267 -0.00538748 46.2687 0.022473 47.9541V47.9541Z" fill="black"/>
<path d="M68.3509 59.6545L58.1002 58.6439C57.2867 58.5681 56.5235 58.2166 55.9371 57.6477C55.3507 57.0788 54.9763 56.3266 54.8759 55.5157L54.209 50.3182C56.2764 48.6521 57.9029 46.5038 58.9459 44.062C61.2405 42.0275 63.1339 39.5814 64.5284 36.8501C65.4873 36.3545 66.2919 35.6052 66.8543 34.6839C67.4168 33.7626 67.7157 32.7046 67.7184 31.6251C67.718 30.7046 67.4988 29.7974 67.079 28.9782C67.2916 27.6296 67.3997 26.2666 67.4021 24.9014C67.4219 21.0633 66.5782 17.27 64.9335 13.8022C63.2889 10.3344 60.8853 7.28083 57.9009 4.86761C54.7428 2.37746 50.9749 0.779547 46.9896 0.240265C43.0042 -0.299017 38.9471 0.24006 35.2409 1.80136C32.1495 3.17801 29.3774 5.18135 27.1002 7.6846C24.823 10.1879 23.0901 13.1365 22.0113 16.344C20.6209 20.4005 20.2417 24.7351 20.9065 28.9714C20.2013 30.3546 20.0739 31.9612 20.5521 33.4383C21.0303 34.9155 22.0751 36.1425 23.4571 36.8501C24.8516 39.5814 26.745 42.0275 29.0396 44.062C30.0824 46.502 31.7063 48.6498 33.7696 50.3182L33.1096 55.5157C33.0067 56.3267 32.6305 57.0784 32.0432 57.6471C31.4558 58.2157 30.6923 58.5672 29.8784 58.6439L19.6277 59.6545C15.5165 60.0469 11.7 61.9606 8.92625 65.0205C6.15252 68.0803 4.62154 72.0658 4.63337 76.1957V86.797C4.63301 86.9551 4.66388 87.1117 4.72421 87.2578C4.78455 87.404 4.87315 87.5367 4.98495 87.6485C5.09674 87.7603 5.22952 87.8489 5.37565 87.9093C5.52178 87.9696 5.6784 88.0005 5.83649 88.0001H82.149C82.3071 88.0005 82.4637 87.9696 82.6098 87.9093C82.756 87.8489 82.8888 87.7603 83.0005 87.6485C83.1123 87.5367 83.2009 87.404 83.2613 87.2578C83.3216 87.1117 83.3525 86.9551 83.3521 86.797V76.1957C83.3638 72.0647 81.8319 68.0784 79.0567 65.0183C76.2815 61.9583 72.4634 60.0453 68.3509 59.6545V59.6545ZM59.9909 27.9951C57.5951 27.4992 55.3782 26.3644 53.5748 24.7112C51.7714 23.0579 50.4488 20.9476 49.7471 18.6039C51.2698 19.7607 52.8709 20.8105 54.539 21.7457C57.5846 23.4301 59.1727 25.0114 59.984 26.1045C60.0046 26.737 59.9909 27.3695 59.9909 27.9951ZM60.3552 39.0089L60.7059 37.4001C60.7815 37.4139 60.864 37.4207 60.9465 37.4345C61.0565 37.4482 61.1665 37.4689 61.2765 37.4757L61.4002 37.4964C61.0702 38.0189 60.7196 38.5207 60.3552 39.0089V39.0089ZM62.5484 35.0282C62.1111 35.1187 61.6605 35.1234 61.2215 35.042C61.7165 32.787 62.349 30.5182 62.3971 28.2014C63.208 28.3383 63.9447 28.7565 64.4778 29.3827C65.0109 30.0088 65.3063 30.8028 65.3121 31.6251C65.3093 32.4227 65.0335 33.1952 64.5307 33.8143C64.0279 34.4334 63.3284 34.8618 62.5484 35.0282V35.0282ZM57.9077 8.05761C60.162 10.2436 61.9518 12.8623 63.1697 15.7566C64.3877 18.6509 65.0088 21.7613 64.9959 24.9014C64.9959 25.472 64.9752 26.0426 64.934 26.6201C64.3531 26.2638 63.7163 26.0081 63.0502 25.8639C62.8302 25.8226 62.6171 25.7882 62.3902 25.7676C62.5415 25.7676 61.8059 24.5232 61.7027 24.3926C61.3455 23.9485 60.9622 23.526 60.5546 23.1276C59.3577 21.9942 58.0361 21.0001 56.6152 20.1645C53.3022 18.2677 50.2042 16.0179 47.3752 13.4545C51.074 12.4714 56.1752 12.1345 57.9077 8.05761V8.05761ZM36.1484 4.02886C36.163 4.02743 36.1771 4.02273 36.1896 4.01511C37.8075 3.31818 39.5117 2.84183 41.2565 2.59886C41.5384 2.55761 41.8271 2.52323 42.1159 2.50261C42.3782 2.46832 42.6421 2.44766 42.9065 2.44073C42.9633 2.43171 43.021 2.4294 43.0784 2.43386C43.3809 2.41323 43.6902 2.40636 43.9927 2.40636H43.9996C48.2899 2.40759 52.4646 3.79675 55.9002 6.36636C55.3296 9.72136 50.7371 10.2232 48.1177 10.8007C39.3521 12.7257 31.3702 18.4801 26.1865 25.7401C25.0799 25.7354 23.994 26.0402 23.0515 26.6201C23.0102 26.0426 22.9896 25.472 22.9896 24.9014C22.9896 15.7026 28.2352 7.43886 36.1484 4.02886V4.02886ZM46.4265 15.8607C42.5971 23.0039 33.7765 25.0114 29.3696 25.5682C33.4258 20.5203 38.7395 16.6293 44.7765 14.2864C45.3127 14.8295 45.8627 15.352 46.4265 15.8607V15.8607ZM25.4371 35.0282C24.6566 34.8629 23.9564 34.4348 23.4534 33.8154C22.9504 33.1961 22.6751 32.423 22.6734 31.6251C22.673 30.9923 22.8466 30.3715 23.1752 29.8307C23.4375 29.4023 23.7886 29.0352 24.2049 28.7541C24.6212 28.473 25.093 28.2845 25.5884 28.2014C25.6089 29.2651 25.7333 30.3243 25.9596 31.3639L26.764 35.042C26.325 35.1234 25.8743 35.1187 25.4371 35.0282V35.0282ZM26.5852 37.4964L26.709 37.4757C26.819 37.4689 26.929 37.4482 27.039 37.4345C27.1146 37.4207 27.1971 37.4139 27.2796 37.4001L27.6302 39.0089C27.259 38.5207 26.9152 38.0189 26.5852 37.4964V37.4964ZM31.1502 42.8864C30.2771 40.9682 30.0159 38.6445 29.569 36.6026C29.239 35.1039 28.9159 33.612 28.5859 32.1132C28.2579 30.8117 28.0621 29.4804 28.0015 28.1395C30.1606 27.9782 32.3006 27.6215 34.3952 27.0739C34.2538 27.3215 34.2058 27.6118 34.26 27.8918C34.3143 28.1718 34.4671 28.4231 34.6909 28.6001C35.5441 29.2255 36.5831 29.5451 37.6402 29.5076C39.6477 29.5076 41.339 28.4832 41.339 27.2664C41.3397 26.994 41.2477 26.7296 41.0783 26.5164C40.9088 26.3032 40.6719 26.154 40.4065 26.0933C40.141 26.0325 39.8628 26.0638 39.6175 26.182C39.3722 26.3002 39.1744 26.4984 39.0565 26.7439C38.6298 26.9997 38.1372 27.1241 37.6402 27.1014C37.1257 27.1322 36.6149 26.9973 36.1827 26.7164C36.1315 26.671 36.0735 26.6339 36.0109 26.6064C39.9984 25.3276 44.4052 23.0314 47.3615 18.8926C48.2117 21.8256 49.8389 24.4742 52.0709 26.5582C51.9728 26.5989 51.8804 26.6521 51.7959 26.7164C51.3666 26.998 50.8577 27.133 50.3452 27.1014C49.846 27.1249 49.351 27.0005 48.9221 26.7439C48.8252 26.5398 48.6723 26.3675 48.4812 26.247C48.2901 26.1265 48.0687 26.0627 47.8427 26.0632C47.5238 26.0636 47.218 26.1905 46.9924 26.416C46.7669 26.6416 46.64 26.9474 46.6396 27.2664C46.6396 28.4832 48.3377 29.5076 50.3452 29.5076C51.3979 29.5349 52.4307 29.2188 53.2877 28.607C53.5168 28.4227 53.6708 28.1611 53.7209 27.8714C55.551 29.0975 57.6006 29.9589 59.7571 30.4082C59.4271 32.182 59.0009 33.942 58.6159 35.6951C58.0865 38.0807 57.7427 40.6107 56.8352 42.8864C56.0018 44.9061 54.7061 46.7022 53.0524 48.1303C51.3987 49.5583 49.433 50.5785 47.3134 51.1089C45.1294 51.6417 42.8493 51.6417 40.6652 51.1089C38.5472 50.5768 36.5832 49.556 34.9309 48.128C33.2785 46.7001 31.9837 44.9049 31.1502 42.8864V42.8864ZM67.7115 85.5939H20.274V72.0157H67.7115V85.5939ZM80.9459 85.5939H70.1177V70.8126C70.1182 70.6545 70.0874 70.4978 70.0271 70.3517C69.9668 70.2055 69.8782 70.0727 69.7664 69.9609C69.6546 69.849 69.5217 69.7604 69.3756 69.7001C69.2294 69.6398 69.0727 69.609 68.9146 69.6095H19.0709C18.9128 69.6091 18.7562 69.64 18.61 69.7003C18.4639 69.7607 18.3311 69.8493 18.2193 69.9611C18.1075 70.0729 18.0189 70.2056 17.9586 70.3518C17.8983 70.4979 17.8674 70.6545 17.8677 70.8126V85.5939H7.03962V76.1957C7.02953 72.6638 8.3386 69.2553 10.7103 66.6381C13.0821 64.0209 16.3456 62.3836 19.8615 62.047L30.1121 61.0432C31.4703 60.9155 32.7442 60.328 33.723 59.3779C34.7019 58.4278 35.3271 57.172 35.4952 55.8182L36.004 51.8376C38.4492 53.1907 41.1981 53.9005 43.9927 53.9005C46.7874 53.9005 49.5362 53.1907 51.9815 51.8376L52.4902 55.8182C52.6566 57.1715 53.2804 58.4273 54.2582 59.3776C55.2359 60.3278 56.509 60.9155 57.8665 61.0432L68.1171 62.047C71.6342 62.3822 74.8993 64.0188 77.2724 66.6361C79.6456 69.2535 80.9556 72.6627 80.9459 76.1957V85.5939Z" fill="black"/>
</g>
<defs>
<clipPath id="clip0">
<rect width="88" height="88" fill="white"/>
</clipPath>
</defs>
</svg>
