<svg width="88" height="88" viewBox="0 0 88 88" fill="none" xmlns="http://www.w3.org/2000/svg">
<path d="M83.1173 50.1075H80.1397L65.6028 37.5827C64.119 36.3044 62.2411 35.7169 60.3888 35.8532L54.541 26.9056C53.8286 25.8159 52.7336 25.0741 51.4573 24.8169C50.1817 24.5591 48.8845 24.8183 47.8063 25.546L42.4808 29.1373C41.8981 29.5307 41.1555 29.6227 40.4942 29.3837L36.6881 28.0087C35.1553 27.4555 33.462 27.7086 32.1589 28.6855C31.5808 29.1185 31.464 29.9376 31.897 30.515C32.3301 31.0931 33.1485 31.2099 33.7266 30.7768C34.3234 30.3297 35.0989 30.2142 35.8005 30.4673L39.6059 31.8423C41.0487 32.3633 42.6695 32.1626 43.9424 31.3046L49.2679 27.7133C49.762 27.3796 50.3562 27.2614 50.9403 27.3789C51.5251 27.4971 52.0273 27.8368 52.3536 28.3363L53.3036 29.7906L48.1675 31.3307C47.476 31.5382 47.0839 32.2667 47.2913 32.9582C47.4988 33.6497 48.2272 34.0418 48.9181 33.8343L52.4979 32.7608L51.5097 34.4084C51.1384 35.0274 51.3391 35.8297 51.9581 36.201C52.1683 36.3279 52.4006 36.3876 52.6289 36.3876C53.0733 36.3876 53.5064 36.1614 53.7514 35.7525L55.4017 33.0012L57.7388 36.577C57.534 36.6777 57.3326 36.7878 57.1352 36.9093L46.6475 43.3761L43.6416 39.002C41.8766 36.434 38.4901 35.6343 35.7629 37.1416L32.6362 38.8698C31.8286 39.3156 30.8604 39.4156 29.9795 39.143L28.6435 38.7301L31.1149 34.7192C31.4935 34.1049 31.3022 33.2999 30.6879 32.9213C30.0735 32.5419 29.2679 32.7333 28.8899 33.3483L26.0647 37.9332L23.2039 37.049C20.3948 36.1809 17.3883 37.4525 16.0556 40.0742L10.953 50.1075H4.88301C2.19074 50.1075 0 52.2982 0 54.9905V60.3442C0 63.0371 2.19074 65.2272 4.88301 65.2272H8.17551V86.3182C8.17551 87.0399 8.76096 87.6254 9.4827 87.6254H78.517C79.2387 87.6254 79.8242 87.0399 79.8242 86.3182V65.2272H83.1167C85.8096 65.2272 87.9997 63.0371 87.9997 60.3442V54.9905C88.0003 52.2982 85.8096 50.1075 83.1173 50.1075V50.1075ZM52.5812 42.788V45.5266C52.5812 46.2483 53.1667 46.8338 53.8884 46.8338C54.6101 46.8338 55.1956 46.2483 55.1956 45.5266V42.365L60.5546 44.4718C61.226 44.7364 61.9847 44.4054 62.2492 43.734C62.5131 43.0619 62.1827 42.3033 61.5107 42.0394L56.7995 40.187L58.5069 39.1343C60.2129 38.0829 62.3781 38.2548 63.8961 39.5626L76.1349 50.1075H51.274L48.1299 45.5326L52.5812 42.788ZM18.3853 41.2586C19.14 39.7748 20.8419 39.0551 22.4325 39.5465L29.2075 41.6406C30.7637 42.122 32.4744 41.9454 33.9005 41.1579L37.0271 39.4297C38.5713 38.5764 40.4881 39.0296 41.4872 40.4831L48.1024 50.1075H42.3734L40.4378 45.4769C40.1598 44.8109 39.3938 44.4967 38.7284 44.7746C38.0624 45.0533 37.7482 45.8186 38.0261 46.4847L39.5401 50.1075H27.3041L27.1872 47.7831L30.5999 46.5256C31.2773 46.2759 31.6245 45.5246 31.3747 44.8478C31.1249 44.1704 30.3737 43.8233 29.6969 44.073L25.9391 45.4574L21.4636 43.0169C20.8299 42.6712 20.0363 42.9048 19.6905 43.5379C19.3447 44.1717 19.5784 44.966 20.2122 45.3117L24.5655 47.6858L24.6863 50.1075H13.8857L18.3853 41.2586ZM10.7899 85.0117V80.1669H65.5746C66.2963 80.1669 66.8818 79.5815 66.8818 78.8597C66.8818 78.138 66.2963 77.5525 65.5746 77.5525H10.7899V72.6863H77.2104V77.5525H70.8027C70.081 77.5525 69.4955 78.138 69.4955 78.8597C69.4955 79.5815 70.081 80.1669 70.8027 80.1669H77.2104V85.0117H10.7899ZM77.2104 70.0726H10.7899V65.2272H77.2104V70.0726ZM85.3866 60.3442C85.3866 61.5956 84.3681 62.6134 83.1173 62.6134H4.88301C3.63154 62.6134 2.61372 61.5956 2.61372 60.3442V54.9905C2.61372 53.739 3.63222 52.7212 4.88301 52.7212H83.1173C84.3681 52.7212 85.3866 53.7397 85.3866 54.9905V60.3442Z" fill="black"/>
<path d="M26.4326 18.2172C25.3852 19.1646 24.082 20.3429 24.082 22.6598C24.082 23.3816 24.6668 23.967 25.3886 23.967C26.1103 23.967 26.6958 23.3816 26.6958 22.6598C26.6958 21.5554 27.2067 21.0418 28.1856 20.1562C29.2336 19.2089 30.5368 18.0306 30.5368 15.7136C30.5368 13.3967 29.2336 12.2184 28.1856 11.271C27.2067 10.3855 26.6958 9.87253 26.6958 8.76743C26.6958 7.66299 27.2067 7.14938 28.1856 6.26449C29.2336 5.31716 30.5374 4.13887 30.5374 1.8219C30.5374 1.10016 29.952 0.515381 29.2302 0.515381C28.5085 0.515381 27.9231 1.10016 27.9231 1.8219C27.9231 2.92701 27.4121 3.43995 26.4332 4.32552C25.3859 5.27217 24.082 6.45046 24.082 8.76743C24.082 11.0844 25.3852 12.2627 26.4326 13.21C27.4121 14.0956 27.9231 14.6092 27.9231 15.7136C27.9231 16.8187 27.4121 17.3317 26.4326 18.2172Z" fill="black"/>
<path d="M43.1234 18.2172C42.0761 19.1646 40.7722 20.3429 40.7722 22.6598C40.7722 23.3816 41.3577 23.967 42.0794 23.967C42.8012 23.967 43.3866 23.3816 43.3866 22.6598C43.3866 21.5554 43.8975 21.0418 44.8764 20.1562C45.9238 19.2089 47.2276 18.0306 47.2276 15.7136C47.2276 13.3967 45.9245 12.2184 44.8764 11.271C43.8975 10.3855 43.3866 9.87253 43.3866 8.76743C43.3866 7.66299 43.8975 7.14938 44.8764 6.26449C45.9245 5.31716 47.2276 4.13887 47.2276 1.8219C47.2276 1.10016 46.6429 0.515381 45.9211 0.515381C45.1994 0.515381 44.6139 1.10016 44.6139 1.8219C44.6139 2.92634 44.103 3.43995 43.1234 4.32552C42.0761 5.27217 40.7722 6.45046 40.7722 8.76743C40.7722 11.0844 42.0761 12.2627 43.1234 13.21C44.103 14.0956 44.6139 14.6092 44.6139 15.7136C44.6139 16.8187 44.103 17.3317 43.1234 18.2172V18.2172Z" fill="black"/>
<path d="M59.8148 18.2172C58.7675 19.1646 57.4636 20.3429 57.4636 22.6598C57.4636 23.3816 58.0484 23.967 58.7701 23.967C59.4919 23.967 60.0773 23.3816 60.0773 22.6598C60.0773 21.5554 60.5883 21.0418 61.5678 20.1562C62.6152 19.2089 63.919 18.0306 63.919 15.7136C63.919 13.3967 62.6152 12.2184 61.5678 11.271C60.5883 10.3855 60.0773 9.87253 60.0773 8.76743C60.0773 7.66299 60.5883 7.14938 61.5678 6.26449C62.6152 5.31716 63.919 4.13887 63.919 1.8219C63.919 1.10016 63.3336 0.515381 62.6118 0.515381C61.8901 0.515381 61.3046 1.10016 61.3046 1.8219C61.3046 2.92634 60.7937 3.43995 59.8148 4.32552C58.7668 5.27217 57.4636 6.45046 57.4636 8.76743C57.4636 11.0844 58.7668 12.2627 59.8148 13.21C60.7937 14.0956 61.3046 14.6092 61.3046 15.7136C61.3046 16.8187 60.7937 17.3317 59.8148 18.2172V18.2172Z" fill="black"/>
</svg>
