<svg width="89" height="89" viewBox="0 0 89 89" fill="none" xmlns="http://www.w3.org/2000/svg">
<g clip-path="url(#clip0)">
<path d="M48.3189 50.4571V27.7575C48.3189 27.0358 47.7341 26.451 47.0117 26.451C46.29 26.451 45.7052 27.0358 45.7052 27.7575V51.1171C45.7052 51.54 45.9093 51.9362 46.2537 52.1812C51.134 55.6583 54.0472 61.306 54.0472 67.2894C54.0472 77.5099 45.7321 85.8257 35.5109 85.8257C25.2903 85.8257 16.9745 77.5099 16.9745 67.2894C16.9745 61.306 19.8884 55.6583 24.7687 52.1812C25.1124 51.9362 25.3172 51.54 25.3172 51.1171V13.2475C25.3172 7.62665 29.89 3.05316 35.5109 3.05316C41.1317 3.05316 45.7052 7.62665 45.7052 13.2475V22.5294C45.7052 23.2512 46.29 23.8366 47.0117 23.8366C47.7341 23.8366 48.3189 23.2512 48.3189 22.5294V13.2475C48.3189 6.18518 42.5732 0.439453 35.5109 0.439453C28.4485 0.439453 22.7028 6.18518 22.7028 13.2475V50.4571C17.4673 54.4485 14.3608 60.6904 14.3608 67.2894C14.3608 78.9514 23.8489 88.4395 35.5109 88.4395C47.1735 88.4395 56.6616 78.9514 56.6616 67.2894C56.6616 60.6897 53.5551 54.4485 48.3189 50.4571V50.4571Z" fill="black"/>
<path d="M35.5107 78.8553C33.1273 78.8553 30.8372 78.1329 28.8875 76.7659C28.2967 76.351 27.481 76.494 27.0667 77.0855C26.6525 77.6763 26.7955 78.4914 27.387 78.9056C29.7784 80.5828 32.5875 81.469 35.5107 81.469C43.3297 81.469 49.6911 75.1083 49.6911 67.2893C49.6911 62.7118 47.4608 58.3907 43.7258 55.7294L41.3484 54.0361V13.2474C41.3484 10.0281 38.73 7.40967 35.5107 7.40967C32.2921 7.40967 29.673 10.0281 29.673 13.2474V54.0361L27.2963 55.7294C23.5607 58.3907 21.3311 62.7118 21.3311 67.2893C21.3311 70.1266 22.1696 72.8665 23.7568 75.2137C24.1609 75.8112 24.9733 75.9683 25.5715 75.5641C26.1697 75.16 26.3262 74.3476 25.922 73.7494C24.6289 71.8366 23.9448 69.6022 23.9448 67.2893C23.9448 63.5551 25.7649 60.0296 28.813 57.8583L31.7382 55.7737C32.0826 55.5286 32.2874 55.1318 32.2874 54.7095V49.6634H38.7347V54.7095C38.7347 55.1318 38.9388 55.5286 39.2833 55.7737L42.2092 57.8583C45.2573 60.0296 47.0767 63.5551 47.0767 67.2893C47.0767 73.6668 41.8882 78.8553 35.5107 78.8553V78.8553ZM38.7347 27.0779H32.2874V19.7061H38.7347V27.0779ZM32.2874 29.6917H38.7347V37.0635H32.2874V29.6917ZM35.5107 10.0234C37.2886 10.0234 38.7347 11.4695 38.7347 13.2474V17.0924H32.2874V13.2474C32.2874 11.4695 33.7336 10.0234 35.5107 10.0234ZM32.2874 47.0497V39.6779H38.7347V47.0497H32.2874Z" fill="black"/>
<path d="M73.0667 29.6683C72.1549 29.6683 71.6567 30.0181 71.5883 30.7049C71.3915 32.2457 71.0948 34.5728 67.4659 34.5728C64.4917 34.5728 63.0455 33.0621 63.0455 29.9543V19.9788C63.0455 16.9139 64.4998 15.3597 67.3666 15.3597C70.7014 15.3597 71.503 17.3873 71.5883 19.0886C71.6252 19.7613 72.1509 20.1319 73.0667 20.1319C74.0032 20.1319 74.5457 19.8687 74.5457 18.5206C74.5457 15.0737 71.5661 12.6667 67.3001 12.6667C62.7166 12.6667 60.0874 15.3322 60.0874 19.9788V29.9543C60.0874 32.4518 60.8011 34.3539 62.209 35.6074C63.4269 36.6923 65.1758 37.2657 67.2672 37.2657C71.5527 37.2657 74.5457 34.8178 74.5457 31.3125C74.5457 29.9435 73.9797 29.6683 73.0667 29.6683Z" fill="black"/>
<path d="M61.9362 8.93781C61.9362 6.58392 60.0207 4.66846 57.6668 4.66846C55.3123 4.66846 53.3975 6.58392 53.3975 8.93781C53.3975 11.2917 55.3123 13.2072 57.6668 13.2072C60.0207 13.2072 61.9362 11.2917 61.9362 8.93781ZM57.6668 10.5934C56.7537 10.5934 56.0112 9.85022 56.0112 8.93781C56.0112 8.02472 56.7537 7.28217 57.6668 7.28217C58.5792 7.28217 59.3218 8.02472 59.3218 8.93781C59.3218 9.85022 58.5792 10.5934 57.6668 10.5934Z" fill="black"/>
</g>
<defs>
<clipPath id="clip0">
<rect width="88" height="88" fill="white" transform="translate(0.438965 0.439453)"/>
</clipPath>
</defs>
</svg>
