<svg width="66" height="66" viewBox="0 0 66 66" fill="none" xmlns="http://www.w3.org/2000/svg">
<g clip-path="url(#clip0)">
<path d="M54.4397 29.2551L42.3605 27.8987C40.4825 26.0896 31.228 17.2123 28.5164 15.2511C24.0674 10.525 16.8443 2.62309 16.1264 1.24325C15.7362 0.491546 14.9741 0.0623749 14.082 0.0922868C12.5851 0.144307 11.0388 1.41491 10.2364 3.25515C9.41052 5.15 8.72255 9.13219 13.3966 14.5254C16.7845 18.4335 17.8873 20.4844 18.1292 21.6198C18.1227 21.6796 18.0967 21.7264 18.098 21.7914C18.1032 22.0242 18.124 22.257 18.1344 22.4898C18.0603 22.7473 17.9198 22.906 17.8132 23.023C17.6558 23.1947 17.5127 23.3573 17.4035 23.5159C17.1954 23.7786 16.1771 24.3287 15.5034 24.6916C14.1665 25.4134 12.788 26.1573 12.1039 27.1431C11.7918 27.2887 10.9828 27.4968 10.3209 27.6672C6.70544 28.5983 -0.807651 30.5335 0.0701988 38.6552C0.0975097 39.5929 0.566997 41.3707 2.19915 42.4944C2.49697 42.6999 2.8234 42.8689 3.16933 43.0133C2.86111 44.1109 1.8402 48.4377 4.10831 51.0609C4.88472 51.9569 5.91603 52.5188 7.18794 52.7542C7.3466 54.7752 7.95784 58.3139 10.2832 59.9317C10.8983 60.3596 11.7918 60.7602 12.983 60.7602C13.0455 60.7602 13.1144 60.7523 13.1794 60.7497C13.7477 62.1465 14.9312 64.252 17.1642 65.2925C18.046 65.7021 18.9888 65.9089 19.9915 65.9089C21.4663 65.9089 23.066 65.4654 24.7774 64.5798L24.9023 64.5069C24.9621 64.4679 25.3536 64.2091 25.8959 63.7448C27.8376 63.5732 35.0476 62.6004 43.9497 55.493C48.0645 55.5191 52.8088 55.7714 53.5969 56.1355C53.9975 56.3878 54.5047 56.406 54.9222 56.1784C55.337 55.9482 55.5958 55.5113 55.5958 55.0353V30.5465C55.5958 29.8859 55.0977 29.3292 54.4397 29.2551ZM2.66213 38.4264C2.04308 32.9512 6.23856 31.4036 10.9698 30.1863C12.6982 29.7415 13.7412 29.4723 14.2289 28.6426C14.4955 28.19 15.8455 27.4617 16.7376 26.9792C17.397 26.6242 17.9978 26.2925 18.5024 25.9479C19.2138 30.1564 20.8876 34.1594 23.5563 37.2325C22.8995 36.7708 22.0919 36.3429 21.1451 35.9463C21.2491 35.3051 21.2478 34.6236 21.0137 33.9461C20.4181 32.219 18.678 31.1695 15.8442 30.8287C15.7349 30.8157 15.6244 30.8144 15.5165 30.83L10.5537 31.492C9.84229 31.5869 9.34159 32.2411 9.43653 32.9525C9.53147 33.6652 10.1908 34.1685 10.8983 34.0696L15.6933 33.4298C17.2813 33.6431 18.2905 34.1112 18.5428 34.7576C18.851 35.547 18.1786 36.7617 17.8925 37.1584C17.1694 37.5173 14.2146 38.6826 11.585 39.6736C6.63261 41.5567 4.52187 40.9195 3.70515 40.3732C2.71545 39.7126 2.67254 38.6032 2.67124 38.572C2.66993 38.5226 2.66733 38.4745 2.66213 38.4264ZM6.14232 43.6987C6.16053 43.6401 6.14882 43.5816 6.16053 43.5231C7.93964 43.501 10.053 43.0367 12.5045 42.1055C19.1397 39.6072 19.4453 39.3029 19.6677 39.0792C19.7275 39.0194 19.8264 38.8958 19.9382 38.745C22.3143 39.7373 22.7343 40.5943 22.7994 40.844C22.9398 41.3837 22.3754 42.0652 22.0724 42.4319L21.9293 42.6101C21.9267 42.614 21.9228 42.6179 21.9202 42.6218L21.8227 42.7428C18.0772 47.5482 13.277 49.1933 9.90732 49.7266C9.48335 49.7942 9.09449 49.8306 8.73685 49.8371C8.71604 49.8358 8.69914 49.8254 8.67963 49.8241C8.67183 49.8228 8.66402 49.8228 8.65622 49.8228C8.64452 49.8228 8.63411 49.8293 8.62241 49.8293C7.6028 49.8293 6.8563 49.5822 6.41413 49.0711C5.25667 47.7368 5.8458 44.6688 6.14232 43.6987ZM10.2468 52.7516C10.2936 52.7451 10.3378 52.7425 10.3859 52.7347C14.1314 52.1403 19.4037 50.3521 23.6694 45.2879C25.2248 45.8289 25.6059 46.418 25.693 46.6729C25.8062 47.0046 25.7632 47.6288 24.9101 48.7239L24.7918 48.8786C21.6835 52.9648 17.9614 55.999 14.3096 57.4204C12.84 57.9939 12.2248 57.57 12.0246 57.4308C10.9399 56.6778 10.4158 54.532 10.2468 52.7516ZM18.4634 62.5367C17.28 61.9904 16.5595 60.8369 16.1498 59.9369C19.4518 58.4881 22.7369 55.9651 25.6293 52.6579C26.1638 52.485 26.5943 52.4485 26.8011 52.5812C27.0768 52.7568 27.2224 53.3446 27.2432 53.6866C27.7036 58.6975 23.819 61.5548 23.3027 61.9111C21.3506 62.9073 19.7236 63.1141 18.4634 62.5367ZM52.9948 53.3771C50.4159 52.9739 46.2178 52.8933 43.4958 52.8868C43.1538 52.9089 42.9067 52.9883 42.6726 53.1781C36.7825 57.9679 31.665 59.8875 28.5515 60.6613C29.6752 58.8692 30.5569 56.4723 30.2825 53.489C30.2734 53.2497 30.1473 51.1246 28.467 50.0309C28.2862 49.9138 28.0847 49.8436 27.8896 49.7617C28.7739 48.3272 29.0119 46.9591 28.5776 45.6884C28.1523 44.4412 27.1119 43.4542 25.4862 42.7324C25.814 41.995 26.0116 41.0859 25.7476 40.0728C25.6436 39.6749 25.4693 39.2977 25.243 38.9336C27.4812 40.8869 30.2487 42.2681 33.5755 42.7675C35.2154 43.0133 35.9203 40.5072 34.266 40.2588C25.55 38.9505 21.2882 31.0914 20.7588 22.9606C21.2257 20.9864 19.9889 18.1578 15.363 12.8192C11.4562 8.31156 12.1559 5.32687 12.6384 4.25394C13.0455 3.34488 13.6528 2.8767 13.9935 2.73624C15.6985 5.3906 24.8308 15.1315 26.7126 17.1278C26.7737 17.1928 26.8427 17.2513 26.9155 17.3033C29.0067 18.7612 36.9607 26.2964 40.874 30.077C41.0794 30.276 41.3461 30.4022 41.6322 30.4334L52.9948 31.7105V53.3771ZM66 32.1943V54.3031C66 55.7402 64.836 56.9041 63.3989 56.9041H60.7979C59.3608 56.9041 58.1969 55.7402 58.1969 54.3031V32.1943C58.1969 30.7572 59.3608 29.5932 60.7979 29.5932H63.3989C64.836 29.5932 66 30.7572 66 32.1943Z" fill="#010002"/>
</g>
<defs>
<clipPath id="clip0">
<rect width="66" height="66" fill="white"/>
</clipPath>
</defs>
</svg>
