<svg width="72" height="76" viewBox="0 0 72 76" fill="none" xmlns="http://www.w3.org/2000/svg">
<path d="M50.0625 63.6797C49.2862 63.6797 48.6562 64.3447 48.6562 65.1641C48.6562 65.9834 49.2862 66.6484 50.0625 66.6484C50.8387 66.6484 51.4688 65.9834 51.4688 65.1641C51.4688 64.3447 50.8387 63.6797 50.0625 63.6797Z" fill="black"/>
<path d="M21.9375 63.6797C21.1612 63.6797 20.5312 64.3447 20.5312 65.1641C20.5312 65.9834 21.1612 66.6484 21.9375 66.6484C22.7137 66.6484 23.3438 65.9834 23.3438 65.1641C23.3438 64.3447 22.7137 63.6797 21.9375 63.6797Z" fill="black"/>
<path d="M62.9501 55.9921C61.3671 53.4057 59.1917 51.3506 56.6435 50.0234C56.4286 49.8128 56.1523 49.6716 55.845 49.6356C54.0018 48.8097 52.059 48.3906 50.0625 48.3906H45.8438V44.4744C48.2851 42.2633 50.0403 39.3346 50.8913 36.0703H51.4688C54.5704 36.0703 57.0938 33.4067 57.0938 30.1328C57.0938 28.5813 56.5265 27.1676 55.6 26.1087C55.6885 26.0294 55.7748 25.9469 55.8578 25.8594C56.6549 25.0181 57.0938 23.8999 57.0938 22.7109C57.0938 20.7571 55.8948 19.0941 54.233 18.4959C53.7362 11.6702 49.1978 5.83716 42.9491 4.009C42.5789 1.96769 40.9829 0 38.8125 0H33.1875C31.0171 0 29.4211 1.96769 29.0509 4.009C22.8028 5.83701 18.2648 11.669 17.7671 18.4938C17.1622 18.7104 16.6074 19.0715 16.1422 19.5624C15.3451 20.4038 14.9062 21.522 14.9062 22.7109C14.9062 24.0711 15.4876 25.29 16.4011 26.1075C15.4741 27.1664 14.9062 28.5807 14.9062 30.1328C14.9062 33.4067 17.4296 36.0703 20.5312 36.0703H21.1047C21.8152 38.7952 23.1622 41.2968 25.0414 43.3632C25.3945 43.7518 25.7688 44.122 26.1562 44.4732V48.3906H21.9375C19.9409 48.3906 17.998 48.8097 16.155 49.6354C15.8479 49.6716 15.5714 49.8127 15.3567 50.0233C12.8081 51.3506 10.6329 53.4057 9.04992 55.992C7.3613 58.751 6.46875 61.9226 6.46875 65.1641V74.5156C6.46875 75.3353 7.09833 76 7.875 76H64.125C64.9017 76 65.5312 75.3353 65.5312 74.5156V65.1641C65.5312 61.9226 64.6387 58.751 62.9501 55.9921ZM14.9062 73.0312H9.28125V65.1641C9.28125 60.649 11.4725 56.3215 14.9062 53.7525V73.0312ZM51.4688 33.1016H51.4046C51.4465 32.6077 51.4688 32.1121 51.4688 31.6172V27.1641C53.0196 27.1641 54.2812 28.4958 54.2812 30.1328C54.2812 31.7698 53.0196 33.1016 51.4688 33.1016ZM28.9688 7.14563V13.8047C28.9688 14.6245 29.5983 15.2891 30.375 15.2891C31.1517 15.2891 31.7812 14.6245 31.7812 13.8047V5.20466C31.7812 5.2008 31.7812 5.19695 31.7812 5.19309V4.89844C31.7812 3.97872 32.5173 2.96875 33.1875 2.96875H38.8125C39.4827 2.96875 40.2188 3.97872 40.2188 4.89844V5.19309C40.2188 5.19695 40.2188 5.2008 40.2188 5.20466V13.8047C40.2188 14.6245 40.8483 15.2891 41.625 15.2891C42.4017 15.2891 43.0312 14.6245 43.0312 13.8047V7.14563C47.572 8.84183 50.85 13.1792 51.3901 18.2578H20.6099C21.15 13.1792 24.428 8.84183 28.9688 7.14563ZM20.5312 33.1016C18.9804 33.1016 17.7188 31.7698 17.7188 30.1328C17.7188 28.4958 18.9804 27.1641 20.5312 27.1641V31.6172C20.5312 32.1121 20.5535 32.6079 20.5954 33.1016H20.5312ZM20.5312 24.1953H19.125C18.3496 24.1953 17.7188 23.5294 17.7188 22.7109C17.7188 22.3149 17.8651 21.9422 18.1309 21.6618C18.3968 21.3811 18.7498 21.2266 19.125 21.2266H52.875C53.6504 21.2266 54.2812 21.8925 54.2812 22.7109C54.2812 23.107 54.1349 23.4797 53.8691 23.7601C53.6033 24.0408 53.2502 24.1953 52.875 24.1953H51.4688H50.0625H21.9375H20.5312ZM23.5993 34.3162C23.5965 34.3 23.5938 34.284 23.5904 34.2681C23.4271 33.397 23.3438 32.5053 23.3438 31.6172V27.1641H48.6562V31.6172C48.6562 32.5045 48.5729 33.3956 48.4096 34.2675C48.4062 34.2836 48.4035 34.2998 48.4007 34.3159C47.7723 37.6271 46.033 40.5911 43.5004 42.6642C41.3002 44.4683 38.7066 45.4219 36 45.4219C33.2934 45.4219 30.6998 44.4683 28.4975 42.6626C27.9934 42.2508 27.5136 41.7952 27.0709 41.3079C25.2969 39.3572 24.0971 36.9405 23.5993 34.3162ZM34.5938 73.0312H23.3438V69.6172C23.3438 68.7974 22.7142 68.1328 21.9375 68.1328C21.1608 68.1328 20.5312 68.7974 20.5312 69.6172V73.0312H17.7188V52.1719C18.6314 51.8087 19.5716 51.5666 20.5312 51.4473V60.7109C20.5312 61.5308 21.1608 62.1953 21.9375 62.1953C22.7142 62.1953 23.3438 61.5308 23.3438 60.7109V51.3594H26.9599L34.5938 59.8203V73.0312ZM28.9688 49.2812V46.5165C31.1387 47.7477 33.5288 48.3906 36 48.3906C38.4713 48.3906 40.8615 47.7476 43.0312 46.5166V49.2812L36 57.0742L28.9688 49.2812ZM54.2812 73.0312H51.4688V69.6172C51.4688 68.7974 50.8392 68.1328 50.0625 68.1328C49.2858 68.1328 48.6562 68.7974 48.6562 69.6172V73.0312H37.4062V59.8203L45.0401 51.3594H48.6562V60.7109C48.6562 61.5308 49.2858 62.1953 50.0625 62.1953C50.8392 62.1953 51.4688 61.5308 51.4688 60.7109V51.4473C52.4284 51.5666 53.3685 51.8088 54.2812 52.1721V73.0312ZM62.7188 73.0312H57.0938V53.7523C60.5275 56.3213 62.7188 60.6489 62.7188 65.1641V73.0312Z" fill="black"/>
</svg>
