<svg width="73" height="72" viewBox="0 0 73 72" fill="none" xmlns="http://www.w3.org/2000/svg">
<path d="M15.9688 50.0625C15.3388 50.0625 14.8281 50.5662 14.8281 51.1875C14.8281 51.8078 14.3164 52.3125 13.6875 52.3125C13.0586 52.3125 12.5469 51.8078 12.5469 51.1875C12.5469 50.5672 13.0586 50.0625 13.6875 50.0625C14.3174 50.0625 14.8281 49.5588 14.8281 48.9375C14.8281 48.3162 14.3174 47.8125 13.6875 47.8125C11.8006 47.8125 10.2656 49.3266 10.2656 51.1875C10.2656 53.0484 11.8006 54.5625 13.6875 54.5625C15.5744 54.5625 17.1094 53.0484 17.1094 51.1875C17.1094 50.5662 16.5987 50.0625 15.9688 50.0625Z" fill="black"/>
<path d="M61.5938 50.0625C60.9638 50.0625 60.4531 50.5662 60.4531 51.1875C60.4531 51.8078 59.9414 52.3125 59.3125 52.3125C58.6836 52.3125 58.1719 51.8078 58.1719 51.1875C58.1719 50.5672 58.6836 50.0625 59.3125 50.0625C59.9424 50.0625 60.4531 49.5588 60.4531 48.9375C60.4531 48.3162 59.9424 47.8125 59.3125 47.8125C57.4256 47.8125 55.8906 49.3266 55.8906 51.1875C55.8906 53.0484 57.4256 54.5625 59.3125 54.5625C61.1994 54.5625 62.7344 53.0484 62.7344 51.1875C62.7344 50.5662 62.2237 50.0625 61.5938 50.0625Z" fill="black"/>
<path d="M73 35.4375C73 35.1238 72.8695 34.8403 72.6595 34.6362C72.1718 33.3066 71.1836 32.1902 69.8475 31.5312C69.8118 31.5136 69.7755 31.498 69.7381 31.4842L65.9685 30.0885L63.6721 21.483C63.6688 21.4706 63.6654 21.4583 63.6616 21.446C62.9324 19.0485 60.7371 17.4375 58.1991 17.4375H50.1875V15.1875C50.1875 13.9469 49.1641 12.9375 47.9062 12.9375H2.28125C1.02343 12.9375 0 13.9469 0 15.1875V46.6875C0 47.9281 1.02343 48.9375 2.28125 48.9375H6.0369C5.9264 49.3023 5.84185 49.6779 5.78582 50.0625H1.14062C0.510715 50.0625 0 50.5662 0 51.1875C0 51.8088 0.510715 52.3125 1.14062 52.3125H5.78596C6.3413 56.1237 9.67236 59.0625 13.6875 59.0625C17.7026 59.0625 21.0338 56.1237 21.589 52.3125H23.9531C23.9531 54.1734 25.4881 55.6875 27.375 55.6875H34.2188C36.1056 55.6875 37.6406 54.1734 37.6406 52.3125H51.411C51.9663 56.1237 55.2974 59.0625 59.3125 59.0625C63.3276 59.0625 66.6588 56.1237 67.214 52.3125H71.8594C72.4893 52.3125 73 51.8088 73 51.1875C73 50.5662 72.4893 50.0625 71.8594 50.0625H67.214C67.158 49.6779 67.0735 49.3023 66.963 48.9375H70.7188C71.9766 48.9375 73 47.9281 73 46.6875V36.5625C73 36.2981 72.9813 36.0373 72.9454 35.7809C72.9806 35.6726 73 35.5573 73 35.4375ZM70.7188 42.1875H69.5781V41.0625H70.7188V42.1875ZM69.8489 34.3125H50.1875V32.0625H64.8087L68.8766 33.5686C69.2513 33.7608 69.5778 34.0145 69.8489 34.3125ZM58.1991 19.6875C59.7159 19.6875 61.0287 20.6464 61.4714 22.0756L63.5359 29.8125H50.1875V19.6875H58.1991ZM6.84389 46.6875H2.28125V41.0625H37.6412C38.2711 41.0625 38.7818 40.5588 38.7818 39.9375C38.7818 39.3162 38.2711 38.8125 37.6412 38.8125H2.28125V15.1875H47.9062V46.6875H34.2188H27.375H20.5315C20.4373 46.6875 20.3462 46.7 20.2585 46.7212C18.8167 44.6639 16.4096 43.3125 13.6875 43.3125C10.9654 43.3125 8.55839 44.6639 7.1165 46.7212C7.02896 46.7 6.93799 46.6875 6.84389 46.6875ZM13.6875 56.8125C10.5428 56.8125 7.98438 54.2891 7.98438 51.1875C7.98438 48.0859 10.5428 45.5625 13.6875 45.5625C16.8322 45.5625 19.3906 48.0859 19.3906 51.1875C19.3906 54.2891 16.8322 56.8125 13.6875 56.8125ZM21.589 50.0625C21.533 49.6779 21.4485 49.3023 21.338 48.9375H24.1493C24.0227 49.2896 23.9531 49.6682 23.9531 50.0625H21.589ZM35.3594 52.3125C35.3594 52.9328 34.8477 53.4375 34.2188 53.4375H27.375C26.7461 53.4375 26.2344 52.9328 26.2344 52.3125V51.1902C26.2344 51.1892 26.2345 51.1883 26.2345 51.1875C26.2345 51.1867 26.2344 51.1857 26.2344 51.1848V50.0625C26.2344 49.4422 26.7461 48.9375 27.375 48.9375H34.2188C34.8477 48.9375 35.3594 49.4422 35.3594 50.0625V52.3125ZM37.4444 48.9375H49.0469H51.6619C51.5514 49.3023 51.4669 49.6779 51.4108 50.0625H37.6406C37.6406 49.6682 37.571 49.2896 37.4444 48.9375ZM59.3125 56.8125C56.1678 56.8125 53.6094 54.2891 53.6094 51.1875C53.6094 48.0859 56.1678 45.5625 59.3125 45.5625C62.4572 45.5625 65.0156 48.0859 65.0156 51.1875C65.0156 54.2891 62.4572 56.8125 59.3125 56.8125ZM66.1562 46.6875C66.0621 46.6875 65.971 46.7 65.8835 46.7212C64.4416 44.6639 62.0346 43.3125 59.3125 43.3125C56.5904 43.3125 54.1834 44.6639 52.7415 46.7212C52.654 46.7 52.563 46.6875 52.4689 46.6875H50.1876V36.5625H70.7189V38.8125H69.5783C68.3204 38.8125 67.297 39.8219 67.297 41.0625V42.1875C67.297 43.4281 68.3204 44.4375 69.5783 44.4375H70.7189V46.6875H66.1562Z" fill="black"/>
<path d="M28.5156 50.0625C28.2148 50.0625 27.9211 50.1833 27.7086 50.3916C27.4962 50.6011 27.375 50.8922 27.375 51.1875C27.375 51.4841 27.4962 51.7739 27.7086 51.9834C27.9211 52.1928 28.2148 52.3125 28.5156 52.3125C28.8165 52.3125 29.1102 52.1928 29.3226 51.9834C29.5351 51.7739 29.6562 51.4827 29.6562 51.1875C29.6562 50.892 29.5351 50.6011 29.3226 50.3916C29.1102 50.1833 28.8165 50.0625 28.5156 50.0625Z" fill="black"/>
<path d="M42.2037 41.0625H44.4844C45.1143 41.0625 45.625 40.5588 45.625 39.9375C45.625 39.3162 45.1143 38.8125 44.4844 38.8125H42.2037C41.5738 38.8125 41.063 39.3162 41.063 39.9375C41.063 40.5588 41.5736 41.0625 42.2037 41.0625Z" fill="black"/>
</svg>
