<svg width="75" height="73" viewBox="0 0 75 73" fill="none" xmlns="http://www.w3.org/2000/svg">
<g clip-path="url(#clip0)">
<path d="M70.8333 66.0476C68.8645 66.0476 67.2619 67.6075 67.2619 69.5238C67.2619 71.4401 68.8645 73 70.8333 73C72.8021 73 74.4047 71.4401 74.4047 69.5238C74.4047 67.6075 72.8021 66.0476 70.8333 66.0476ZM70.8333 70.6825C70.1776 70.6825 69.6428 70.1631 69.6428 69.5238C69.6428 68.8845 70.1776 68.3651 70.8333 68.3651C71.489 68.3651 72.0238 68.8845 72.0238 69.5238C72.0238 70.1631 71.489 70.6825 70.8333 70.6825Z" fill="black"/>
<path d="M7.73809 3.47619C7.73809 1.55987 6.13548 0 4.16666 0C2.19784 0 0.59523 1.55987 0.59523 3.47619C0.59523 5.39251 2.19784 6.95238 4.16666 6.95238C6.13548 6.95238 7.73809 5.39251 7.73809 3.47619ZM2.97618 3.47619C2.97618 2.83798 3.51097 2.31746 4.16666 2.31746C4.82235 2.31746 5.35714 2.83798 5.35714 3.47619C5.35714 4.1144 4.82235 4.63492 4.16666 4.63492C3.51097 4.63492 2.97618 4.1144 2.97618 3.47619Z" fill="black"/>
<path d="M64.549 45.9192L62.1977 41.3425C62.6965 40.3575 63.1237 39.3623 63.4748 38.3716L68.4524 36.7563V23.4976L63.4748 21.8823C63.1249 20.8916 62.6965 19.8964 62.1977 18.9114L64.5514 14.3302L54.92 4.95568L50.2133 7.24655C49.2013 6.76111 48.1788 6.34412 47.161 6.00352L45.5014 1.15869H31.8795L30.22 6.00352C29.2021 6.34412 28.1796 6.76111 27.1676 7.24655L22.4609 4.95568L12.8296 14.3302L15.1832 18.9114C14.6845 19.8964 14.2561 20.8916 13.9061 21.8823L8.92857 23.4976V36.7551L13.9061 38.3699C14.2537 39.3538 14.6763 40.34 15.1704 41.3171L13.6393 44.0317H6.54762V67.2063H14.881V63.7301H23.9118L27.4833 67.2063H33.9286V68.365C33.9286 70.9213 36.0642 73 38.6905 73C41.3167 73 43.4524 70.9213 43.4524 68.365V67.2063H51.7869C53.7557 67.2063 55.3583 65.6464 55.3583 63.7301C55.3583 62.8368 55.0002 62.0294 54.43 61.4127C55.0014 60.796 55.3583 59.9886 55.3583 59.0952C55.3583 58.2018 55.0002 57.3945 54.43 56.7777C54.8846 56.2866 55.195 55.6733 55.3037 54.9899L64.549 45.9192ZM17.5729 40.8033C16.9178 39.579 16.3836 38.3342 15.9842 37.1059L15.8011 36.543L11.3095 35.0849V25.1678L15.8011 23.7109L15.9831 23.1468C16.3807 21.9197 16.9155 20.6749 17.5712 19.4506L17.8513 18.9255L15.7261 14.7879L22.93 7.77613L27.181 9.84464L27.7204 9.5725C28.9795 8.93373 30.2572 8.41377 31.518 8.02621L32.0975 7.84911L33.5967 3.47615H43.7855L45.2823 7.84798L45.8618 8.02507C47.1226 8.41207 48.4015 8.93259 49.6594 9.5708L50.1988 9.84351L54.4498 7.775L61.6536 14.7868L59.5285 18.9244L59.8081 19.4494C60.4643 20.6749 60.9985 21.9185 61.3967 23.1457L61.5787 23.7098L66.0714 25.169V35.0861L61.5798 36.543L61.3967 37.1059C60.9974 38.3342 60.4632 39.579 59.8081 40.8033L59.5285 41.3284L61.656 45.4688L54.6212 52.3686C54.5608 52.2911 54.4963 52.2147 54.43 52.1428C55.0014 51.5261 55.3583 50.7187 55.3583 49.8254C55.3583 48.0177 53.9283 46.5461 52.1153 46.3814C57.1655 42.4419 60.119 36.53 60.119 30.1269C60.119 18.6268 50.5057 9.2698 38.6905 9.2698C26.8752 9.2698 17.2619 18.6268 17.2619 30.1269C17.2619 36.4524 20.2166 42.4028 25.2319 46.3492H15.0489L17.8664 41.3527L17.5729 40.8033ZM52.9774 59.0952C52.9774 59.7345 52.4426 60.2539 51.7869 60.2539H42.2619C41.6062 60.2539 41.0714 59.7345 41.0714 59.0952C41.0714 58.4559 41.6062 57.9365 42.2619 57.9365H51.7869C52.4426 57.9365 52.9774 58.4559 52.9774 59.0952ZM35.8166 30.1269H41.5644L43.4524 28.2893V23.1746C44.7655 23.1746 45.8333 24.2139 45.8333 25.492V30.8059L41.769 34.7619H35.612L31.5476 30.8059V25.492C31.5476 24.2139 32.6154 23.1746 33.9286 23.1746V28.2893L35.8166 30.1269ZM36.3095 37.0793H41.0714V41.7143H36.3095V37.0793ZM43.4524 36.4004L48.2143 31.7655V25.492C48.2143 22.9358 46.0786 20.8571 43.4524 20.8571H41.0714V27.3297L40.5785 27.8095H36.8025L36.3095 27.3297V20.8571H33.9286C31.3023 20.8571 29.1667 22.9358 29.1667 25.492V31.7655L33.9286 36.4004V41.7143H31.0547L30.9797 41.7872C26.9153 39.2344 24.4048 34.8581 24.4048 30.1269C24.4048 22.4594 30.8129 16.2222 38.6905 16.2222C46.5681 16.2222 52.9762 22.4594 52.9762 30.1269C52.9762 34.8235 50.5656 39.1246 46.5309 41.7143H43.4524V36.4004ZM55.3571 30.1269C55.3571 21.1813 47.8812 13.9047 38.6905 13.9047C29.4997 13.9047 22.0238 21.1813 22.0238 30.1269C22.0238 35.4793 24.7593 40.4627 29.2463 43.4744L27.5321 45.1429C22.5882 41.6577 19.6429 36.0796 19.6429 30.1269C19.6429 19.9049 28.1884 11.5873 38.6905 11.5873C49.1926 11.5873 57.7381 19.9049 57.7381 30.1269C57.7381 35.8533 55.0787 41.1371 50.5383 44.6399C50.4022 43.8184 49.9715 43.0999 49.3524 42.5776C53.1465 39.5116 55.3571 34.9972 55.3571 30.1269ZM51.7869 48.6666C52.4426 48.6666 52.9774 49.186 52.9774 49.8254C52.9774 50.4647 52.4426 50.9841 51.7869 50.9841H42.2619C41.6062 50.9841 41.0714 50.4647 41.0714 49.8254C41.0714 49.186 41.6062 48.6666 42.2619 48.6666H51.7869ZM42.2619 55.619C41.6062 55.619 41.0714 55.0996 41.0714 54.4603C41.0714 53.8209 41.6062 53.3016 42.2619 53.3016H51.7869C52.4426 53.3016 52.9774 53.8209 52.9774 54.4603C52.9774 55.0996 52.4426 55.619 51.7869 55.619H42.2619ZM12.5 64.8889H8.92857V46.3492H12.5V64.8889ZM28.4691 64.8889L24.8977 61.4127H14.881V48.6666H27.2786L32.0406 44.0317H47.0238C47.6795 44.0317 48.2143 44.5511 48.2143 45.1904C48.2143 45.8298 47.6795 46.3492 47.0238 46.3492H34.6261L29.5154 51.3236L31.1988 52.9621L33.9286 50.3051V64.8889H28.4691ZM38.6905 70.6825C37.3773 70.6825 36.3095 69.6432 36.3095 68.365V48.6666H38.9096C38.7759 49.0304 38.6905 49.4174 38.6905 49.8254C38.6905 50.7187 39.0485 51.5261 39.6188 52.1428C39.0474 52.7595 38.6905 53.5669 38.6905 54.4603C38.6905 55.3537 39.0485 56.161 39.6188 56.7777C39.0474 57.3945 38.6905 58.2018 38.6905 59.0952C38.6905 59.9886 39.0485 60.796 39.6188 61.4127C39.0474 62.0294 38.6905 62.8368 38.6905 63.7301C38.6905 65.2385 39.6891 66.5132 41.0714 66.993V68.365C41.0714 69.6432 40.0036 70.6825 38.6905 70.6825ZM51.7869 64.8889H42.2619C41.6062 64.8889 41.0714 64.3695 41.0714 63.7301C41.0714 63.0908 41.6062 62.5714 42.2619 62.5714H51.7869C52.4426 62.5714 52.9774 63.0908 52.9774 63.7301C52.9774 64.3695 52.4426 64.8889 51.7869 64.8889Z" fill="black"/>
<path d="M2.97618 10.4285H5.35713V12.7459H2.97618V10.4285Z" fill="black"/>
<path d="M2.97618 16.2222H5.35713V18.5396H2.97618V16.2222Z" fill="black"/>
<path d="M2.97618 22.0159H5.35713V24.3333H2.97618V22.0159Z" fill="black"/>
<path d="M69.6429 48.6667H72.0238V50.9842H69.6429V48.6667Z" fill="black"/>
<path d="M69.6429 54.4604H72.0238V56.7779H69.6429V54.4604Z" fill="black"/>
<path d="M69.6429 60.2539H72.0238V62.5714H69.6429V60.2539Z" fill="black"/>
</g>
<defs>
<clipPath id="clip0">
<rect width="75" height="73" fill="white"/>
</clipPath>
</defs>
</svg>
