<svg width="83" height="83" viewBox="0 0 83 83" fill="none" xmlns="http://www.w3.org/2000/svg">
<g clip-path="url(#clip0)">
<path d="M59.5012 27.6257C57.7964 27.5666 56.2564 26.8076 55.1649 25.489C54.3683 24.5265 52.9054 24.5285 52.1105 25.489C49.7441 28.3481 45.3891 28.3431 43.0273 25.489C42.2211 24.5152 40.757 24.5419 39.9727 25.489C37.6072 28.3474 33.2524 28.3442 30.8895 25.4888C30.0916 24.5251 28.6289 24.5299 27.8352 25.4888C26.7437 26.8076 25.2037 27.5664 23.499 27.6257C22.8278 27.6491 22.3028 28.2119 22.3263 28.883C22.3496 29.5542 22.9089 30.078 23.5836 30.0559C25.7828 29.9794 27.861 29.0301 29.3621 27.4318C32.6491 30.9381 38.2083 30.9426 41.5001 27.432C44.7873 30.9383 50.3465 30.9423 53.6379 27.4318C55.1393 29.0301 57.2172 29.9794 59.4166 30.0559C60.0846 30.0801 60.6507 29.5542 60.6739 28.883C60.6974 28.2119 60.1723 27.6491 59.5012 27.6257Z" fill="black"/>
<path d="M55.1649 35.4626C54.3683 34.5001 52.9054 34.5021 52.1104 35.4626C49.7442 38.3215 45.3892 38.3168 43.0272 35.4626C42.2211 34.4888 40.7569 34.5155 39.9726 35.4626C37.6065 38.322 33.2514 38.3167 30.8895 35.4624C30.0945 34.5024 28.6318 34.4998 27.8352 35.4626C26.5393 37.0282 24.5635 37.8106 22.5485 37.5561C21.8838 37.4719 21.2741 37.9433 21.1897 38.6096C21.1052 39.2757 21.5771 39.8841 22.2432 39.9684C24.9149 40.3071 27.5374 39.3532 29.3624 37.4058C32.6495 40.9119 38.2084 40.9161 41.5 37.4058C44.7869 40.9117 50.3463 40.9164 53.6376 37.4058C55.4627 39.3532 58.0853 40.3069 60.7567 39.9684C61.4228 39.8841 61.8947 39.2759 61.8102 38.6096C61.7258 37.9433 61.1149 37.4718 60.4514 37.5561C58.4356 37.8104 56.4606 37.0284 55.1649 35.4626Z" fill="black"/>
<path d="M58.4861 17.4593C57.1759 17.1832 56.0274 16.4867 55.165 15.4448C54.3684 14.4823 52.9055 14.4843 52.1105 15.4448C49.7442 18.3039 45.3891 18.2989 43.0274 15.4448C42.2212 14.471 40.757 14.4977 39.9727 15.4448C37.6072 18.3032 33.2525 18.3 30.8896 15.4446C30.0917 14.4809 28.629 14.4857 27.8353 15.4446C26.9729 16.4865 25.8245 17.1832 24.5143 17.4593C23.8571 17.5977 23.4368 18.2426 23.5752 18.8996C23.7136 19.5567 24.3598 19.9772 25.0155 19.8386C26.6987 19.4839 28.1916 18.6406 29.3627 17.388C32.6506 20.8946 38.2093 20.8973 41.5001 17.3878C44.7871 20.8936 50.3459 20.8985 53.6374 17.3881C54.8088 18.6408 56.3018 19.4842 57.9849 19.8386C58.6411 19.9772 59.2866 19.5565 59.4252 18.8995C59.5635 18.2425 59.143 17.5976 58.4861 17.4593Z" fill="black"/>
<path d="M8.91359 69.5892H36.4287V80.8686C36.4287 82.0439 37.3849 83 38.5603 83H42.6442C43.8195 83 44.7756 82.0439 44.7756 80.8686V80.6313H56.8039V80.8686C56.8039 82.0439 57.7601 83 58.9355 83H63.0194C64.1947 83 65.1508 82.0439 65.1508 80.8686V69.5892H74.0861C77.9963 69.5892 81.0699 66.2034 80.677 62.3014C80.6763 62.2949 80.6757 62.2884 80.6749 62.2819L78.5618 44.1959C78.4838 43.529 77.8785 43.0511 77.2132 43.1294C76.5463 43.2073 76.0687 43.8112 76.1467 44.4781L78.259 62.5538C78.4956 64.9584 76.6226 67.1574 74.0866 67.1574H65.1513V64.0679H72.436C73.9712 64.0679 75.1724 62.7401 75.0192 61.2122C75.0184 61.2052 75.0176 61.1982 75.0168 61.1913L68.7341 7.84528C68.5945 6.51939 67.4866 5.52112 66.1521 5.52112H44.3369C43.6653 5.52112 43.1211 6.06548 43.1211 6.73694C43.1211 7.4084 43.6653 7.95276 44.3369 7.95276H66.1521C66.2369 7.95276 66.3073 8.01647 66.3159 8.10093C66.3165 8.10774 66.3173 8.11438 66.3181 8.12119L72.5999 61.4607C72.603 61.5053 72.5879 61.5494 72.5577 61.5824C72.5268 61.6168 72.4822 61.6364 72.4358 61.6364H65.1511V57.9254C65.1511 51.5258 59.9221 46.522 53.7475 46.522C49.4066 46.522 45.4885 48.9843 43.5607 52.8027C41.6141 48.9491 37.6073 46.44 33.1523 46.5241C27.0408 46.639 21.9687 51.6456 21.9687 57.9256V61.6366H10.564C10.5177 61.6366 10.4732 61.6168 10.442 61.5823C10.412 61.5492 10.397 61.5051 10.4 61.4605L16.682 8.12136C16.6828 8.11455 16.6837 8.10774 16.6843 8.10077C16.6929 8.01647 16.7631 7.95292 16.848 7.95292H38.6631C39.3347 7.95292 39.8789 7.40856 39.8789 6.7371C39.8789 6.06565 39.3347 5.52128 38.6631 5.52128H16.848C15.5134 5.52128 14.4055 6.51988 14.2661 7.84577L7.98324 61.1916C7.98243 61.1986 7.98162 61.2055 7.98081 61.2125C7.82745 62.7399 9.02868 64.0682 10.564 64.0682H36.4287V67.1577H8.91359C6.50594 67.1577 4.4914 65.0856 4.74105 62.554L11.3242 6.2237C11.325 6.21722 11.3256 6.21073 11.3263 6.20441C11.5428 4.05354 13.3363 2.43164 15.498 2.43164H67.5024C69.6641 2.43164 71.4573 4.05354 71.6739 6.20425C71.6746 6.21073 71.6752 6.21722 71.676 6.2237L75.4835 38.8043C75.5615 39.4714 76.1671 39.9493 76.8321 39.8708C77.499 39.793 77.9766 39.189 77.8986 38.5221L74.0923 5.95071C73.7457 2.55744 70.9144 0 67.5024 0H15.498C12.0857 0 9.25418 2.5576 8.90791 5.95104L2.32465 62.2821C2.32384 62.2886 2.32319 62.2951 2.32254 62.3015C1.93105 66.192 4.99184 69.5892 8.91359 69.5892ZM50.6913 58.0305C50.6913 56.3567 52.0079 54.9035 53.6903 54.8721C55.422 54.839 56.8043 56.2486 56.8043 57.9256V61.6366H50.6913V58.0305ZM44.7758 69.5892H56.8041V72.6787H44.7758V69.5892ZM57.4551 64.0681C58.3579 64.0681 59.0785 64.8491 58.9926 65.7589C58.9159 66.5506 58.2485 67.1574 57.4551 67.1574H44.7758V64.0679C49.0088 64.0681 53.2325 64.0681 57.4551 64.0681ZM44.7758 75.1103H57.4551C58.3527 75.1103 59.0788 75.8878 58.9926 76.8011C58.9161 77.5912 58.249 78.1996 57.4551 78.1996H44.7758V75.1103ZM62.7196 80.5684H59.2359V80.2096C62.1562 78.73 62.1626 74.5831 59.2359 73.1003V69.1675C62.1698 67.681 62.1487 63.5339 59.2359 62.0582V57.9256C59.2359 54.6046 56.2852 52.0058 52.947 52.4965C50.2961 52.8856 48.2596 55.1755 48.2596 57.9256V61.6366H44.7759V58.0966C44.7759 53.1438 48.7411 49.0032 53.6631 48.9559C58.7238 48.9134 62.7196 53.018 62.7196 57.9256V80.5684ZM24.4007 61.6364V58.0963C24.4007 52.8725 28.7284 48.7615 33.7364 48.9627C38.5159 49.1579 42.3443 53.097 42.3443 57.9252V80.5682H38.8605C38.8605 78.2309 38.8605 60.9427 38.8605 57.9252C38.8605 55.0154 36.5805 52.6074 33.6868 52.4468C30.562 52.2691 27.8844 54.7586 27.8844 57.9252V61.6363H24.4007V61.6364ZM30.3161 61.6364V58.0303C30.3161 56.5024 31.4123 55.1571 32.8899 54.9108C34.7767 54.6106 36.4287 56.084 36.4287 57.9254V61.6364H30.3161Z" fill="black"/>
</g>
<defs>
<clipPath id="clip0">
<rect width="83" height="83" fill="white"/>
</clipPath>
</defs>
</svg>
