<svg width="69" height="70" viewBox="0 0 69 70" fill="none" xmlns="http://www.w3.org/2000/svg">
<g clip-path="url(#clip0)">
<path d="M63.4957 16.7665L63.4957 16.7667C63.5078 17.5598 63.5279 18.2735 63.558 18.9486C63.558 18.9488 63.558 18.949 63.558 18.9492L63.5599 18.9972C63.56 18.998 63.56 18.9988 63.56 18.9996C63.7138 27.2288 63.901 37.414 60.539 46.6609L60.774 46.7464L60.539 46.661C58.6975 51.7271 55.9122 56.1278 52.2621 59.7445C48.1061 63.8621 42.657 67.1395 36.0589 69.4805C35.8532 69.5534 35.6387 69.6128 35.4215 69.657C35.1161 69.7188 34.808 69.7497 34.5006 69.7497C34.1932 69.7497 33.8856 69.7188 33.5796 69.657C33.3623 69.6128 33.1493 69.5539 32.9447 69.4815C26.3387 67.1448 20.8838 63.8689 16.7242 59.7508C13.0726 56.1353 10.2873 51.7356 8.44736 46.6706L8.21238 46.756L8.44736 46.6706C5.09777 37.4508 5.28573 27.2841 5.44011 19.0701C5.44011 19.0698 5.44012 19.0696 5.44012 19.0693L5.44319 18.9467C5.47326 18.2675 5.49382 17.5544 5.50542 16.7671L5.50542 16.767C5.55987 13.0353 8.48445 9.95267 12.1552 9.74501L12.1553 9.74501C20.1437 9.2922 26.3396 6.64578 31.63 1.41496C31.6303 1.41464 31.6306 1.41432 31.631 1.414L31.6719 1.37444C33.2863 -0.125162 35.7154 -0.125117 37.3292 1.37444C37.3298 1.37497 37.3303 1.37549 37.3309 1.37602L37.3702 1.414C37.3705 1.41432 37.3708 1.41464 37.3711 1.41497C42.6615 6.64579 48.8574 9.29221 56.8459 9.74447C60.5172 9.95265 63.4412 13.0353 63.4957 16.7665ZM63.8078 18.9381C63.7778 18.2657 63.7578 17.5543 63.7457 16.7628L63.8078 18.9381ZM34.8874 66.0754L34.89 66.0745C46.3128 62.0219 53.6282 55.2635 57.2103 45.4107C60.342 36.7962 60.1668 27.3656 60.0122 19.0925L60.0122 19.0925L60.012 19.086C59.9805 18.3829 59.9595 17.641 59.9474 16.8206C59.9208 14.9775 58.4746 13.45 56.6488 13.3468C52.184 13.094 48.2692 12.2194 44.6755 10.6761C41.0874 9.13514 37.8988 6.96267 34.9267 4.03081L34.9208 4.02496L34.9145 4.01952C34.6684 3.80717 34.3325 3.80896 34.0873 4.01891L34.0807 4.02464L34.0744 4.03083C31.1029 6.96267 27.9142 9.13514 24.3256 10.6761L24.4242 10.9059L24.3256 10.6761C20.7319 12.2194 16.8171 13.094 12.3528 13.3468C10.527 13.45 9.08086 14.9775 9.05369 16.82L9.05369 16.8202C9.04214 17.6362 9.02115 18.3781 8.98969 19.0861L8.98963 19.0861L8.98951 19.0915L8.98845 19.1374L8.98843 19.1384L8.98807 19.1577C8.83302 27.4164 8.65624 36.8317 11.7766 45.4213C15.3561 55.2749 22.6764 62.0295 34.1113 66.0746L34.1127 66.0751C34.1638 66.0928 34.2176 66.1073 34.2718 66.1185L34.2726 66.1186C34.424 66.1492 34.577 66.1493 34.727 66.1193L34.7277 66.1191C34.7846 66.1076 34.8383 66.0922 34.8874 66.0754Z" fill="black" stroke="white" stroke-width="0.5"/>
<path d="M17.5538 35.0009C17.5538 25.5167 25.159 17.8059 34.4996 17.8059C43.8397 17.8059 51.4454 25.5167 51.4454 35.0009C51.4454 44.4857 43.8397 52.1964 34.4996 52.1964C25.159 52.1964 17.5538 44.4857 17.5538 35.0009ZM21.1026 35.0009C21.1026 42.4901 27.1087 48.5885 34.4996 48.5885C41.89 48.5885 47.8961 42.4901 47.8961 35.0009C47.8961 27.5117 41.89 21.4133 34.4996 21.4133C27.1087 21.4133 21.1026 27.5117 21.1026 35.0009Z" fill="black" stroke="white" stroke-width="0.5"/>
<path d="M39.6198 29.7607L39.6198 29.7606C40.3126 29.0573 41.4341 29.0573 42.1269 29.7606L42.1269 29.7607C42.8211 30.4649 42.8212 31.6091 42.1269 32.3139L32.7081 41.8692C32.3613 42.2211 31.9081 42.3961 31.4548 42.3961C31.0015 42.3961 30.5483 42.2211 30.2015 41.8692L26.6017 38.2173C25.9075 37.5131 25.9075 36.369 26.6018 35.6641C27.2946 34.9613 28.4161 34.9613 29.1089 35.6641L31.2767 37.8634L31.4548 38.044L31.6328 37.8634L39.6198 29.7607Z" fill="black" stroke="white" stroke-width="0.5"/>
</g>
<defs>
<clipPath id="clip0">
<rect width="69" height="70" fill="white"/>
</clipPath>
</defs>
</svg>
