<svg width="41" height="42" viewBox="0 0 41 42" fill="none" xmlns="http://www.w3.org/2000/svg">
<rect x="0.5" y="41" width="40.5" height="39.5778" transform="rotate(-90 0.5 41)" stroke="url(#paint0_linear)"/>
<g clip-path="url(#clip0)">
<path d="M20.6505 28.6205L29.4338 15.2479C29.5265 15.1064 29.5361 14.9229 29.4611 14.7716C29.3851 14.6199 29.2358 14.5249 29.0724 14.5249L11.5058 14.5249C11.3425 14.5249 11.1927 14.6199 11.1167 14.7716C11.0834 14.8389 11.0667 14.9127 11.0667 14.986C11.0667 15.0778 11.093 15.1691 11.1444 15.2479L19.9277 28.6205C20.0098 28.7454 20.1446 28.8197 20.2891 28.8197C20.4336 28.8197 20.5684 28.745 20.6505 28.6205Z" fill="white"/>
</g>
<defs>
<linearGradient id="paint0_linear" x1="20.75" y1="41.5" x2="20.75" y2="82.0778" gradientUnits="userSpaceOnUse">
<stop stop-color="white"/>
<stop offset="1" stop-color="#D6D6D6"/>
</linearGradient>
<clipPath id="clip0">
<rect width="19.3667" height="18.4444" fill="white" transform="translate(29.5111 11.9888) rotate(90)"/>
</clipPath>
</defs>
</svg>
