<svg width="28" height="25" viewBox="0 0 28 25" fill="none" xmlns="http://www.w3.org/2000/svg">
<g clip-path="url(#clip0)">
<path d="M17.9602 9.30242L12.1725 6.37189C11.8397 6.20339 11.4464 6.20968 11.1202 6.38854C10.7938 6.56758 10.5991 6.88387 10.5991 7.23492V13.0457C10.5991 13.3951 10.7926 13.7108 11.1168 13.89C11.2861 13.9836 11.4738 14.0306 11.6618 14.0306C11.8341 14.0306 12.0068 13.9912 12.1657 13.912L17.9536 11.032C18.2972 10.8609 18.5117 10.5304 18.5133 10.1692C18.5147 9.80792 18.3028 9.47592 17.9602 9.30242ZM12.1343 12.3147V7.97181L16.46 10.1621L12.1343 12.3147Z" fill="white"/>
<path d="M26.8339 5.53985L26.8327 5.52875C26.8106 5.33362 26.5897 3.59794 25.6779 2.71512C24.6239 1.67675 23.4291 1.55061 22.8545 1.49012C22.8069 1.48513 22.7633 1.48051 22.7243 1.4757L22.6786 1.47126C19.2152 1.23821 13.9847 1.20639 13.9323 1.20621L13.9277 1.20602L13.9231 1.20621C13.8708 1.20639 8.6403 1.23821 5.14572 1.47126L5.09954 1.4757C5.06237 1.48032 5.02139 1.48458 4.97682 1.48938C4.40878 1.55005 3.22673 1.67638 2.16981 2.7523C1.30136 3.62569 1.05032 5.32419 1.02453 5.51507L1.02154 5.53985C1.01374 5.62105 0.828857 7.55408 0.828857 9.49469V11.3088C0.828857 13.2494 1.01374 15.1824 1.02154 15.2638L1.02293 15.276C1.04512 15.468 1.26578 17.1719 2.1734 18.0551C3.16437 19.0587 4.41738 19.1915 5.09135 19.2629C5.19788 19.2742 5.28962 19.2838 5.35218 19.2939L5.41275 19.3017C7.41248 19.4778 13.6823 19.5645 13.9481 19.5681L13.9561 19.5682L13.9641 19.5681C14.0165 19.5679 19.2468 19.5361 22.7102 19.303L22.7559 19.2986C22.7997 19.2932 22.8489 19.2884 22.9028 19.2832C23.4677 19.2277 24.6433 19.1125 25.6857 18.0512C26.5541 17.1776 26.8054 15.4791 26.8309 15.2884L26.8339 15.2636C26.8417 15.1823 27.0268 13.2494 27.0268 11.3088V9.49469C27.0266 7.55408 26.8417 5.62123 26.8339 5.53985ZM25.4914 11.3088C25.4914 13.105 25.3219 14.9548 25.3059 15.1245C25.2407 15.5923 24.9759 16.6669 24.5528 17.0925C23.9004 17.7567 23.2302 17.8226 22.7409 17.8705C22.6818 17.8762 22.627 17.8818 22.5774 17.8875C19.2276 18.1117 14.1946 18.1461 13.9627 18.1474C13.7027 18.1439 7.5246 18.0564 5.58584 17.8897C5.4865 17.8747 5.37917 17.8633 5.26604 17.8514C4.6922 17.7906 3.9067 17.7073 3.30269 17.0925L3.28849 17.0785C2.87276 16.6777 2.61552 15.6728 2.55016 15.1301C2.53797 15.0017 2.36408 13.1301 2.36408 11.3088V9.49469C2.36408 7.70057 2.53317 5.85281 2.54956 5.6795C2.62731 5.1285 2.89714 4.11898 3.30269 3.71095C3.97506 3.0266 4.68401 2.95076 5.15291 2.90064C5.19768 2.89583 5.23946 2.89139 5.27803 2.88677C8.67667 2.66148 13.7459 2.62801 13.9277 2.62671C14.1096 2.62782 19.177 2.66148 22.5455 2.88677C22.5868 2.89158 22.632 2.89639 22.6806 2.90156C23.1629 2.95243 23.8918 3.02937 24.5608 3.68968L24.567 3.69579C24.9827 4.0966 25.24 5.11907 25.3053 5.67265C25.3169 5.7938 25.4914 7.6695 25.4914 9.49469V11.3088Z" fill="white"/>
</g>
<defs>
<clipPath id="clip0">
<rect width="26.1979" height="24.2432" fill="white" transform="translate(0.828857 0.378418)"/>
</clipPath>
</defs>
</svg>
